<?xml version="1.0" standalone="no"?>
<!DOCTYPE svg PUBLIC "-//W3C//DTD SVG 1.1//EN" "http://www.w3.org/Graphics/SVG/1.1/DTD/svg11.dtd" >
<svg xmlns="http://www.w3.org/2000/svg" width="100%" height="100%">
<metadata>
Created by FontXChange 20100429 at Mon Mar 11 21:47:11 2013
 By Andrew Ritchie
Xpdf by S
</metadata>
<defs>
<font id="Brevia-Medium" horiz-adv-x="610" >
  <font-face 
    font-family="Brevia Medium"
    font-weight="500"
    font-stretch="normal"
    units-per-em="1000"
    panose-1="2 0 6 3 4 0 0 2 0 4"
    ascent="800"
    descent="-200"
    x-height="550"
    cap-height="680"
    bbox="-44.1044 -297 1236 960.519"
    underline-thickness="50"
    underline-position="-50"
    stemh="91"
    stemv="111"
    unicode-range="U+0020-FB02"
  />
<missing-glyph horiz-adv-x="602" 
d="M51 30v640c0 21 9 30 30 30h439c21 0 30 -9 30 -30v-640c0 -21 -9 -30 -30 -30h-439c-21 0 -30 9 -30 30zM288 298c22 0 41 11 41 11c1 41 104 87 103 167c0 68 -50 109 -145 109c-56 0 -101 -18 -120 -35c-30 -29 14 -72 14 -72s45 33 102 33c41 0 60 -18 60 -44
c0 -53 -93 -85 -92 -136c0 -18 13 -33 37 -33zM230 173c0 -48 28 -53 61 -53s60 5 60 53c-2 50 -31 55 -63 55c-33 0 -60 -5 -58 -55z" />
    <glyph glyph-name=".notdef" horiz-adv-x="602" 
d="M51 30v640c0 21 9 30 30 30h439c21 0 30 -9 30 -30v-640c0 -21 -9 -30 -30 -30h-439c-21 0 -30 9 -30 30zM288 298c22 0 41 11 41 11c1 41 104 87 103 167c0 68 -50 109 -145 109c-56 0 -101 -18 -120 -35c-30 -29 14 -72 14 -72s45 33 102 33c41 0 60 -18 60 -44
c0 -53 -93 -85 -92 -136c0 -18 13 -33 37 -33zM230 173c0 -48 28 -53 61 -53s60 5 60 53c-2 50 -31 55 -63 55c-33 0 -60 -5 -58 -55z" />
    <glyph glyph-name="space" unicode=" " horiz-adv-x="320" 
 />
    <glyph glyph-name="exclam" unicode="!" horiz-adv-x="327" 
d="M163 276c-7 98 -55 252 -53 333c1 40 13 81 72 81c56 0 78 -35 78 -100c0 -87 -38 -215 -67 -316zM95 66c-2 72 34 79 78 79c43 0 81 -7 83 -79c0 -69 -35 -76 -79 -76c-45 0 -82 7 -82 76z" />
    <glyph glyph-name="percent" unicode="%" horiz-adv-x="901" 
d="M237 326c-121 0 -173 77 -173 182c0 102 59 182 173 182s171 -79 171 -182c0 -104 -63 -182 -171 -182zM258 41c53 101 259 529 295 605c8 17 14 34 38 34h29c20 0 27 -12 13 -40c-34 -66 -250 -504 -294 -608c-12 -29 -24 -32 -44 -32h-22c-30 0 -29 15 -15 41zM237 400
c64 0 78 53 78 109c0 55 -14 107 -78 107c-69 0 -81 -52 -81 -107c0 -56 12 -109 81 -109zM493 172c0 102 59 182 173 182s171 -79 171 -182c0 -104 -63 -182 -171 -182c-121 0 -173 77 -173 182zM585 173c0 -56 12 -109 81 -109c64 0 78 53 78 109c0 55 -14 107 -78 107
c-69 0 -81 -52 -81 -107z" />
    <glyph glyph-name="asterisk" unicode="*" horiz-adv-x="461" 
d="M152 362l-7 4c-39 22 25 101 46 136l-4 4c-22 -1 -131 -33 -131 22c0 64 106 27 129 25l5 5c-28 41 -95 110 -60 132l8 5c39 24 67 -68 87 -113h6c16 44 26 136 73 115l9 -4c42 -19 -22 -94 -45 -134l4 -5c26 5 134 30 134 -23c0 -52 -69 -29 -133 -24l-1 -5
c26 -33 107 -110 62 -132l-8 -4c-36 -18 -73 70 -89 112h-8c-7 -37 -33 -141 -77 -116z" />
    <glyph glyph-name="plus" unicode="+" 
d="M260 161v140c-65 -1 -120 -1 -136 -1c-26 0 -27 2 -27 25v35c0 24 10 23 33 22c17 -1 69 -1 130 -1v144c0 28 3 35 25 35h34c20 0 27 -10 26 -36c-1 -13 -1 -69 -1 -143c70 0 128 1 136 1c25 1 32 -3 32 -26v-34c0 -21 -9 -23 -32 -22c-11 1 -68 1 -136 1v-145
c1 -28 -4 -32 -25 -32h-35c-22 0 -25 11 -24 37z" />
    <glyph glyph-name="comma" unicode="," horiz-adv-x="341" 
d="M84 78c0 56 36 81 81 81c52 0 92 -36 92 -110c0 -150 -63 -209 -115 -209c-64 0 -50 52 -50 52s83 26 83 108c-49 -4 -91 15 -91 78z" />
    <glyph glyph-name="hyphen" unicode="-" horiz-adv-x="448" 
d="M104 293c-23 0 -29 10 -29 33v38c0 22 5 27 33 27c0 0 193 0 238 3c22 1 28 -13 28 -36l-1 -36c0 -22 -5 -27 -33 -27c-31 0 -236 -2 -236 -2z" />
    <glyph glyph-name="period" unicode="." horiz-adv-x="309" 
d="M75 74c-2 76 33 85 79 85c43 0 80 -9 80 -85c0 -75 -35 -84 -79 -84s-81 9 -80 84z" />
    <glyph glyph-name="zero" unicode="0" horiz-adv-x="642" 
d="M315 -10c-186 0 -254 151 -254 350c0 197 81 350 265 350c185 0 253 -152 254 -350c1 -195 -82 -350 -265 -350zM316 81c110 0 155 127 155 259c0 136 -40 259 -146 259c-112 0 -154 -123 -154 -258c0 -128 34 -260 145 -260z" />
    <glyph glyph-name="one" unicode="1" horiz-adv-x="451" 
d="M245 60c2 42 4 404 7 500l-149 -74c-20 -10 -31 0 -38 12l-12 21c-11 19 -10 35 8 45l220 116h41c37 0 36 -33 35 -59c-2 -29 -3 -512 -1 -554c2 -28 14 -67 -35 -67h-40c-37 0 -37 34 -36 60z" />
    <glyph glyph-name="two" unicode="2" horiz-adv-x="561" 
d="M60 34l-1 60c120 127 322 258 322 404c0 55 -42 101 -112 101c-95 0 -173 -58 -173 -58s-10 9 -17 25c-22 49 1 67 20 80c18 12 82 44 170 44c128 0 216 -67 222 -181c8 -157 -189 -300 -288 -404v-9c45 0 239 2 253 4c24 2 34 -12 33 -35v-38c-1 -22 -5 -27 -36 -27
h-355c-26 0 -38 10 -38 34z" />
    <glyph glyph-name="three" unicode="3" horiz-adv-x="580" 
d="M87 34c-26 15 -42 30 -32 68c6 25 21 36 21 36s86 -57 201 -57c98 0 139 53 139 119c0 56 -41 102 -129 102h-94c-14 0 -17 10 -17 22v48c0 9 4 17 15 17h90c66 0 112 43 112 109c0 60 -36 101 -119 101c-116 0 -181 -57 -181 -57s-10 8 -18 24c-21 43 -1 63 13 74
c18 15 92 50 188 50c163 0 224 -81 224 -187c0 -119 -100 -150 -100 -150v-6s124 -15 124 -156c0 -115 -102 -201 -247 -201c-96 0 -173 34 -190 44z" />
    <glyph glyph-name="four" unicode="4" horiz-adv-x="632" 
d="M116 221c-31 0 -42 20 -41 56c2 38 19 339 19 359c0 28 2 44 34 44h37c27 0 36 -17 35 -36c-1 -31 -21 -283 -21 -335l195 1c1 40 1 181 1 189c0 28 -1 51 36 51h33c29 0 41 -17 40 -43c-1 -11 -3 -173 -3 -194h86c14 1 27 -7 26 -27v-36c0 -21 -7 -26 -25 -25
c-6 1 -84 1 -88 1c0 -12 -2 -154 -1 -163c2 -29 13 -63 -35 -63h-36c-37 0 -37 34 -36 60v164c-44 -1 -210 -3 -256 -3z" />
    <glyph glyph-name="five" unicode="5" horiz-adv-x="590" 
d="M64 103c6 21 18 32 21 34c0 0 86 -56 200 -56c90 0 136 58 136 131c0 74 -53 121 -202 121c-39 0 -77 -5 -97 -5c-19 0 -31 10 -29 38c1 14 4 167 5 235c0 54 -4 79 56 79h296c27 0 31 -14 31 -36v-33c0 -30 -21 -29 -62 -29c-51 0 -153 0 -218 -1
c-1 -52 -4 -139 -4 -161c184 10 332 -29 332 -208c0 -128 -90 -222 -244 -222c-149 0 -239 47 -221 113z" />
    <glyph glyph-name="six" unicode="6" horiz-adv-x="612" 
d="M61 301c0 196 97 389 309 389c75 0 126 -19 147 -32c28 -17 19 -46 10 -65c-9 -20 -23 -30 -23 -30s-54 36 -141 36c-148 0 -204 -160 -204 -242h8s55 70 168 70c114 0 221 -71 221 -207c0 -128 -102 -230 -239 -230c-158 0 -256 113 -256 311zM174 220
c0 -94 67 -139 143 -139c89 0 132 63 132 139c0 87 -65 132 -140 133c-102 1 -135 -75 -135 -133z" />
    <glyph glyph-name="seven" unicode="7" horiz-adv-x="547" 
d="M82 35c0 100 238 417 315 542v6c-35 -1 -294 -2 -311 -2c-25 0 -30 12 -29 35l1 37c0 22 6 27 35 27h383c21 0 33 -15 33 -35l-1 -54c-97 -154 -265 -406 -307 -554c-8 -28 -20 -37 -34 -37h-52c-26 0 -33 11 -33 35z" />
    <glyph glyph-name="eight" unicode="8" horiz-adv-x="620" 
d="M56 193c0 137 130 164 130 164v6s-96 29 -96 136c0 106 61 190 223 191c163 0 224 -80 224 -191c0 -107 -100 -136 -100 -136v-6s127 -27 127 -164c0 -117 -102 -203 -251 -203c-158 0 -257 86 -257 203zM313 395c76 0 115 49 115 104c0 56 -39 100 -115 100
c-78 0 -113 -44 -113 -100c0 -55 35 -104 113 -104zM166 199c0 -73 44 -118 147 -118c105 0 144 48 143 120c-1 61 -38 120 -143 120c-103 0 -147 -61 -147 -122z" />
    <glyph glyph-name="nine" unicode="9" horiz-adv-x="614" 
d="M106 28c-17 14 -18 39 -10 63c7 22 22 31 22 31s50 -41 143 -41c150 0 191 157 191 247h-8s-48 -77 -160 -77c-142 0 -226 79 -227 214c-1 116 78 225 240 225c159 0 256 -114 256 -341c0 -173 -87 -359 -295 -359c-91 0 -137 25 -152 38zM296 328c92 -1 139 71 139 135
c0 89 -57 136 -139 136c-89 0 -132 -60 -132 -136c0 -87 65 -134 132 -135z" />
    <glyph glyph-name="colon" unicode=":" horiz-adv-x="309" 
d="M155 399c-42 0 -77 9 -76 80c-2 72 31 81 75 81c41 0 76 -9 76 -81c0 -71 -33 -80 -75 -80zM79 70c-2 72 31 81 75 81c41 0 76 -9 76 -81c0 -71 -33 -80 -75 -80s-77 9 -76 80z" />
    <glyph glyph-name="semicolon" unicode=";" horiz-adv-x="309" 
d="M155 399c-42 0 -77 9 -76 80c-2 72 31 81 75 81c41 0 76 -9 76 -81c0 -71 -33 -80 -75 -80zM81 68c0 53 34 75 77 75c50 0 88 -32 88 -103c0 -142 -60 -200 -110 -200c-61 0 -47 49 -47 49s79 27 79 105c-47 -4 -87 14 -87 74z" />
    <glyph glyph-name="less" unicode="&#x3c;" 
d="M141 217c-27 19 -24 22 -24 46v26c0 23 -3 26 24 45c53 36 258 192 277 208c29 24 38 25 54 -3l14 -25c14 -26 3 -36 -24 -55c-23 -15 -183 -128 -252 -180v-8c69 -52 230 -164 253 -179c27 -19 38 -30 24 -55l-14 -25c-16 -28 -25 -27 -54 -3c-19 16 -225 172 -278 208z
" />
    <glyph glyph-name="equal" unicode="=" 
d="M158 411c-26 -1 -29 2 -29 25v33c0 24 9 23 33 22c43 -2 269 0 286 0c26 1 31 -2 32 -25l1 -33c0 -21 -10 -23 -33 -22c-25 2 -250 0 -290 0zM159 191c-26 -1 -27 2 -28 25l-1 33c-1 24 9 23 33 22c44 -2 269 0 286 0c26 1 32 -2 32 -25v-33c0 -21 -9 -23 -32 -22
c-25 2 -250 0 -290 0z" />
    <glyph glyph-name="greater" unicode="&#x3e;" 
d="M123 37c-14 25 -3 36 24 55c23 15 184 127 253 179v8c-69 52 -229 165 -252 180c-27 19 -38 29 -24 55l14 25c16 28 25 27 54 3c19 -16 224 -172 277 -208c27 -19 24 -22 24 -45v-26c0 -24 3 -27 -24 -46c-53 -36 -259 -192 -278 -208c-29 -24 -38 -25 -54 3z" />
    <glyph glyph-name="question" unicode="?" horiz-adv-x="487" 
d="M244 258c-30 0 -48 19 -48 46c0 80 137 131 137 222c0 42 -27 73 -87 73c-83 0 -146 -59 -146 -59s-62 55 -22 95c27 27 90 55 168 55c128 0 198 -62 198 -164c0 -120 -145 -190 -147 -254c0 0 -26 -14 -53 -14zM166 66c-2 72 34 79 78 79c43 0 81 -7 83 -79
c0 -69 -35 -76 -79 -76c-45 0 -82 7 -82 76z" />
    <glyph glyph-name="A" unicode="A" horiz-adv-x="672" 
d="M43 38c21 68 198 561 209 597c8 27 24 45 58 45h61c35 0 52 -19 62 -49c8 -32 183 -547 196 -591c7 -28 -4 -40 -29 -40h-29c-38 0 -39 25 -45 39c-7 17 -21 67 -45 125h-287c-22 -61 -40 -108 -44 -122c-8 -29 -18 -42 -43 -42h-40c-19 0 -32 13 -24 38zM217 244h240
c-48 141 -104 309 -116 355h-6c-13 -47 -69 -215 -118 -355z" />
    <glyph glyph-name="B" unicode="B" horiz-adv-x="655" 
d="M94 60c3 66 0 553 0 573c0 28 -4 47 48 47h186c172 0 240 -76 240 -173c0 -120 -125 -144 -125 -144v-6s156 -14 156 -162c0 -112 -78 -195 -253 -195h-214c-38 0 -38 34 -38 60zM203 395h125c81 0 131 35 131 106c0 63 -54 98 -131 98h-124zM203 81h142
c77 0 142 36 142 120c0 74 -58 114 -143 114h-142z" />
    <glyph glyph-name="C" unicode="C" horiz-adv-x="642" 
d="M61 340c0 199 104 350 318 350c106 0 160 -31 180 -44c16 -11 36 -37 6 -76c-13 -17 -24 -22 -24 -22s-53 51 -160 51c-145 0 -210 -116 -210 -258c0 -145 76 -260 209 -260c65 0 105 21 129 38c12 8 25 15 37 -6l21 -35c8 -13 13 -24 -2 -36c-23 -18 -84 -52 -185 -52
c-215 0 -319 149 -319 350z" />
    <glyph glyph-name="D" unicode="D" horiz-adv-x="707" 
d="M95 60c3 66 -1 533 -1 553c0 28 -12 67 37 67h161c261 0 357 -142 353 -340c-3 -197 -89 -340 -353 -340h-159c-37 0 -38 34 -38 60zM202 81h90c214 0 244 130 243 262c-1 134 -40 256 -243 256h-89c-3 -113 -2 -376 -1 -518z" />
    <glyph glyph-name="E" unicode="E" horiz-adv-x="603" 
d="M99 60c2 66 -5 533 -5 553c0 28 -13 67 36 67h370c28 0 32 -14 32 -36v-29c0 -23 -10 -32 -34 -32h-293l-2 -201c81 0 231 0 256 1c14 1 27 -7 27 -27v-36c0 -21 -7 -25 -25 -25c-29 0 -173 1 -257 0l3 -198c80 0 262 1 292 3c23 2 33 -10 33 -33v-40
c0 -22 -5 -27 -33 -27h-363c-37 0 -38 34 -37 60z" />
    <glyph glyph-name="F" unicode="F" horiz-adv-x="574" 
d="M96 60c0 11 1 33 1 62c0 147 -2 474 -2 491c0 47 -3 67 40 67h345c24 0 33 -14 33 -38v-27c0 -33 -13 -34 -40 -34h-271l-1 -218h247c23 0 37 -3 37 -27v-35c0 -21 -7 -30 -26 -28c-30 3 -189 1 -258 0c0 -100 3 -188 3 -206c1 -32 13 -67 -33 -67h-38
c-36 0 -38 22 -37 60z" />
    <glyph glyph-name="G" unicode="G" horiz-adv-x="714" 
d="M61 340c0 200 115 350 320 350c121 0 183 -34 204 -48c18 -11 39 -36 8 -76c-11 -15 -25 -22 -25 -22s-60 55 -185 55c-120 0 -212 -95 -212 -254c0 -179 91 -264 193 -264c186 0 175 211 175 211h-147c-12 0 -16 9 -16 20l-1 50c0 10 8 17 21 17h215c28 0 34 -7 33 -33
c-1 -29 -8 -261 -5 -303c2 -29 -5 -43 -26 -43h-41c-20 0 -29 11 -29 34c0 8 4 58 3 71h-9s-37 -115 -189 -115c-183 0 -287 152 -287 350z" />
    <glyph glyph-name="H" unicode="H" horiz-adv-x="765" 
d="M93 60c2 66 1 533 1 553c0 28 -14 67 35 67h40c37 0 38 -33 37 -59c-2 -14 -2 -124 -2 -242h355v234c0 28 -14 67 35 67h41c36 0 37 -33 36 -59c-1 -29 -4 -512 -1 -554c1 -28 14 -67 -35 -67h-40c-37 0 -38 34 -37 60c1 27 1 128 1 232h-356c0 -109 1 -207 2 -225
c2 -28 14 -67 -35 -67h-40c-37 0 -38 34 -37 60z" />
    <glyph glyph-name="I" unicode="I" horiz-adv-x="329" 
d="M111 60c2 66 -5 452 -5 553c0 28 -14 67 35 67h40c37 0 38 -33 37 -59c-4 -105 2 -512 3 -554c2 -28 15 -67 -34 -67h-39c-37 0 -38 34 -37 60z" />
    <glyph glyph-name="J" unicode="J" horiz-adv-x="512" 
d="M33 69c-13 18 -18 27 -4 40l31 31c16 15 27 10 35 0c14 -16 51 -59 114 -59c70 0 107 45 110 133c8 261 1 402 1 421c-1 29 -3 45 34 45h40c37 0 37 -33 37 -59c0 -29 -2 -307 -3 -406c-1 -148 -86 -225 -219 -225c-100 0 -161 60 -176 79z" />
    <glyph glyph-name="K" unicode="K" horiz-adv-x="684" 
d="M92 60c2 66 2 533 2 553c0 28 -14 67 35 67h40c37 0 36 -33 36 -59c-1 -13 -2 -121 -3 -238h119c35 46 164 232 191 270c11 15 21 27 41 27h61c20 0 32 -18 21 -37c-32 -44 -170 -220 -225 -304c44 -69 154 -210 172 -234c17 -23 31 -24 63 -24c14 -70 -14 -91 -64 -91
c-43 0 -64 17 -92 56l-175 254h-113c0 -112 0 -215 1 -233c2 -28 7 -67 -32 -67h-41c-37 0 -37 34 -37 60z" />
    <glyph glyph-name="L" unicode="L" horiz-adv-x="566" 
d="M95 60c0 13 1 43 1 81c0 115 -1 314 -2 413c0 32 -1 60 -2 93c0 20 3 33 27 33h46c37 0 36 -33 36 -59c0 -5 -1 -25 -1 -54c-1 -115 -1 -379 1 -470c80 0 253 0 281 3c23 3 33 -12 33 -35v-33c0 -22 -4 -32 -32 -32h-350c-37 0 -38 34 -38 60z" />
    <glyph glyph-name="M" unicode="M" horiz-adv-x="909" 
d="M79 46c7 66 44 557 48 595c1 10 -1 39 34 39h82c14 0 34 -4 42 -26c12 -38 161 -442 161 -442h7s150 404 163 443c9 24 29 25 47 25h83c38 0 35 -33 37 -59c6 -71 35 -460 44 -566c2 -28 15 -55 -35 -55h-37c-40 0 -34 25 -36 51c-2 33 -24 432 -30 515h-7
c-20 -60 -148 -401 -158 -430c-8 -19 -20 -27 -33 -27h-81c-20 0 -33 16 -37 27c-10 34 -140 377 -156 431h-5c-5 -127 -20 -458 -22 -518c-1 -29 5 -49 -33 -49h-41c-37 0 -40 20 -37 46z" />
    <glyph glyph-name="N" unicode="N" horiz-adv-x="745" 
d="M93 60c2 66 0 553 0 573c0 28 1 47 41 47h52l350 -452h7c-2 45 -4 414 -4 423c-1 14 2 29 37 29h39c36 0 36 -33 36 -59c0 -29 -4 -512 -1 -554c1 -28 14 -67 -35 -67h-38c-33 0 -37 33 -38 55c-1 32 -281 367 -334 445h-9c0 -67 8 -417 9 -433c1 -28 14 -67 -35 -67h-40
c-37 0 -38 34 -37 60z" />
    <glyph glyph-name="O" unicode="O" horiz-adv-x="726" 
d="M61 340c0 197 97 350 304 350c193 0 299 -152 300 -350c0 -199 -107 -350 -301 -350c-207 0 -303 150 -303 350zM364 81c139 0 190 126 190 260c0 138 -50 258 -190 258c-143 0 -193 -120 -193 -258c0 -136 49 -260 193 -260z" />
    <glyph glyph-name="P" unicode="P" horiz-adv-x="650" 
d="M94 60c2 66 0 533 0 553c0 28 -13 67 36 67h204c170 0 265 -102 264 -233c-1 -129 -92 -237 -258 -237h-136c0 -26 1 -135 2 -143c1 -28 14 -67 -35 -67h-40c-37 0 -38 34 -37 60zM203 291h131c104 0 153 59 154 149c1 89 -45 159 -153 159h-133c-4 -47 2 -258 1 -308z
" />
    <glyph glyph-name="Q" unicode="Q" horiz-adv-x="731" 
d="M333 -10c-134 0 -272 148 -272 350c0 190 101 350 308 350c189 0 297 -152 297 -328c0 -218 -165 -307 -165 -307c47 -65 120 -126 185 -126c10 -50 -13 -89 -67 -89c-60 0 -147 61 -210 201h-8s-13 -51 -68 -51zM172 340c0 -178 121 -264 231 -264c0 0 152 78 152 286
c0 114 -45 237 -186 237c-148 0 -197 -123 -197 -259z" />
    <glyph glyph-name="R" unicode="R" horiz-adv-x="677" 
d="M94 60c2 66 1 534 1 554c0 28 -3 66 45 66h206c167 0 254 -92 254 -226c0 -106 -68 -176 -152 -206l112 -144c16 -23 34 -23 59 -23c15 -67 -14 -91 -60 -91c-51 0 -69 25 -91 56l-128 185h-137c0 -26 -2 -160 0 -184c3 -35 -6 -47 -33 -47h-39c-37 0 -37 34 -37 60z
M201 311h146c81 0 142 51 142 143c0 70 -42 145 -143 145h-145c-2 -60 0 -250 0 -288z" />
    <glyph glyph-name="S" unicode="S" horiz-adv-x="587" 
d="M100 28c-32 20 -42 45 -30 76c9 26 31 38 31 38s62 -61 179 -61c90 0 145 44 145 111c0 45 -42 79 -114 97l-96 25c-88 23 -164 71 -164 176c0 112 90 200 240 200c95 0 156 -26 181 -41c27 -17 41 -40 22 -74c-11 -20 -26 -30 -26 -30s-75 54 -177 54
c-88 0 -129 -45 -129 -108c0 -51 56 -73 109 -88l93 -25c126 -36 172 -98 172 -186c0 -125 -107 -202 -256 -202c-92 0 -158 25 -180 38z" />
    <glyph glyph-name="T" unicode="T" horiz-adv-x="586" 
d="M232 59c1 25 4 409 3 523c-30 0 -166 1 -177 0c-23 -2 -30 10 -30 33v38c0 22 4 27 32 27c0 0 424 -4 469 0c23 2 30 -13 29 -36l-1 -35c-1 -22 -4 -27 -32 -27l-181 -1c-5 -138 0 -497 0 -514c0 -28 14 -67 -35 -67h-40c-37 0 -38 33 -37 59z" />
    <glyph glyph-name="U" unicode="U" horiz-adv-x="715" 
d="M83 315c-3 133 1 291 0 311c0 28 -5 54 34 54h41c37 0 38 -20 37 -46c-1 -29 -2 -175 -2 -319s41 -234 166 -234c121 0 160 86 160 236c0 142 2 289 2 309c0 28 -6 54 33 54h41c37 0 39 -20 38 -46c-1 -29 -3 -271 -5 -318c-8 -196 -58 -326 -269 -326
c-223 0 -272 127 -276 325z" />
    <glyph glyph-name="V" unicode="V" horiz-adv-x="654" 
d="M229 49c-9 32 -173 547 -186 591c-8 28 3 40 28 40h30c37 0 39 -25 44 -39c10 -28 157 -480 176 -560h7c19 80 166 528 176 557c9 29 10 42 43 42h39c19 0 33 -13 25 -38c-21 -68 -188 -561 -199 -597c-9 -27 -26 -45 -59 -45h-62c-35 0 -54 19 -62 49z" />
    <glyph glyph-name="W" unicode="W" horiz-adv-x="1018" 
d="M193 59c-11 40 -140 527 -147 570c-5 29 -5 51 32 51h29c37 0 45 -27 48 -41c11 -46 101 -430 124 -537h5c28 108 131 497 143 531c8 27 15 47 49 47h64c34 0 45 -32 49 -47l142 -535h5c25 103 116 506 123 538c6 28 11 44 44 44h42c27 0 34 -22 28 -48
c-17 -71 -137 -513 -150 -565c-6 -28 -10 -67 -55 -67h-68c-25 0 -43 12 -52 43c-12 38 -108 411 -137 525h-5c-31 -117 -128 -487 -139 -526c-7 -33 -25 -42 -51 -42h-70c-39 0 -46 35 -53 59z" />
    <glyph glyph-name="X" unicode="X" horiz-adv-x="628" 
d="M63 0c-23 0 -31 25 -13 50c13 15 141 208 198 290l-200 297c-13 20 -3 43 16 43h50c24 0 35 -18 43 -32c18 -26 124 -196 152 -235h5c36 48 140 212 155 240c8 15 18 27 47 27h46c25 0 33 -18 19 -43c-10 -18 -140 -209 -202 -297c55 -81 180 -265 199 -297
c14 -20 6 -43 -17 -43h-50c-24 0 -35 18 -43 32c-13 19 -109 179 -149 236h-6c-39 -52 -139 -214 -156 -240c-10 -15 -20 -28 -48 -28h-46z" />
    <glyph glyph-name="Y" unicode="Y" horiz-adv-x="624" 
d="M254 60v220c-37 66 -206 336 -221 357c-7 11 -16 43 13 43h56c27 0 35 -20 43 -35c32 -60 128 -213 161 -269h7c37 56 152 249 165 277c8 16 16 27 51 27h45c20 0 32 -25 20 -43c-22 -29 -195 -308 -230 -359c1 -30 -1 -188 1 -211c2 -28 15 -67 -34 -67h-40
c-37 0 -39 34 -37 60z" />
    <glyph glyph-name="Z" unicode="Z" horiz-adv-x="592" 
d="M51 34v60c32 39 309 405 365 481v6h-300c-24 0 -29 12 -29 35v37c0 22 6 27 35 27h385c21 0 32 -15 34 -35v-54l-365 -486v-8c49 0 294 1 312 3c24 2 34 -10 34 -33v-40c0 -22 -5 -27 -35 -27h-399c-25 0 -35 10 -37 34z" />
    <glyph glyph-name="asciicircum" unicode="^" horiz-adv-x="608" 
d="M119 352l-26 14c-23 13 -21 21 -2 49c12 18 138 194 167 243c13 22 18 22 37 22h20c19 0 25 -3 37 -22c30 -48 153 -225 165 -243c19 -28 21 -36 -2 -49l-26 -14c-20 -11 -28 -3 -43 23c-12 21 -100 153 -142 217c-41 -64 -129 -196 -141 -217c-15 -26 -24 -34 -44 -23z
" />
    <glyph glyph-name="underscore" unicode="_" horiz-adv-x="500" 
d="M33 -28c0 0 377 -3 440 2c24 2 27 -4 27 -28v-14c0 -19 -6 -24 -31 -24c-43 0 -442 -1 -442 -1c-20 0 -27 7 -27 31v10c0 22 9 24 33 24z" />
    <glyph glyph-name="a" unicode="a" horiz-adv-x="574" 
d="M51 157c0 105 78 169 197 169c67 0 132 -19 148 -26v58c0 74 -53 108 -124 108c-86 0 -154 -42 -154 -42s-50 54 -8 94c27 24 88 42 174 42c136 0 212 -80 212 -202c0 -85 -2 -246 1 -302c2 -35 20 -66 -52 -66c-46 0 -57 37 -50 90h-5s-59 -90 -170 -90
c-112 0 -169 77 -169 167zM159 161c0 -54 38 -85 93 -85c70 0 127 47 142 88v69c-13 5 -61 17 -116 17c-68 0 -119 -32 -119 -89z" />
    <glyph glyph-name="b" unicode="b" horiz-adv-x="609" 
d="M81 180c0 83 0 455 -1 475c-2 39 -2 55 48 55c52 0 65 -26 63 -58c-1 -14 -3 -69 -4 -168h9c24 35 71 76 156 76c135 0 207 -102 207 -276c0 -178 -111 -294 -268 -294c-169 0 -210 88 -210 190zM188 164c2 -42 28 -88 100 -88c99 0 162 71 162 208
c0 129 -47 189 -124 189c-82 0 -127 -70 -140 -110c0 -67 0 -153 2 -199z" />
    <glyph glyph-name="c" unicode="c" horiz-adv-x="544" 
d="M50 276c0 160 100 284 258 284c135 0 174 -63 174 -116s-43 -76 -85 -57c0 0 2 9 2 17c0 28 -21 69 -86 69c-97 0 -155 -75 -155 -196c0 -125 51 -201 154 -201c83 0 141 45 141 45s29 -14 29 -52s-67 -79 -174 -79c-168 0 -258 102 -258 286z" />
    <glyph glyph-name="d" unicode="d" horiz-adv-x="612" 
d="M258 -10c-119 0 -208 112 -208 302c0 162 93 268 207 268c99 0 151 -77 161 -106h7c-1 75 -4 176 -5 199c-2 39 1 57 46 57c54 0 67 -27 66 -59c-2 -29 -10 -446 -3 -595c1 -21 11 -52 -12 -61c-8 -3 -27 -5 -41 -5c-48 0 -55 42 -46 90h-6s-46 -90 -166 -90zM289 76
c72 0 136 65 136 169v88c-6 25 -51 140 -146 140c-64 0 -121 -49 -121 -180c0 -138 55 -217 131 -217z" />
    <glyph glyph-name="e" unicode="e" horiz-adv-x="569" 
d="M50 278c0 160 92 282 250 282c139 0 215 -97 215 -201c0 -87 -21 -101 -54 -101h-306l-2 -3c0 -90 50 -179 157 -179c86 0 148 49 154 53c0 0 17 -9 25 -30c10 -26 4 -48 -14 -61c-16 -12 -78 -48 -165 -48c-184 0 -260 124 -260 288zM156 330h254s2 15 2 29
c0 74 -35 114 -114 114c-108 0 -140 -90 -142 -143z" />
    <glyph glyph-name="f" unicode="f" horiz-adv-x="401" 
d="M123 59c1 20 0 317 0 367c-1 0 -42 1 -59 0c-16 -1 -21 5 -21 19v30c0 12 7 21 18 23l63 13v49c0 73 41 150 160 150c46 0 73 -7 92 -11c0 0 15 -79 -38 -79c-18 0 -35 3 -53 3c-26 0 -59 -14 -59 -63v-49s69 -2 106 0c19 1 24 -5 23 -17l-3 -50c-1 -15 -6 -20 -18 -20
h-106c-2 -85 2 -334 2 -359c0 -28 10 -65 -33 -65h-37c-37 0 -38 33 -37 59z" />
    <glyph glyph-name="g" unicode="g" horiz-adv-x="622" 
d="M70 -36c0 76 93 90 93 90v5s-50 9 -50 67c0 77 91 88 91 88v5s-141 16 -141 146c0 95 63 195 247 195h240s33 -86 -41 -86c-34 0 -62 2 -86 7l-1 -5c27 -11 100 -30 100 -120c0 -110 -104 -168 -243 -168c-52 0 -73 -14 -73 -37s20 -34 64 -34c15 0 87 3 113 3
c112 0 176 -40 176 -117c0 -90 -77 -163 -252 -163c-147 0 -237 42 -237 124zM284 269c102 0 137 52 137 104s-38 101 -112 101c-126 0 -144 -61 -144 -109c0 -61 47 -96 119 -96zM169 -7c0 -37 26 -70 138 -70s145 34 145 70c0 20 -13 46 -67 46c-35 0 -93 -3 -118 -3
c-35 0 -60 4 -69 7c-5 -4 -29 -25 -29 -50z" />
    <glyph glyph-name="h" unicode="h" horiz-adv-x="643" 
d="M85 60c1 19 2 49 2 85c2 126 2 442 2 511c0 26 -10 54 46 54c49 0 67 -20 65 -59c-3 -51 -4 -123 -5 -197h10c8 21 54 106 175 106c137 0 190 -99 190 -220c0 -81 -6 -167 -6 -296c0 -28 6 -54 -47 -54c-56 0 -64 25 -64 52c0 94 3 193 3 299c0 73 -32 132 -101 132
c-94 0 -146 -99 -161 -136c-1 -88 0 -167 0 -203c0 -33 0 -58 1 -67c3 -39 2 -67 -33 -67h-41c-37 0 -37 34 -36 60z" />
    <glyph glyph-name="i" unicode="i" horiz-adv-x="300" 
d="M154 619c-36 0 -61 6 -63 60c-2 55 25 61 59 61s61 -6 63 -61c1 -54 -26 -60 -59 -60zM93 60c1 19 2 49 2 85c2 126 2 282 2 351c0 26 -10 54 46 54c49 0 66 -10 64 -49c-6 -126 -6 -284 -6 -367c0 -33 0 -58 1 -67c4 -39 3 -67 -32 -67h-41c-37 0 -37 34 -36 60z" />
    <glyph glyph-name="j" unicode="j" horiz-adv-x="314" 
d="M166 619c-36 0 -61 6 -63 60c-2 55 25 61 59 61s61 -6 63 -61c1 -54 -26 -60 -59 -60zM42 -71c17 0 23 -3 41 -3c23 0 33 14 34 63c3 110 -4 381 -5 496c0 28 -10 65 39 65c62 0 69 -20 67 -55c-4 -90 1 -377 1 -506c0 -73 -19 -150 -135 -150c-45 0 -67 7 -82 11
c0 0 -12 79 40 79z" />
    <glyph glyph-name="k" unicode="k" horiz-adv-x="631" 
d="M84 60c2 66 4 577 4 596c0 37 -3 54 47 54c56 0 64 -28 64 -60c0 -27 -3 -149 -6 -195h9c19 52 85 105 178 105c108 0 186 -68 186 -169c0 -126 -132 -161 -132 -161c14 -32 80 -124 118 -177c11 -16 23 -27 23 -27s-10 -36 -64 -36c-36 0 -57 13 -74 36
c-30 40 -89 171 -124 229l9 16c74 6 138 43 138 114c0 51 -43 92 -103 92c-103 0 -164 -122 -164 -228c0 -41 -2 -120 1 -182c1 -28 15 -67 -33 -67h-40c-37 0 -38 34 -37 60z" />
    <glyph glyph-name="l" unicode="l" horiz-adv-x="324" 
d="M84 104c0 69 8 510 5 552c-3 40 1 54 47 54c58 0 64 -27 62 -59c-3 -59 -14 -410 -11 -538c1 -39 14 -36 52 -34c14 1 22 -5 23 -16l2 -31c1 -15 -2 -22 -16 -28c-19 -8 -54 -14 -77 -14c-60 0 -87 40 -87 114z" />
    <glyph glyph-name="m" unicode="m" horiz-adv-x="952" 
d="M80 60c1 19 2 49 2 85c0 126 2 326 2 361c0 26 -15 54 46 54c56 0 64 -38 64 -70c0 -5 -1 -16 -1 -36h6c6 22 36 106 156 106c96 0 144 -43 167 -106h6c7 22 45 106 163 106c143 0 188 -99 188 -220c0 -81 -6 -164 -6 -293c0 -28 8 -57 -47 -57c-56 0 -64 28 -64 55
c0 94 3 190 3 296c0 73 -26 132 -95 132c-66 0 -109 -48 -132 -90c1 -14 2 -28 2 -43c0 -81 -6 -167 -6 -296c0 -28 -6 -44 -35 -44h-39c-36 0 -38 23 -38 42c0 94 7 193 7 299c0 73 -24 132 -93 132c-86 0 -127 -83 -144 -125c-1 -73 -3 -158 -3 -214c0 -33 0 -58 1 -67
c3 -39 2 -67 -33 -67h-41c-37 0 -37 34 -36 60z" />
    <glyph glyph-name="n" unicode="n" horiz-adv-x="638" 
d="M80 60c1 19 2 49 2 85c2 126 2 326 2 361c0 26 -15 54 46 54c56 0 64 -38 64 -70c0 -5 -1 -16 -1 -36h7c8 21 52 106 171 106c141 0 194 -99 194 -220c0 -81 -6 -167 -6 -296c0 -28 6 -54 -47 -54c-56 0 -64 25 -64 52c0 94 6 193 6 299c0 73 -35 132 -104 132
c-91 0 -142 -92 -159 -132c-1 -71 -2 -153 -2 -207c0 -33 0 -58 1 -67c3 -39 2 -67 -33 -67h-41c-37 0 -37 34 -36 60z" />
    <glyph glyph-name="o" unicode="o" horiz-adv-x="601" 
d="M51 278c2 157 83 282 248 282c166 0 253 -124 251 -282c-2 -164 -85 -289 -250 -289c-166 0 -251 124 -249 289zM299 76c115 0 143 96 143 202c0 105 -35 195 -142 195c-115 0 -141 -91 -141 -195c0 -106 26 -202 140 -202z" />
    <glyph glyph-name="p" unicode="p" horiz-adv-x="612" 
d="M80 -107c2 29 10 452 3 601c-1 21 -11 52 12 61c8 3 27 5 41 5c48 0 55 -42 46 -90h6s46 90 166 90c119 0 208 -112 208 -302c0 -162 -93 -268 -207 -268c-99 0 -151 75 -161 104h-7c1 -75 4 -175 5 -198c2 -39 -10 -46 -41 -46h-33c-31 0 -39 16 -38 43zM187 217
c6 -25 51 -140 146 -140c64 0 121 49 121 180c0 138 -55 217 -131 217c-72 0 -136 -65 -136 -181v-76z" />
    <glyph glyph-name="q" unicode="q" horiz-adv-x="604" 
d="M257 -10c-136 0 -207 101 -207 267c0 188 114 303 273 303c155 0 200 -78 200 -173c0 -90 0 -462 1 -482c2 -39 -5 -53 -29 -57c-16 -3 -44 -8 -56 -8c-26 0 -26 16 -26 58c0 14 2 75 4 174h-10c-17 -28 -66 -82 -150 -82zM278 77c88 0 126 66 140 106c0 67 0 167 -2 213
c-2 42 -39 77 -99 77c-94 0 -158 -73 -158 -215c0 -121 46 -181 119 -181z" />
    <glyph glyph-name="r" unicode="r" horiz-adv-x="476" 
d="M79 60c0 13 1 38 1 69c0 93 1 245 1 321v46c0 33 -8 64 45 64c51 0 59 -27 59 -106h7c23 74 85 106 140 106c90 0 114 -60 114 -126c0 -54 -17 -70 -68 -70c-42 0 -34 12 -34 49c0 29 -8 60 -47 60c-61 0 -103 -102 -109 -159c-3 -81 -3 -161 0 -247
c1 -28 14 -67 -34 -67h-38c-37 0 -37 34 -37 60z" />
    <glyph glyph-name="s" unicode="s" horiz-adv-x="532" 
d="M67 63c-2 30 15 57 22 61c0 0 61 -48 153 -48c60 0 123 18 123 75c0 39 -39 59 -89 75l-83 27c-94 31 -133 70 -133 150c0 94 76 157 208 157c136 0 171 -41 175 -61c6 -26 -12 -57 -25 -69c0 0 -58 43 -149 43c-37 0 -104 -8 -104 -69c0 -32 22 -50 67 -64l84 -26
c101 -32 152 -69 152 -154c0 -99 -76 -170 -226 -170c-130 0 -173 40 -175 73z" />
    <glyph glyph-name="t" unicode="t" horiz-adv-x="448" 
d="M115 146c1 65 5 290 5 315h-59c-19 0 -24 4 -24 20c0 10 -1 23 -1 36c0 7 4 19 20 19c84 0 99 63 101 97c1 15 5 25 26 25s52 4 50 -28c-1 -25 -2 -57 -2 -80c20 -2 103 -2 147 0c18 1 24 -8 24 -19v-49c0 -10 -3 -19 -21 -19c-46 2 -153 0 -153 0
c-4 -81 -4 -216 -4 -310c0 -59 15 -72 56 -72c28 0 53 10 71 16c21 8 31 -2 33 -13l6 -34c3 -17 1 -27 -15 -35c-29 -15 -78 -25 -118 -25c-101 0 -144 46 -142 156z" />
    <glyph glyph-name="u" unicode="u" horiz-adv-x="628" 
d="M73 210c0 81 6 167 6 296c0 28 -6 54 47 54c56 0 64 -25 64 -52c0 -94 -6 -193 -6 -299c0 -73 30 -132 99 -132c89 0 137 88 154 129c1 72 2 155 2 210c0 33 0 58 -1 67c-3 39 -2 67 33 67h41c37 0 37 -34 36 -60c-1 -19 -2 -49 -2 -85c-2 -126 -2 -326 -2 -361
c0 -26 15 -54 -46 -54c-56 0 -64 38 -64 70c0 5 1 15 1 36h-7c-7 -22 -51 -106 -166 -106c-141 0 -189 99 -189 220z" />
    <glyph glyph-name="v" unicode="v" horiz-adv-x="571" 
d="M198 48c-52 131 -147 406 -163 451c-8 23 -14 51 20 51h37c34 0 36 -14 45 -38c15 -42 120 -349 143 -436h7c24 87 126 389 142 435c8 22 13 39 43 39h50c25 0 23 -28 16 -49c-20 -57 -118 -325 -167 -446c-9 -22 -19 -55 -60 -55h-56c-36 0 -50 30 -57 48z" />
    <glyph glyph-name="w" unicode="w" horiz-adv-x="912" 
d="M163 49l-135 449c-7 24 -14 52 21 52h35c35 0 44 -27 48 -39c15 -48 106 -384 119 -435h5c15 53 102 394 113 434c7 24 15 40 48 40h73c31 0 42 -28 46 -40l111 -433h5c16 53 100 361 120 433c6 23 12 40 45 40h45c26 0 24 -30 17 -50c-24 -71 -120 -384 -139 -444
c-7 -23 -19 -56 -62 -56h-57c-23 0 -47 9 -54 36c-11 46 -95 349 -113 436h-6c-18 -88 -100 -390 -114 -437c-7 -27 -29 -35 -52 -35h-59c-39 0 -55 30 -60 49z" />
    <glyph glyph-name="x" unicode="x" horiz-adv-x="571" 
d="M46 36c7 16 134 174 177 240c-43 68 -127 165 -172 231c-11 17 -12 43 15 43h49c27 0 38 -16 45 -29c15 -28 101 -145 123 -182h5c33 53 89 127 124 183c7 11 17 28 42 28h51c27 0 28 -25 16 -43c-10 -15 -116 -160 -162 -231c47 -75 159 -228 166 -239s3 -37 -20 -37
h-53c-23 0 -33 10 -40 23c-21 38 -100 145 -124 187h-5c-24 -43 -102 -146 -124 -188c-6 -11 -16 -22 -42 -22h-50c-19 0 -29 19 -21 36z" />
    <glyph glyph-name="y" unicode="y" horiz-adv-x="552" 
d="M59 -70c4 16 16 19 32 12c24 -11 48 -16 78 -16c53 0 78 35 103 123h-29c-29 0 -39 8 -48 33c-22 59 -151 376 -167 417c-9 23 -15 51 22 51h32c38 0 42 -15 51 -38c14 -38 122 -320 151 -406h6l116 405c6 23 12 39 48 39h43c30 0 29 -22 22 -49
c-17 -63 -110 -351 -143 -460c-36 -119 -87 -201 -199 -201c-44 0 -87 8 -109 19c-19 9 -22 16 -17 37z" />
    <glyph glyph-name="z" unicode="z" horiz-adv-x="492" 
d="M42 37v40c17 23 253 347 274 383c-16 2 -229 -2 -242 -2c-14 0 -25 4 -25 29v38c0 17 13 25 27 25h327c29 0 37 -13 38 -40v-31c-17 -21 -241 -330 -277 -385c41 0 230 2 236 3c13 2 32 -1 32 -36v-25c0 -39 -19 -36 -37 -36h-323c-18 0 -30 10 -30 37z" />
    <glyph glyph-name="bar" unicode="|" horiz-adv-x="270" 
d="M95 -99c2 67 1 756 1 783c0 30 9 36 30 36h16c21 0 34 -6 34 -36c0 -40 -6 -721 -4 -783c1 -24 -7 -31 -26 -31h-29c-19 0 -23 9 -22 31z" />
    <glyph glyph-name="asciitilde" unicode="~" horiz-adv-x="455" 
d="M56 260l-19 14c-17 12 -21 20 -10 40c20 36 66 99 125 99c80 0 119 -83 157 -83c31 0 41 27 50 39c11 13 29 15 43 1l27 -27c15 -15 15 -21 2 -42c-15 -24 -57 -69 -122 -69c-76 0 -114 80 -156 80c-26 0 -44 -36 -55 -54s-25 -11 -42 2z" />
    <glyph glyph-name="uniFB01" unicode="&#xfb01;" horiz-adv-x="700" 
d="M554 619c-36 0 -61 6 -63 60c-2 55 25 61 59 61s61 -6 63 -61c1 -54 -26 -60 -59 -60zM123 59c1 20 0 317 0 367c-1 0 -42 1 -59 0c-16 -1 -21 5 -21 19v30c0 12 7 21 18 23l63 13v49c0 73 41 150 160 150c46 0 73 -7 92 -11c0 0 15 -79 -38 -79c-18 0 -35 3 -53 3
c-26 0 -59 -14 -59 -63v-49s69 -2 106 0c19 1 24 -5 23 -17l-3 -50c-1 -15 -6 -20 -18 -20h-106c-2 -85 2 -334 2 -359c0 -28 10 -65 -33 -65h-37c-37 0 -38 33 -37 59zM493 60c1 19 2 49 2 85c2 126 2 282 2 351c0 26 -10 54 46 54c49 0 66 -10 64 -49
c-6 -126 -6 -284 -6 -367c0 -33 0 -58 1 -67c4 -39 3 -67 -32 -67h-41c-37 0 -37 34 -36 60z" />
    <glyph glyph-name="uniFB02" unicode="&#xfb02;" horiz-adv-x="724" 
d="M484 104c0 69 8 510 5 552c-3 40 1 54 47 54c58 0 64 -27 62 -59c-3 -59 -14 -410 -11 -538c1 -39 14 -36 52 -34c14 1 22 -5 23 -16l2 -31c1 -15 -2 -22 -16 -28c-19 -8 -54 -14 -77 -14c-60 0 -87 40 -87 114zM123 59c1 20 0 317 0 367c-1 0 -42 1 -59 0
c-16 -1 -21 5 -21 19v30c0 12 7 21 18 23l63 13v49c0 73 41 150 160 150c46 0 73 -7 92 -11c0 0 15 -79 -38 -79c-18 0 -35 3 -53 3c-26 0 -59 -14 -59 -63v-49s69 -2 106 0c19 1 24 -5 23 -17l-3 -50c-1 -15 -6 -20 -18 -20h-106c-2 -85 2 -334 2 -359
c0 -28 10 -65 -33 -65h-37c-37 0 -38 33 -37 59z" />
    <glyph glyph-name="perthousand" unicode="&#x2030;" horiz-adv-x="1300" 
d="M237 326c-121 0 -173 77 -173 182c0 102 59 182 173 182s171 -79 171 -182c0 -104 -63 -182 -171 -182zM258 41c53 101 259 529 295 605c8 17 14 34 38 34h29c20 0 27 -12 13 -40c-34 -66 -250 -504 -294 -608c-12 -29 -24 -32 -44 -32h-22c-30 0 -29 15 -15 41zM237 400
c64 0 78 53 78 109c0 55 -14 107 -78 107c-69 0 -81 -52 -81 -107c0 -56 12 -109 81 -109zM892 172c0 102 59 182 173 182s171 -79 171 -182c0 -104 -63 -182 -171 -182c-121 0 -173 77 -173 182zM493 172c0 102 59 182 173 182s171 -79 171 -182c0 -104 -63 -182 -171 -182
c-121 0 -173 77 -173 182zM984 173c0 -56 12 -109 81 -109c64 0 78 53 78 109c0 55 -14 107 -78 107c-69 0 -81 -52 -81 -107zM585 173c0 -56 12 -109 81 -109c64 0 78 53 78 109c0 55 -14 107 -78 107c-69 0 -81 -52 -81 -107z" />
    <glyph glyph-name="AE" unicode="&#xc6;" horiz-adv-x="891" 
d="M49 0c-26 0 -20 35 -9 60c32 69 233 474 281 570c13 28 30 50 76 50l389 -1c27 0 34 -16 34 -37v-28c0 -23 -13 -33 -35 -32c-14 0 -232 1 -278 1l-3 -202c40 0 231 1 241 1c14 1 28 -9 28 -29v-30c1 -21 -8 -29 -26 -28c-12 1 -204 1 -245 1c0 -25 1 -175 1 -200l284 1
c23 1 33 -10 33 -33v-28c0 -26 -2 -36 -33 -36h-351c-37 0 -37 25 -37 51v113h-200s-34 -72 -52 -117c-10 -27 -11 -47 -44 -47h-54zM238 244h163c3 104 9 316 9 356h-7c-27 -50 -128 -264 -165 -356z" />
    <glyph glyph-name="ordfeminine" unicode="&#xaa;" horiz-adv-x="383" 
d="M146 376c-61 0 -96 41 -98 91c-1 60 48 95 117 94c34 0 70 -9 80 -12v26c0 34 -27 49 -66 49c-44 0 -85 -21 -85 -21c2 -1 -35 36 -5 64c15 14 49 23 100 23c83 0 128 -45 129 -111c1 -45 -1 -126 1 -157c1 -22 17 -46 -38 -46c-31 0 -43 17 -38 52h-3s-27 -52 -94 -52z
M173 436c36 0 65 24 70 45v23c-7 3 -30 6 -53 6c-34 0 -62 -14 -61 -39c0 -24 20 -35 44 -35z" />
    <glyph glyph-name="Lslash" unicode="&#x141;" horiz-adv-x="577" 
d="M106 60c0 13 1 43 1 81v100l-20 -11c-25 -14 -27 -12 -41 9l-15 23c-16 24 -3 27 21 41l54 32c0 83 -1 165 -1 219c0 32 -1 60 -2 93c0 20 3 33 27 33h46c37 0 36 -33 36 -59c0 -5 -1 -25 -1 -54c-1 -41 -1 -108 -1 -172l94 55c25 15 33 17 47 -7l13 -23
c10 -17 8 -27 -16 -41l-138 -79c0 -84 1 -161 2 -203c80 0 253 0 281 3c23 3 33 -12 33 -35v-33c0 -22 -4 -32 -32 -32h-350c-37 0 -38 34 -38 60z" />
    <glyph glyph-name="Oslash" unicode="&#xd8;" horiz-adv-x="726" 
d="M100 32l38 54c-52 63 -77 151 -77 254c0 197 97 350 304 350c61 0 114 -15 157 -43l28 43c10 17 21 25 42 14l19 -10c18 -9 22 -18 8 -40c-6 -10 -22 -31 -39 -57c55 -63 84 -154 85 -257c0 -199 -107 -350 -301 -350c-68 0 -124 16 -168 45c-2 -3 -3 -2 -3 -1
c-9 -15 -18 -30 -22 -38c-15 -29 -26 -26 -39 -18l-22 12c-20 11 -27 17 -10 42zM364 81c139 0 190 126 190 260c0 138 -50 258 -190 258c-143 0 -193 -120 -193 -258c0 -136 49 -260 193 -260z" />
    <glyph glyph-name="OE" unicode="&#x152;" horiz-adv-x="940" 
d="M61 340c0 196 93 350 287 350c54 0 96 -10 106 -10h382c28 0 32 -14 32 -36v-29c0 -23 -12 -33 -35 -32c-13 0 -230 1 -277 1l1 -202h238c14 1 27 -7 27 -27v-34c0 -21 -7 -26 -25 -25c-12 1 -200 1 -241 1c0 -28 3 -177 3 -200c52 1 263 1 277 2c23 1 33 -10 33 -33v-39
c0 -22 -5 -27 -33 -27h-368c-15 0 -44 -10 -113 -10c-204 0 -294 152 -294 350zM354 81c62 0 93 14 93 14c3 200 -2 490 -2 490s-32 14 -96 14c-121 0 -178 -107 -178 -256c0 -156 54 -262 183 -262z" />
    <glyph glyph-name="ordmasculine" unicode="&#xba;" horiz-adv-x="413" 
d="M205 376c-101 0 -153 68 -152 159c1 87 51 155 152 155s155 -68 154 -156c-2 -89 -53 -158 -154 -158zM205 436c62 0 73 48 73 99c0 50 -14 94 -73 94c-62 0 -72 -44 -72 -94c0 -51 10 -99 72 -99z" />
    <glyph glyph-name="ae" unicode="&#xe6;" horiz-adv-x="908" 
d="M51 157c0 105 77 169 193 169c65 0 127 -19 143 -26c1 9 3 40 3 58c0 82 -53 108 -120 108c-83 0 -147 -42 -147 -42s-50 54 -8 94c26 24 83 42 167 42c81 0 145 -30 184 -81c39 50 94 81 173 81c139 0 215 -97 215 -201c0 -87 -21 -101 -54 -101c-81 0 -306 -2 -306 -2
l-2 -3c0 -90 50 -177 157 -177c86 0 148 49 154 53c0 0 17 -9 25 -30c10 -26 4 -48 -14 -61c-16 -12 -78 -48 -165 -48c-106 0 -176 40 -216 106h-6s-65 -106 -211 -106c-109 0 -165 77 -165 167zM495 330h254s2 15 2 29c0 74 -35 114 -114 114c-108 0 -140 -90 -142 -143z
M159 161c0 -54 37 -85 90 -85c68 0 123 47 137 88v69c-13 5 -59 17 -112 17c-65 0 -115 -32 -115 -89z" />
    <glyph glyph-name="dotlessi" unicode="&#x131;" horiz-adv-x="300" 
d="M93 60c1 19 2 49 2 85c2 126 2 282 2 351c0 26 -10 54 46 54c49 0 66 -10 64 -49c-6 -126 -6 -284 -6 -367c0 -33 0 -58 1 -67c4 -39 3 -67 -32 -67h-41c-37 0 -37 34 -36 60z" />
    <glyph glyph-name="lslash" unicode="&#x142;" horiz-adv-x="361" 
d="M105 104c0 21 0 78 1 147l-37 -21c-25 -14 -27 -12 -41 9l-15 23c-16 24 -3 27 21 41l74 43c2 138 3 286 2 310c-3 40 1 54 47 54c58 0 64 -27 62 -59c-2 -30 -5 -133 -8 -245l75 44c25 15 33 17 47 -7l13 -23c10 -17 8 -27 -16 -41l-121 -69c-2 -79 -2 -152 -1 -197
c1 -39 14 -36 52 -34c14 1 22 -5 23 -16l2 -31c1 -15 -2 -22 -16 -28c-19 -8 -54 -14 -77 -14c-60 0 -87 40 -87 114z" />
    <glyph glyph-name="oslash" unicode="&#xf8;" horiz-adv-x="601" 
d="M85 32l27 40c-42 51 -62 124 -61 206c2 157 83 282 248 282c38 0 72 -7 101 -19c9 15 18 26 22 33c10 17 20 26 41 15l19 -10c18 -9 25 -18 10 -40l-27 -38c57 -51 86 -131 85 -223c-2 -164 -85 -289 -250 -289c-51 0 -94 11 -130 32l-14 -25c-16 -29 -26 -26 -39 -18
l-22 12c-20 11 -27 17 -10 42zM299 76c115 0 143 96 143 202c0 105 -35 195 -142 195c-115 0 -141 -91 -141 -195c0 -106 26 -202 140 -202z" />
    <glyph glyph-name="oe" unicode="&#x153;" horiz-adv-x="995" 
d="M51 278c2 157 83 282 248 282c103 0 175 -48 215 -122c41 74 113 122 212 122c139 0 215 -97 215 -201c0 -87 -21 -101 -54 -101h-306l-2 -3c0 -90 50 -179 157 -179c86 0 148 49 154 53c0 0 17 -9 25 -30c10 -26 4 -48 -14 -61c-16 -12 -78 -48 -165 -48
c-113 0 -185 47 -224 121c-40 -75 -110 -122 -212 -122c-166 0 -251 124 -249 289zM582 330h254s2 15 2 29c0 74 -35 114 -114 114c-108 0 -140 -90 -142 -143zM299 76c115 0 143 96 143 202c0 105 -35 195 -142 195c-115 0 -141 -91 -141 -195c0 -106 26 -202 140 -202z
" />
    <glyph glyph-name="germandbls" unicode="&#xdf;" horiz-adv-x="608" 
d="M85 62c2 59 3 287 3 371c0 180 98 277 231 277c114 0 204 -74 204 -176c0 -80 -67 -144 -67 -178c0 -39 109 -81 109 -204c0 -104 -84 -162 -192 -162c-70 0 -111 14 -112 49c-1 31 15 50 22 56c0 0 35 -19 90 -19c54 0 84 35 84 76c0 81 -108 124 -108 189
c0 52 66 132 66 193c0 51 -43 89 -105 89c-64 0 -119 -55 -119 -193c0 -81 3 -310 4 -369c1 -46 -2 -61 -44 -61h-25c-38 0 -43 14 -41 62z" />
    <glyph glyph-name="uni00B9" unicode="&#xb9;" horiz-adv-x="241" 
d="M138 443c-9 0 -14 2 -18 6c-8 7 -8 20 -7 31c5 57 5 114 6 178l-61 -19c-15 -6 -19 6 -21 8l-9 16c-6 11 -9 21 4 27l109 45h29c26 0 26 -23 25 -39c-5 -76 0 -152 0 -230c0 -12 -4 -23 -27 -23h-30z" />
    <glyph glyph-name="logicalnot" unicode="&#xac;" horiz-adv-x="600" 
d="M128 304c-31 0 -34 3 -34 31v25c0 28 11 27 39 26c53 -2 316 0 336 1c23 0 36 -6 36 -31v-171c1 -34 -2 -41 -27 -42l-35 -1c-23 0 -24 13 -24 43v121c-42 0 -254 -2 -291 -2z" />
    <glyph glyph-name="mu" unicode="&#xb5;" horiz-adv-x="628" 
d="M83 -88c0 192 -4 383 -4 594c0 28 -6 54 47 54c56 0 64 -25 64 -52c0 -94 -6 -193 -6 -299c0 -73 30 -132 99 -132c89 0 137 88 154 129c1 72 2 155 2 210c0 33 0 58 -1 67c-3 39 -2 67 33 67h41c37 0 37 -34 36 -60c-1 -19 -2 -49 -2 -85c-2 -126 -2 -326 -2 -361
c0 -26 15 -54 -46 -54c-56 0 -64 38 -64 70c0 5 1 15 1 36h-7c-7 -22 -43 -106 -167 -106c-35 0 -61 9 -71 15l3 -93c1 -39 3 -63 -32 -63h-41c-27 0 -37 14 -37 63z" />
    <glyph glyph-name="mu" unicode="&#x3bc;" horiz-adv-x="628" 
d="M83 -88c0 192 -4 383 -4 594c0 28 -6 54 47 54c56 0 64 -25 64 -52c0 -94 -6 -193 -6 -299c0 -73 30 -132 99 -132c89 0 137 88 154 129c1 72 2 155 2 210c0 33 0 58 -1 67c-3 39 -2 67 33 67h41c37 0 37 -34 36 -60c-1 -19 -2 -49 -2 -85c-2 -126 -2 -326 -2 -361
c0 -26 15 -54 -46 -54c-56 0 -64 38 -64 70c0 5 1 15 1 36h-7c-7 -22 -43 -106 -167 -106c-35 0 -61 9 -71 15l3 -93c1 -39 3 -63 -32 -63h-41c-27 0 -37 14 -37 63z" />
    <glyph glyph-name="plusminus" unicode="&#xb1;" 
d="M284 264c-22 0 -25 11 -24 37v110c-65 -1 -120 -1 -136 -1c-26 0 -27 2 -27 25v35c0 24 10 23 33 22c17 -1 69 -1 130 -1v144c0 28 3 35 25 35h34c20 0 27 -10 26 -36c-1 -13 -1 -69 -1 -143c70 0 128 1 136 1c25 1 32 -3 32 -26v-34c0 -21 -9 -23 -32 -22
c-11 1 -68 1 -136 1v-115c1 -28 -4 -32 -25 -32h-35zM99 122v28c0 26 10 25 36 24c48 -2 322 0 341 1c28 1 35 -3 35 -28v-29c0 -23 -11 -24 -36 -23c-28 1 -300 -1 -345 -1c-28 0 -31 2 -31 28z" />
    <glyph glyph-name="Thorn" unicode="&#xde;" horiz-adv-x="625" 
d="M94 60c2 66 0 533 0 553c0 28 -14 67 35 67h29c39 0 41 -22 41 -63v-28h125c159 0 250 -102 249 -233c-1 -129 -86 -237 -242 -237h-127c0 -10 1 -44 2 -52c2 -28 14 -67 -35 -67h-40c-37 0 -38 34 -37 60zM203 200h121c94 0 138 59 139 149c1 89 -39 159 -138 159h-123
c-4 -47 2 -258 1 -308z" />
    <glyph glyph-name="divide" unicode="&#xf7;" 
d="M311 490c-40 0 -76 9 -74 78c-2 70 30 79 73 79c38 0 74 -9 74 -79c0 -69 -32 -78 -73 -78zM132 300c-31 -1 -33 2 -34 30v25c-2 29 11 28 39 26c52 -3 317 0 337 1c31 1 38 -2 38 -31v-25c0 -25 -11 -27 -39 -26c-30 2 -293 0 -341 0zM237 110c-2 70 30 79 73 79
c38 0 74 -9 74 -79c0 -69 -32 -78 -73 -78c-40 0 -76 9 -74 78z" />
    <glyph glyph-name="brokenbar" unicode="&#xa6;" horiz-adv-x="291" 
d="M125 399c-14 0 -19 7 -19 21c2 63 0 235 0 246c0 26 7 34 28 34h22c18 0 30 -7 30 -35c0 -14 0 -187 -1 -245c0 -15 -6 -21 -19 -21h-41zM106 -117c0 25 0 218 -1 281c0 14 6 21 19 21h41c14 0 19 -7 19 -22c0 -65 -1 -257 0 -281c1 -21 -7 -32 -28 -32h-27
c-19 0 -23 15 -23 33z" />
    <glyph glyph-name="degree" unicode="&#xb0;" horiz-adv-x="472" 
d="M237 326c-121 0 -173 77 -173 182c0 102 59 182 173 182s171 -79 171 -182c0 -104 -63 -182 -171 -182zM237 400c64 0 78 53 78 109c0 55 -14 107 -78 107c-69 0 -81 -52 -81 -107c0 -56 12 -109 81 -109z" />
    <glyph glyph-name="thorn" unicode="&#xfe;" horiz-adv-x="620" 
d="M80 -107c2 29 10 602 3 751c-1 21 -11 52 12 61c8 3 29 5 43 5c37 0 53 -25 53 -58c0 -56 -3 -155 -4 -186h6s41 94 161 94c119 0 208 -112 208 -302c0 -162 -93 -268 -207 -268c-99 0 -151 75 -161 104h-7c1 -75 4 -175 5 -198c2 -39 -10 -46 -41 -46h-33
c-31 0 -39 16 -38 43zM187 217c6 -25 51 -140 146 -140c64 0 121 49 121 180c0 138 -55 217 -131 217c-72 0 -136 -65 -136 -181v-76z" />
    <glyph glyph-name="uni00B2" unicode="&#xb2;" horiz-adv-x="294" 
d="M60 443c-18 0 -27 6 -27 21c0 12 -1 25 -1 37c12 10 28 21 44 32c48 34 103 74 103 121c0 15 -11 25 -34 25c-48 0 -90 -21 -90 -21s-5 5 -10 15c-18 38 3 46 14 52c23 13 56 15 86 15c63 0 111 -28 112 -83c2 -50 -46 -84 -90 -122l-29 -25v-4c31 0 62 1 94 3
c17 2 25 -7 24 -21v-28c0 -14 -4 -17 -26 -17h-170z" />
    <glyph glyph-name="minus" unicode="&#x2212;" 
d="M153 300c-29 -1 -31 3 -31 29l-1 27c0 28 11 26 38 25c49 -2 272 0 292 1c29 1 36 -2 37 -29v-27c0 -25 -11 -27 -37 -25c-28 2 -251 -1 -298 -1z" />
    <glyph glyph-name="eth" unicode="&#xf0;" 
d="M54 220c0 136 107 207 221 207c113 0 168 -70 168 -70h8c0 56 -26 148 -90 201c-8 -16 -17 -31 -27 -51c-14 -26 -18 -24 -40 -13l-22 11c-25 13 -15 22 -2 46l23 42c-14 4 -30 6 -46 6c-87 0 -141 -36 -141 -36s-14 10 -23 30c-9 19 -18 48 10 65c21 13 72 32 147 32
c36 0 68 -6 98 -16l20 36c14 25 20 30 44 17l23 -13c22 -13 18 -23 3 -44c-1 -2 -7 -8 -21 -32c96 -71 142 -203 142 -337c0 -198 -98 -311 -256 -311c-137 0 -239 102 -239 230zM161 220c0 -76 43 -139 132 -139c76 0 143 45 143 139c0 58 -33 134 -135 133
c-75 -1 -140 -46 -140 -133z" />
    <glyph glyph-name="multiply" unicode="&#xd7;" 
d="M144 147l-17 18c-16 16 -15 32 6 51c8 7 98 97 115 115l-114 117c-22 23 -25 31 -7 51l16 16c17 18 31 16 49 -6l111 -120c17 17 107 109 117 120c21 24 29 22 47 3l16 -17c18 -19 12 -31 -9 -51c-10 -10 -99 -96 -113 -112l116 -121c22 -22 21 -30 4 -49l-16 -17
c-19 -20 -30 -14 -49 9l-111 119l-114 -119c-22 -22 -29 -25 -47 -7z" />
    <glyph glyph-name="uni00B3" unicode="&#xb3;" horiz-adv-x="311" 
d="M58 453c-22 7 -29 19 -21 43c5 14 13 25 13 25s46 -24 101 -24c36 0 53 15 53 36c0 27 -35 30 -58 31h-38c-10 0 -11 6 -11 13v31c0 6 2 11 9 11h37c31 0 48 14 48 33c0 17 -9 29 -43 29c-52 0 -90 -21 -90 -21s-6 6 -11 15c-15 29 0 41 9 46c7 4 44 19 94 19
c85 0 116 -32 116 -84c0 -46 -46 -61 -46 -61v-3s59 -2 59 -65c0 -50 -52 -88 -128 -88c-45 0 -85 11 -93 14z" />
    <glyph glyph-name="Aacute" unicode="&#xc1;" horiz-adv-x="672" 
d="M218 743l-9 17c-9 17 -8 29 7 37c38 19 154 77 196 100c19 11 25 8 32 -8l16 -37c7 -17 7 -27 -9 -34l-201 -85c-20 -10 -24 -5 -32 10zM43 38c21 68 198 561 209 597c8 27 24 45 58 45h61c35 0 52 -19 62 -49c8 -32 183 -547 196 -591c7 -28 -4 -40 -29 -40h-29
c-38 0 -39 25 -45 39c-7 17 -21 67 -45 125h-287c-22 -61 -40 -108 -44 -122c-8 -29 -18 -42 -43 -42h-40c-19 0 -32 13 -24 38zM217 244h240c-48 141 -104 309 -116 355h-6c-13 -47 -69 -215 -118 -355z" />
    <glyph glyph-name="Acircumflex" unicode="&#xc2;" horiz-adv-x="672" 
d="M229 753c-17 -11 -22 -3 -32 10l-13 17c-11 15 -7 27 7 37c38 29 96 66 136 100c8 7 13 7 16 7c7 0 12 -3 17 -7l136 -100c14 -10 18 -22 7 -37l-13 -17c-10 -13 -13 -21 -32 -10l-115 70c-33 -21 -97 -59 -114 -70zM43 38c21 68 198 561 209 597c8 27 24 45 58 45h61
c35 0 52 -19 62 -49c8 -32 183 -547 196 -591c7 -28 -4 -40 -29 -40h-29c-38 0 -39 25 -45 39c-7 17 -21 67 -45 125h-287c-22 -61 -40 -108 -44 -122c-8 -29 -18 -42 -43 -42h-40c-19 0 -32 13 -24 38zM217 244h240c-48 141 -104 309 -116 355h-6
c-13 -47 -69 -215 -118 -355z" />
    <glyph glyph-name="Adieresis" unicode="&#xc4;" horiz-adv-x="672" 
d="M476 734c-36 0 -62 6 -63 60c-2 55 25 61 59 61s61 -6 63 -61c1 -54 -26 -60 -59 -60zM212 734c-36 0 -62 6 -63 60c-2 55 25 61 59 61s61 -6 63 -61c1 -54 -26 -60 -59 -60zM43 38c21 68 198 561 209 597c8 27 24 45 58 45h61c35 0 52 -19 62 -49
c8 -32 183 -547 196 -591c7 -28 -4 -40 -29 -40h-29c-38 0 -39 25 -45 39c-7 17 -21 67 -45 125h-287c-22 -61 -40 -108 -44 -122c-8 -29 -18 -42 -43 -42h-40c-19 0 -32 13 -24 38zM217 244h240c-48 141 -104 309 -116 355h-6c-13 -47 -69 -215 -118 -355z" />
    <glyph glyph-name="Agrave" unicode="&#xc0;" horiz-adv-x="672" 
d="M236 818c-16 7 -16 17 -9 34l16 37c7 16 13 19 32 8c42 -23 158 -81 196 -100c15 -8 16 -20 7 -37l-9 -17c-8 -15 -12 -20 -32 -10zM43 38c21 68 198 561 209 597c8 27 24 45 58 45h61c35 0 52 -19 62 -49c8 -32 183 -547 196 -591c7 -28 -4 -40 -29 -40h-29
c-38 0 -39 25 -45 39c-7 17 -21 67 -45 125h-287c-22 -61 -40 -108 -44 -122c-8 -29 -18 -42 -43 -42h-40c-19 0 -32 13 -24 38zM217 244h240c-48 141 -104 309 -116 355h-6c-13 -47 -69 -215 -118 -355z" />
    <glyph glyph-name="Aring" unicode="&#xc5;" horiz-adv-x="672" 
d="M343 710c-104 0 -148 52 -148 121c0 68 50 122 148 122s147 -53 147 -122s-54 -121 -147 -121zM343 772c55 0 68 31 68 60c0 28 -13 58 -68 58c-59 0 -69 -30 -69 -58c0 -29 10 -60 69 -60zM43 38c21 68 198 561 209 597c8 27 24 45 58 45h61c35 0 52 -19 62 -49
c8 -32 183 -547 196 -591c7 -28 -4 -40 -29 -40h-29c-38 0 -39 25 -45 39c-7 17 -21 67 -45 125h-287c-22 -61 -40 -108 -44 -122c-8 -29 -18 -42 -43 -42h-40c-19 0 -32 13 -24 38zM217 244h240c-48 141 -104 309 -116 355h-6c-13 -47 -69 -215 -118 -355z" />
    <glyph glyph-name="Atilde" unicode="&#xc3;" horiz-adv-x="672" 
d="M209 764l-15 13c-12 11 -16 18 -8 35c16 33 51 79 97 79c61 0 91 -64 120 -64c24 0 32 14 39 25c8 11 22 13 33 1l19 -20c12 -13 12 -18 2 -37c-12 -22 -43 -57 -93 -57c-58 0 -87 62 -120 62c-20 0 -34 -23 -42 -39s-19 -9 -32 2zM43 38c21 68 198 561 209 597
c8 27 24 45 58 45h61c35 0 52 -19 62 -49c8 -32 183 -547 196 -591c7 -28 -4 -40 -29 -40h-29c-38 0 -39 25 -45 39c-7 17 -21 67 -45 125h-287c-22 -61 -40 -108 -44 -122c-8 -29 -18 -42 -43 -42h-40c-19 0 -32 13 -24 38zM217 244h240c-48 141 -104 309 -116 355h-6
c-13 -47 -69 -215 -118 -355z" />
    <glyph glyph-name="Ccedilla" unicode="&#xc7;" horiz-adv-x="642" 
d="M267 -125c0 20 13 31 13 31s17 -9 39 -9c26 0 44 7 44 23c0 17 -31 24 -51 24c-9 0 -9 7 -7 14c2 8 9 25 14 37c-174 25 -258 164 -258 345c0 199 104 350 318 350c106 0 160 -31 180 -44c16 -11 36 -37 6 -76c-13 -17 -24 -22 -24 -22s-53 51 -160 51
c-145 0 -210 -116 -210 -258c0 -145 76 -260 209 -260c65 0 105 21 129 38c12 8 25 15 37 -6l21 -35c8 -13 13 -24 -2 -36c-23 -18 -84 -52 -185 -52c-6 0 -12 1 -18 1c-4 -12 -8 -25 -6 -25c41 -3 70 -17 70 -58c0 -34 -41 -68 -104 -68c-37 0 -55 13 -55 35z" />
    <glyph glyph-name="Eacute" unicode="&#xc9;" horiz-adv-x="603" 
d="M228 733c-20 -10 -24 -5 -32 10l-9 17c-9 17 -8 29 7 37c38 19 154 77 196 100c19 11 25 8 32 -8l16 -37c7 -17 7 -27 -9 -34zM99 60c2 66 -5 533 -5 553c0 28 -13 67 36 67h370c28 0 32 -14 32 -36v-29c0 -23 -10 -32 -34 -32h-293l-2 -201c81 0 231 0 256 1
c14 1 27 -7 27 -27v-36c0 -21 -7 -25 -25 -25c-29 0 -173 1 -257 0l3 -198c80 0 262 1 292 3c23 2 33 -10 33 -33v-40c0 -22 -5 -27 -33 -27h-363c-37 0 -38 34 -37 60z" />
    <glyph glyph-name="Ecircumflex" unicode="&#xca;" horiz-adv-x="603" 
d="M200 753c-17 -11 -22 -3 -32 10l-13 17c-11 15 -7 27 7 37c38 29 96 66 136 100c8 7 13 7 16 7c7 0 12 -3 17 -7l136 -100c14 -10 18 -22 7 -37l-13 -17c-10 -13 -13 -21 -32 -10l-115 70c-33 -21 -97 -59 -114 -70zM99 60c2 66 -5 533 -5 553c0 28 -13 67 36 67h370
c28 0 32 -14 32 -36v-29c0 -23 -10 -32 -34 -32h-293l-2 -201c81 0 231 0 256 1c14 1 27 -7 27 -27v-36c0 -21 -7 -25 -25 -25c-29 0 -173 1 -257 0l3 -198c80 0 262 1 292 3c23 2 33 -10 33 -33v-40c0 -22 -5 -27 -33 -27h-363c-37 0 -38 34 -37 60z" />
    <glyph glyph-name="Edieresis" unicode="&#xcb;" horiz-adv-x="603" 
d="M446 734c-36 0 -62 6 -63 60c-2 55 25 61 59 61s61 -6 63 -61c1 -54 -26 -60 -59 -60zM182 734c-36 0 -62 6 -63 60c-2 55 25 61 59 61s61 -6 63 -61c1 -54 -26 -60 -59 -60zM99 60c2 66 -5 533 -5 553c0 28 -13 67 36 67h370c28 0 32 -14 32 -36v-29
c0 -23 -10 -32 -34 -32h-293l-2 -201c81 0 231 0 256 1c14 1 27 -7 27 -27v-36c0 -21 -7 -25 -25 -25c-29 0 -173 1 -257 0l3 -198c80 0 262 1 292 3c23 2 33 -10 33 -33v-40c0 -22 -5 -27 -33 -27h-363c-37 0 -38 34 -37 60z" />
    <glyph glyph-name="Egrave" unicode="&#xc8;" horiz-adv-x="603" 
d="M396 733l-201 85c-16 7 -16 17 -9 34l16 37c7 16 13 19 32 8c42 -23 158 -81 196 -100c15 -8 16 -20 7 -37l-9 -17c-8 -15 -12 -20 -32 -10zM99 60c2 66 -5 533 -5 553c0 28 -13 67 36 67h370c28 0 32 -14 32 -36v-29c0 -23 -10 -32 -34 -32h-293l-2 -201
c81 0 231 0 256 1c14 1 27 -7 27 -27v-36c0 -21 -7 -25 -25 -25c-29 0 -173 1 -257 0l3 -198c80 0 262 1 292 3c23 2 33 -10 33 -33v-40c0 -22 -5 -27 -33 -27h-363c-37 0 -38 34 -37 60z" />
    <glyph glyph-name="Iacute" unicode="&#xcd;" horiz-adv-x="325" 
d="M68 733c-20 -10 -24 -5 -32 10l-9 17c-9 17 -8 29 7 37c38 19 154 77 196 100c19 11 25 8 32 -8l16 -37c7 -17 7 -27 -9 -34zM109 60c2 66 -5 452 -5 553c0 28 -14 67 35 67h40c37 0 38 -33 37 -59c-4 -105 2 -512 3 -554c2 -28 15 -67 -34 -67h-39c-37 0 -38 34 -37 60z
" />
    <glyph glyph-name="Icircumflex" unicode="&#xce;" horiz-adv-x="325" 
d="M44 753c-17 -11 -22 -3 -32 10l-13 17c-11 15 -7 27 7 37c38 29 96 66 136 100c8 7 13 7 16 7c7 0 12 -3 17 -7l136 -100c14 -10 18 -22 7 -37l-13 -17c-10 -13 -13 -21 -32 -10l-115 70c-33 -21 -97 -59 -114 -70zM109 60c2 66 -5 452 -5 553c0 28 -14 67 35 67h40
c37 0 38 -33 37 -59c-4 -105 2 -512 3 -554c2 -28 15 -67 -34 -67h-39c-37 0 -38 34 -37 60z" />
    <glyph glyph-name="Idieresis" unicode="&#xcf;" horiz-adv-x="325" 
d="M293 734c-36 0 -62 6 -63 60c-2 55 25 61 59 61s61 -6 63 -61c1 -54 -26 -60 -59 -60zM29 734c-36 0 -62 6 -63 60c-2 55 25 61 59 61s61 -6 63 -61c1 -54 -26 -60 -59 -60zM109 60c2 66 -5 452 -5 553c0 28 -14 67 35 67h40c37 0 38 -33 37 -59c-4 -105 2 -512 3 -554
c2 -28 15 -67 -34 -67h-39c-37 0 -38 34 -37 60z" />
    <glyph glyph-name="Igrave" unicode="&#xcc;" horiz-adv-x="325" 
d="M246 733l-201 85c-16 7 -16 17 -9 34l16 37c7 16 13 19 32 8c42 -23 158 -81 196 -100c15 -8 16 -20 7 -37l-9 -17c-8 -15 -12 -20 -32 -10zM109 60c2 66 -5 452 -5 553c0 28 -14 67 35 67h40c37 0 38 -33 37 -59c-4 -105 2 -512 3 -554c2 -28 15 -67 -34 -67h-39
c-37 0 -38 34 -37 60z" />
    <glyph glyph-name="Ntilde" unicode="&#xd1;" horiz-adv-x="745" 
d="M239 764l-15 13c-12 11 -16 18 -8 35c16 33 51 79 97 79c61 0 91 -64 120 -64c24 0 32 14 39 25c8 11 22 13 33 1l19 -20c12 -13 12 -18 2 -37c-12 -22 -43 -57 -93 -57c-58 0 -87 62 -120 62c-20 0 -34 -23 -42 -39s-19 -9 -32 2zM93 60c2 66 0 553 0 573
c0 28 1 47 41 47h52l350 -452h7c-2 45 -4 414 -4 423c-1 14 2 29 37 29h39c36 0 36 -33 36 -59c0 -29 -4 -512 -1 -554c1 -28 14 -67 -35 -67h-38c-33 0 -37 33 -38 55c-1 32 -281 367 -334 445h-9c0 -67 8 -417 9 -433c1 -28 14 -67 -35 -67h-40c-37 0 -38 34 -37 60z" />
    <glyph glyph-name="Oacute" unicode="&#xd3;" horiz-adv-x="726" 
d="M246 743l-9 17c-9 17 -8 29 7 37c38 19 154 77 196 100c19 11 25 8 32 -8l16 -37c7 -17 7 -27 -9 -34l-201 -85c-20 -10 -24 -5 -32 10zM61 340c0 197 97 350 304 350c193 0 299 -152 300 -350c0 -199 -107 -350 -301 -350c-207 0 -303 150 -303 350zM364 81
c139 0 190 126 190 260c0 138 -50 258 -190 258c-143 0 -193 -120 -193 -258c0 -136 49 -260 193 -260z" />
    <glyph glyph-name="Ocircumflex" unicode="&#xd4;" horiz-adv-x="726" 
d="M245 753c-17 -11 -22 -3 -32 10l-13 17c-11 15 -7 27 7 37c38 29 96 66 136 100c8 7 13 7 16 7c7 0 12 -3 17 -7l136 -100c14 -10 18 -22 7 -37l-13 -17c-10 -13 -13 -21 -32 -10l-115 70c-33 -21 -97 -59 -114 -70zM61 340c0 197 97 350 304 350
c193 0 299 -152 300 -350c0 -199 -107 -350 -301 -350c-207 0 -303 150 -303 350zM364 81c139 0 190 126 190 260c0 138 -50 258 -190 258c-143 0 -193 -120 -193 -258c0 -136 49 -260 193 -260z" />
    <glyph glyph-name="Odieresis" unicode="&#xd6;" horiz-adv-x="726" 
d="M497 734c-36 0 -62 6 -63 60c-2 55 25 61 59 61s61 -6 63 -61c1 -54 -26 -60 -59 -60zM233 734c-36 0 -62 6 -63 60c-2 55 25 61 59 61s61 -6 63 -61c1 -54 -26 -60 -59 -60zM61 340c0 197 97 350 304 350c193 0 299 -152 300 -350c0 -199 -107 -350 -301 -350
c-207 0 -303 150 -303 350zM364 81c139 0 190 126 190 260c0 138 -50 258 -190 258c-143 0 -193 -120 -193 -258c0 -136 49 -260 193 -260z" />
    <glyph glyph-name="Ograve" unicode="&#xd2;" horiz-adv-x="726" 
d="M241 818c-16 7 -16 17 -9 34l16 37c7 16 13 19 32 8c42 -23 158 -81 196 -100c15 -8 16 -20 7 -37l-9 -17c-8 -15 -12 -20 -32 -10zM61 340c0 197 97 350 304 350c193 0 299 -152 300 -350c0 -199 -107 -350 -301 -350c-207 0 -303 150 -303 350zM364 81
c139 0 190 126 190 260c0 138 -50 258 -190 258c-143 0 -193 -120 -193 -258c0 -136 49 -260 193 -260z" />
    <glyph glyph-name="Otilde" unicode="&#xd5;" horiz-adv-x="726" 
d="M230 764l-15 13c-12 11 -16 18 -8 35c16 33 51 79 97 79c61 0 91 -64 120 -64c24 0 32 14 39 25c8 11 22 13 33 1l19 -20c12 -13 12 -18 2 -37c-12 -22 -43 -57 -93 -57c-58 0 -87 62 -120 62c-20 0 -34 -23 -42 -39s-19 -9 -32 2zM61 340c0 197 97 350 304 350
c193 0 299 -152 300 -350c0 -199 -107 -350 -301 -350c-207 0 -303 150 -303 350zM364 81c139 0 190 126 190 260c0 138 -50 258 -190 258c-143 0 -193 -120 -193 -258c0 -136 49 -260 193 -260z" />
    <glyph glyph-name="Scaron" unicode="&#x160;" horiz-adv-x="587" 
d="M289 742c-7 0 -12 3 -17 7l-136 100c-14 10 -18 22 -7 37l13 17c10 13 13 21 32 10l115 -70c33 21 97 59 114 70s22 3 32 -10l13 -17c11 -15 7 -27 -7 -37c-38 -29 -96 -66 -136 -100c-8 -7 -13 -7 -16 -7zM100 28c-32 20 -42 45 -30 76c9 26 31 38 31 38s62 -61 179 -61
c90 0 145 44 145 111c0 45 -42 79 -114 97l-96 25c-88 23 -164 71 -164 176c0 112 90 200 240 200c95 0 156 -26 181 -41c27 -17 41 -40 22 -74c-11 -20 -26 -30 -26 -30s-75 54 -177 54c-88 0 -129 -45 -129 -108c0 -51 56 -73 109 -88l93 -25c126 -36 172 -98 172 -186
c0 -125 -107 -202 -256 -202c-92 0 -158 25 -180 38z" />
    <glyph glyph-name="Uacute" unicode="&#xda;" horiz-adv-x="715" 
d="M249 743l-9 17c-9 17 -8 29 7 37c38 19 154 77 196 100c19 11 25 8 32 -8l16 -37c7 -17 7 -27 -9 -34l-201 -85c-20 -10 -24 -5 -32 10zM83 315c-3 133 1 291 0 311c0 28 -5 54 34 54h41c37 0 38 -20 37 -46c-1 -29 -2 -175 -2 -319s41 -234 166 -234
c121 0 160 86 160 236c0 142 2 289 2 309c0 28 -6 54 33 54h41c37 0 39 -20 38 -46c-1 -29 -3 -271 -5 -318c-8 -196 -58 -326 -269 -326c-223 0 -272 127 -276 325z" />
    <glyph glyph-name="Ucircumflex" unicode="&#xdb;" horiz-adv-x="715" 
d="M248 753c-17 -11 -22 -3 -32 10l-13 17c-11 15 -7 27 7 37c38 29 96 66 136 100c8 7 13 7 16 7c7 0 12 -3 17 -7l136 -100c14 -10 18 -22 7 -37l-13 -17c-10 -13 -13 -21 -32 -10l-115 70c-33 -21 -97 -59 -114 -70zM83 315c-3 133 1 291 0 311c0 28 -5 54 34 54h41
c37 0 38 -20 37 -46c-1 -29 -2 -175 -2 -319s41 -234 166 -234c121 0 160 86 160 236c0 142 2 289 2 309c0 28 -6 54 33 54h41c37 0 39 -20 38 -46c-1 -29 -3 -271 -5 -318c-8 -196 -58 -326 -269 -326c-223 0 -272 127 -276 325z" />
    <glyph glyph-name="Udieresis" unicode="&#xdc;" horiz-adv-x="715" 
d="M498 734c-36 0 -62 6 -63 60c-2 55 25 61 59 61s61 -6 63 -61c1 -54 -26 -60 -59 -60zM234 734c-36 0 -62 6 -63 60c-2 55 25 61 59 61s61 -6 63 -61c1 -54 -26 -60 -59 -60zM83 315c-3 133 1 291 0 311c0 28 -5 54 34 54h41c37 0 38 -20 37 -46c-1 -29 -2 -175 -2 -319
s41 -234 166 -234c121 0 160 86 160 236c0 142 2 289 2 309c0 28 -6 54 33 54h41c37 0 39 -20 38 -46c-1 -29 -3 -271 -5 -318c-8 -196 -58 -326 -269 -326c-223 0 -272 127 -276 325z" />
    <glyph glyph-name="Ugrave" unicode="&#xd9;" horiz-adv-x="715" 
d="M243 818c-16 7 -16 17 -9 34l16 37c7 16 13 19 32 8c42 -23 158 -81 196 -100c15 -8 16 -20 7 -37l-9 -17c-8 -15 -12 -20 -32 -10zM83 315c-3 133 1 291 0 311c0 28 -5 54 34 54h41c37 0 38 -20 37 -46c-1 -29 -2 -175 -2 -319s41 -234 166 -234c121 0 160 86 160 236
c0 142 2 289 2 309c0 28 -6 54 33 54h41c37 0 39 -20 38 -46c-1 -29 -3 -271 -5 -318c-8 -196 -58 -326 -269 -326c-223 0 -272 127 -276 325z" />
    <glyph glyph-name="Yacute" unicode="&#xdd;" horiz-adv-x="624" 
d="M226 733c-20 -10 -24 -5 -32 10l-9 17c-9 17 -8 29 7 37c38 19 154 77 196 100c19 11 25 8 32 -8l16 -37c7 -17 7 -27 -9 -34zM254 60v220c-37 66 -206 336 -221 357c-7 11 -16 43 13 43h56c27 0 35 -20 43 -35c32 -60 128 -213 161 -269h7c37 56 152 249 165 277
c8 16 16 27 51 27h45c20 0 32 -25 20 -43c-22 -29 -195 -308 -230 -359c1 -30 -1 -188 1 -211c2 -28 15 -67 -34 -67h-40c-37 0 -39 34 -37 60z" />
    <glyph glyph-name="Ydieresis" unicode="&#x178;" horiz-adv-x="624" 
d="M445 734c-36 0 -62 6 -63 60c-2 55 25 61 59 61s61 -6 63 -61c1 -54 -26 -60 -59 -60zM181 734c-36 0 -62 6 -63 60c-2 55 25 61 59 61s61 -6 63 -61c1 -54 -26 -60 -59 -60zM254 60v220c-37 66 -206 336 -221 357c-7 11 -16 43 13 43h56c27 0 35 -20 43 -35
c32 -60 128 -213 161 -269h7c37 56 152 249 165 277c8 16 16 27 51 27h45c20 0 32 -25 20 -43c-22 -29 -195 -308 -230 -359c1 -30 -1 -188 1 -211c2 -28 15 -67 -34 -67h-40c-37 0 -39 34 -37 60z" />
    <glyph glyph-name="Zcaron" unicode="&#x17d;" horiz-adv-x="592" 
d="M306 742c-7 0 -12 3 -17 7l-136 100c-14 10 -18 22 -7 37l13 17c10 13 13 21 32 10l115 -70c33 21 97 59 114 70s22 3 32 -10l13 -17c11 -15 7 -27 -7 -37c-38 -29 -96 -66 -136 -100c-8 -7 -13 -7 -16 -7zM51 34v60c32 39 309 405 365 481v6h-300c-24 0 -29 12 -29 35
v37c0 22 6 27 35 27h385c21 0 32 -15 34 -35v-54l-365 -486v-8c49 0 294 1 312 3c24 2 34 -10 34 -33v-40c0 -22 -5 -27 -35 -27h-399c-25 0 -35 10 -37 34z" />
    <glyph glyph-name="aacute" unicode="&#xe1;" horiz-adv-x="574" 
d="M203 606c-20 -10 -24 -5 -32 10l-9 17c-9 17 -8 29 7 37c38 19 154 77 196 100c19 11 25 8 32 -8l16 -37c7 -17 7 -27 -9 -34zM51 157c0 105 78 169 197 169c67 0 132 -19 148 -26v58c0 74 -53 108 -124 108c-86 0 -154 -42 -154 -42s-50 54 -8 94c27 24 88 42 174 42
c136 0 212 -80 212 -202c0 -85 -2 -246 1 -302c2 -35 20 -66 -52 -66c-46 0 -57 37 -50 90h-5s-59 -90 -170 -90c-112 0 -169 77 -169 167zM159 161c0 -54 38 -85 93 -85c70 0 127 47 142 88v69c-13 5 -61 17 -116 17c-68 0 -119 -32 -119 -89z" />
    <glyph glyph-name="acircumflex" unicode="&#xe2;" horiz-adv-x="574" 
d="M173 616c-17 -11 -22 -3 -32 10l-13 17c-11 15 -7 27 7 37c38 29 96 66 136 100c8 7 13 7 16 7c7 0 12 -3 17 -7l136 -100c14 -10 18 -22 7 -37l-13 -17c-10 -13 -13 -21 -32 -10l-115 70c-33 -21 -97 -59 -114 -70zM51 157c0 105 78 169 197 169c67 0 132 -19 148 -26
v58c0 74 -53 108 -124 108c-86 0 -154 -42 -154 -42s-50 54 -8 94c27 24 88 42 174 42c136 0 212 -80 212 -202c0 -85 -2 -246 1 -302c2 -35 20 -66 -52 -66c-46 0 -57 37 -50 90h-5s-59 -90 -170 -90c-112 0 -169 77 -169 167zM159 161c0 -54 38 -85 93 -85
c70 0 127 47 142 88v69c-13 5 -61 17 -116 17c-68 0 -119 -32 -119 -89z" />
    <glyph glyph-name="adieresis" unicode="&#xe4;" horiz-adv-x="574" 
d="M428 619c-36 0 -62 6 -63 60c-2 55 25 61 59 61s61 -6 63 -61c1 -54 -26 -60 -59 -60zM164 619c-36 0 -62 6 -63 60c-2 55 25 61 59 61s61 -6 63 -61c1 -54 -26 -60 -59 -60zM51 157c0 105 78 169 197 169c67 0 132 -19 148 -26v58c0 74 -53 108 -124 108
c-86 0 -154 -42 -154 -42s-50 54 -8 94c27 24 88 42 174 42c136 0 212 -80 212 -202c0 -85 -2 -246 1 -302c2 -35 20 -66 -52 -66c-46 0 -57 37 -50 90h-5s-59 -90 -170 -90c-112 0 -169 77 -169 167zM159 161c0 -54 38 -85 93 -85c70 0 127 47 142 88v69
c-13 5 -61 17 -116 17c-68 0 -119 -32 -119 -89z" />
    <glyph glyph-name="agrave" unicode="&#xe0;" horiz-adv-x="574" 
d="M195 691c-16 7 -16 17 -9 34l16 37c7 16 13 19 32 8c42 -23 158 -81 196 -100c15 -8 16 -20 7 -37l-9 -17c-8 -15 -12 -20 -32 -10zM51 157c0 105 78 169 197 169c67 0 132 -19 148 -26v58c0 74 -53 108 -124 108c-86 0 -154 -42 -154 -42s-50 54 -8 94
c27 24 88 42 174 42c136 0 212 -80 212 -202c0 -85 -2 -246 1 -302c2 -35 20 -66 -52 -66c-46 0 -57 37 -50 90h-5s-59 -90 -170 -90c-112 0 -169 77 -169 167zM159 161c0 -54 38 -85 93 -85c70 0 127 47 142 88v69c-13 5 -61 17 -116 17c-68 0 -119 -32 -119 -89z" />
    <glyph glyph-name="aring" unicode="&#xe5;" horiz-adv-x="574" 
d="M297 622c-104 0 -148 52 -148 121c0 68 50 122 148 122s147 -53 147 -122s-54 -121 -147 -121zM297 684c55 0 68 31 68 60c0 28 -13 58 -68 58c-59 0 -69 -30 -69 -58c0 -29 10 -60 69 -60zM51 157c0 105 78 169 197 169c67 0 132 -19 148 -26v58c0 74 -53 108 -124 108
c-86 0 -154 -42 -154 -42s-50 54 -8 94c27 24 88 42 174 42c136 0 212 -80 212 -202c0 -85 -2 -246 1 -302c2 -35 20 -66 -52 -66c-46 0 -57 37 -50 90h-5s-59 -90 -170 -90c-112 0 -169 77 -169 167zM159 161c0 -54 38 -85 93 -85c70 0 127 47 142 88v69
c-13 5 -61 17 -116 17c-68 0 -119 -32 -119 -89z" />
    <glyph glyph-name="atilde" unicode="&#xe3;" horiz-adv-x="574" 
d="M154 631l-15 13c-12 11 -16 18 -8 35c16 33 51 79 97 79c61 0 91 -64 120 -64c24 0 32 14 39 25c8 11 22 13 33 1l19 -20c12 -13 12 -18 2 -37c-12 -22 -43 -57 -93 -57c-58 0 -87 62 -120 62c-20 0 -34 -23 -42 -39s-19 -9 -32 2zM51 157c0 105 78 169 197 169
c67 0 132 -19 148 -26v58c0 74 -53 108 -124 108c-86 0 -154 -42 -154 -42s-50 54 -8 94c27 24 88 42 174 42c136 0 212 -80 212 -202c0 -85 -2 -246 1 -302c2 -35 20 -66 -52 -66c-46 0 -57 37 -50 90h-5s-59 -90 -170 -90c-112 0 -169 77 -169 167zM159 161
c0 -54 38 -85 93 -85c70 0 127 47 142 88v69c-13 5 -61 17 -116 17c-68 0 -119 -32 -119 -89z" />
    <glyph glyph-name="ccedilla" unicode="&#xe7;" horiz-adv-x="544" 
d="M209 -94c0 0 17 -9 39 -9c26 0 44 7 44 23c0 17 -31 24 -51 24c-9 0 -9 7 -7 14c2 8 9 25 14 37c-130 21 -198 120 -198 281c0 160 100 284 258 284c135 0 174 -63 174 -116s-43 -76 -85 -57c0 0 2 9 2 17c0 28 -21 69 -86 69c-97 0 -155 -75 -155 -196
c0 -125 51 -201 154 -201c83 0 141 45 141 45s29 -14 29 -52s-67 -79 -174 -79h-17c-4 -11 -8 -24 -6 -24c41 -3 70 -17 70 -58c0 -34 -41 -68 -104 -68c-37 0 -55 13 -55 35c0 20 13 31 13 31z" />
    <glyph glyph-name="eacute" unicode="&#xe9;" horiz-adv-x="569" 
d="M202 606c-20 -10 -24 -5 -32 10l-9 17c-9 17 -8 29 7 37c38 19 154 77 196 100c19 11 25 8 32 -8l16 -37c7 -17 7 -27 -9 -34zM50 278c0 160 92 282 250 282c139 0 215 -97 215 -201c0 -87 -21 -101 -54 -101h-306l-2 -3c0 -90 50 -179 157 -179c86 0 148 49 154 53
c0 0 17 -9 25 -30c10 -26 4 -48 -14 -61c-16 -12 -78 -48 -165 -48c-184 0 -260 124 -260 288zM156 330h254s2 15 2 29c0 74 -35 114 -114 114c-108 0 -140 -90 -142 -143z" />
    <glyph glyph-name="ecircumflex" unicode="&#xea;" horiz-adv-x="569" 
d="M184 616c-17 -11 -22 -3 -32 10l-13 17c-11 15 -7 27 7 37c38 29 96 66 136 100c8 7 13 7 16 7c7 0 12 -3 17 -7l136 -100c14 -10 18 -22 7 -37l-13 -17c-10 -13 -13 -21 -32 -10l-115 70c-33 -21 -97 -59 -114 -70zM50 278c0 160 92 282 250 282c139 0 215 -97 215 -201
c0 -87 -21 -101 -54 -101h-306l-2 -3c0 -90 50 -179 157 -179c86 0 148 49 154 53c0 0 17 -9 25 -30c10 -26 4 -48 -14 -61c-16 -12 -78 -48 -165 -48c-184 0 -260 124 -260 288zM156 330h254s2 15 2 29c0 74 -35 114 -114 114c-108 0 -140 -90 -142 -143z" />
    <glyph glyph-name="edieresis" unicode="&#xeb;" horiz-adv-x="569" 
d="M435 619c-36 0 -62 6 -63 60c-2 55 25 61 59 61s61 -6 63 -61c1 -54 -26 -60 -59 -60zM171 619c-36 0 -62 6 -63 60c-2 55 25 61 59 61s61 -6 63 -61c1 -54 -26 -60 -59 -60zM50 278c0 160 92 282 250 282c139 0 215 -97 215 -201c0 -87 -21 -101 -54 -101h-306l-2 -3
c0 -90 50 -179 157 -179c86 0 148 49 154 53c0 0 17 -9 25 -30c10 -26 4 -48 -14 -61c-16 -12 -78 -48 -165 -48c-184 0 -260 124 -260 288zM156 330h254s2 15 2 29c0 74 -35 114 -114 114c-108 0 -140 -90 -142 -143z" />
    <glyph glyph-name="egrave" unicode="&#xe8;" horiz-adv-x="569" 
d="M186 691c-16 7 -16 17 -9 34l16 37c7 16 13 19 32 8c42 -23 158 -81 196 -100c15 -8 16 -20 7 -37l-9 -17c-8 -15 -12 -20 -32 -10zM50 278c0 160 92 282 250 282c139 0 215 -97 215 -201c0 -87 -21 -101 -54 -101h-306l-2 -3c0 -90 50 -179 157 -179c86 0 148 49 154 53
c0 0 17 -9 25 -30c10 -26 4 -48 -14 -61c-16 -12 -78 -48 -165 -48c-184 0 -260 124 -260 288zM156 330h254s2 15 2 29c0 74 -35 114 -114 114c-108 0 -140 -90 -142 -143z" />
    <glyph glyph-name="iacute" unicode="&#xed;" horiz-adv-x="298" 
d="M65 606c-20 -10 -24 -5 -32 10l-9 17c-9 17 -8 29 7 37c38 19 154 77 196 100c19 11 25 8 32 -8l16 -37c7 -17 7 -27 -9 -34zM92 60c1 19 2 49 2 85c2 126 2 282 2 351c0 26 -10 54 46 54c49 0 66 -10 64 -49c-6 -126 -6 -284 -6 -367c0 -33 0 -58 1 -67
c4 -39 3 -67 -32 -67h-41c-37 0 -37 34 -36 60z" />
    <glyph glyph-name="icircumflex" unicode="&#xee;" horiz-adv-x="298" 
d="M37 616c-17 -11 -22 -3 -32 10l-13 17c-11 15 -7 27 7 37c38 29 96 66 136 100c8 7 13 7 16 7c7 0 12 -3 17 -7l136 -100c14 -10 18 -22 7 -37l-13 -17c-10 -13 -13 -21 -32 -10l-115 70c-33 -21 -97 -59 -114 -70zM92 60c1 19 2 49 2 85c2 126 2 282 2 351
c0 26 -10 54 46 54c49 0 66 -10 64 -49c-6 -126 -6 -284 -6 -367c0 -33 0 -58 1 -67c4 -39 3 -67 -32 -67h-41c-37 0 -37 34 -36 60z" />
    <glyph glyph-name="idieresis" unicode="&#xef;" horiz-adv-x="298" 
d="M283 619c-36 0 -62 6 -63 60c-2 55 25 61 59 61s61 -6 63 -61c1 -54 -26 -60 -59 -60zM19 619c-36 0 -62 6 -63 60c-2 55 25 61 59 61s61 -6 63 -61c1 -54 -26 -60 -59 -60zM92 60c1 19 2 49 2 85c2 126 2 282 2 351c0 26 -10 54 46 54c49 0 66 -10 64 -49
c-6 -126 -6 -284 -6 -367c0 -33 0 -58 1 -67c4 -39 3 -67 -32 -67h-41c-37 0 -37 34 -36 60z" />
    <glyph glyph-name="igrave" unicode="&#xec;" horiz-adv-x="298" 
d="M243 606l-201 85c-16 7 -16 17 -9 34l16 37c7 16 13 19 32 8c42 -23 158 -81 196 -100c15 -8 16 -20 7 -37l-9 -17c-8 -15 -12 -20 -32 -10zM92 60c1 19 2 49 2 85c2 126 2 282 2 351c0 26 -10 54 46 54c49 0 66 -10 64 -49c-6 -126 -6 -284 -6 -367c0 -33 0 -58 1 -67
c4 -39 3 -67 -32 -67h-41c-37 0 -37 34 -36 60z" />
    <glyph glyph-name="ntilde" unicode="&#xf1;" horiz-adv-x="638" 
d="M206 631l-15 13c-12 11 -16 18 -8 35c16 33 51 79 97 79c61 0 91 -64 120 -64c24 0 32 14 39 25c8 11 22 13 33 1l19 -20c12 -13 12 -18 2 -37c-12 -22 -43 -57 -93 -57c-58 0 -87 62 -120 62c-20 0 -34 -23 -42 -39s-19 -9 -32 2zM80 60c1 19 2 49 2 85
c2 126 2 326 2 361c0 26 -15 54 46 54c56 0 64 -38 64 -70c0 -5 -1 -16 -1 -36h7c8 21 52 106 171 106c141 0 194 -99 194 -220c0 -81 -6 -167 -6 -296c0 -28 6 -54 -47 -54c-56 0 -64 25 -64 52c0 94 6 193 6 299c0 73 -35 132 -104 132c-91 0 -142 -92 -159 -132
c-1 -71 -2 -153 -2 -207c0 -33 0 -58 1 -67c3 -39 2 -67 -33 -67h-41c-37 0 -37 34 -36 60z" />
    <glyph glyph-name="oacute" unicode="&#xf3;" horiz-adv-x="601" 
d="M184 616l-9 17c-9 17 -8 29 7 37c38 19 154 77 196 100c19 11 25 8 32 -8l16 -37c7 -17 7 -27 -9 -34l-201 -85c-20 -10 -24 -5 -32 10zM51 278c2 157 83 282 248 282c166 0 253 -124 251 -282c-2 -164 -85 -289 -250 -289c-166 0 -251 124 -249 289zM299 76
c115 0 143 96 143 202c0 105 -35 195 -142 195c-115 0 -141 -91 -141 -195c0 -106 26 -202 140 -202z" />
    <glyph glyph-name="ocircumflex" unicode="&#xf4;" horiz-adv-x="601" 
d="M183 616c-17 -11 -22 -3 -32 10l-13 17c-11 15 -7 27 7 37c38 29 96 66 136 100c8 7 13 7 16 7c7 0 12 -3 17 -7l136 -100c14 -10 18 -22 7 -37l-13 -17c-10 -13 -13 -21 -32 -10l-115 70c-33 -21 -97 -59 -114 -70zM51 278c2 157 83 282 248 282
c166 0 253 -124 251 -282c-2 -164 -85 -289 -250 -289c-166 0 -251 124 -249 289zM299 76c115 0 143 96 143 202c0 105 -35 195 -142 195c-115 0 -141 -91 -141 -195c0 -106 26 -202 140 -202z" />
    <glyph glyph-name="odieresis" unicode="&#xf6;" horiz-adv-x="601" 
d="M438 619c-36 0 -62 6 -63 60c-2 55 25 61 59 61s61 -6 63 -61c1 -54 -26 -60 -59 -60zM174 619c-36 0 -62 6 -63 60c-2 55 25 61 59 61s61 -6 63 -61c1 -54 -26 -60 -59 -60zM51 278c2 157 83 282 248 282c166 0 253 -124 251 -282c-2 -164 -85 -289 -250 -289
c-166 0 -251 124 -249 289zM299 76c115 0 143 96 143 202c0 105 -35 195 -142 195c-115 0 -141 -91 -141 -195c0 -106 26 -202 140 -202z" />
    <glyph glyph-name="ograve" unicode="&#xf2;" horiz-adv-x="601" 
d="M180 691c-16 7 -16 17 -9 34l16 37c7 16 13 19 32 8c42 -23 158 -81 196 -100c15 -8 16 -20 7 -37l-9 -17c-8 -15 -12 -20 -32 -10zM51 278c2 157 83 282 248 282c166 0 253 -124 251 -282c-2 -164 -85 -289 -250 -289c-166 0 -251 124 -249 289zM299 76
c115 0 143 96 143 202c0 105 -35 195 -142 195c-115 0 -141 -91 -141 -195c0 -106 26 -202 140 -202z" />
    <glyph glyph-name="otilde" unicode="&#xf5;" horiz-adv-x="601" 
d="M166 631l-15 13c-12 11 -16 18 -8 35c16 33 51 79 97 79c61 0 91 -64 120 -64c24 0 32 14 39 25c8 11 22 13 33 1l19 -20c12 -13 12 -18 2 -37c-12 -22 -43 -57 -93 -57c-58 0 -87 62 -120 62c-20 0 -34 -23 -42 -39s-19 -9 -32 2zM51 278c2 157 83 282 248 282
c166 0 253 -124 251 -282c-2 -164 -85 -289 -250 -289c-166 0 -251 124 -249 289zM299 76c115 0 143 96 143 202c0 105 -35 195 -142 195c-115 0 -141 -91 -141 -195c0 -106 26 -202 140 -202z" />
    <glyph glyph-name="scaron" unicode="&#x161;" horiz-adv-x="532" 
d="M253 612l-136 100c-14 10 -18 22 -7 37l13 17c10 13 13 21 32 10l115 -70c33 21 97 59 114 70s22 3 32 -10l13 -17c11 -15 7 -27 -7 -37c-38 -29 -96 -66 -136 -100c-8 -7 -13 -7 -16 -7c-7 0 -12 3 -17 7zM67 63c-2 30 15 57 22 61c0 0 61 -48 153 -48
c60 0 123 18 123 75c0 39 -39 59 -89 75l-83 27c-94 31 -133 70 -133 150c0 94 76 157 208 157c136 0 171 -41 175 -61c6 -26 -12 -57 -25 -69c0 0 -58 43 -149 43c-37 0 -104 -8 -104 -69c0 -32 22 -50 67 -64l84 -26c101 -32 152 -69 152 -154c0 -99 -76 -170 -226 -170
c-130 0 -173 40 -175 73z" />
    <glyph glyph-name="uacute" unicode="&#xfa;" horiz-adv-x="628" 
d="M203 616l-9 17c-9 17 -8 29 7 37c38 19 154 77 196 100c19 11 25 8 32 -8l16 -37c7 -17 7 -27 -9 -34l-201 -85c-20 -10 -24 -5 -32 10zM73 210c0 81 6 167 6 296c0 28 -6 54 47 54c56 0 64 -25 64 -52c0 -94 -6 -193 -6 -299c0 -73 30 -132 99 -132c89 0 137 88 154 129
c1 72 2 155 2 210c0 33 0 58 -1 67c-3 39 -2 67 33 67h41c37 0 37 -34 36 -60c-1 -19 -2 -49 -2 -85c-2 -126 -2 -326 -2 -361c0 -26 15 -54 -46 -54c-56 0 -64 38 -64 70c0 5 1 15 1 36h-7c-7 -22 -51 -106 -166 -106c-141 0 -189 99 -189 220z" />
    <glyph glyph-name="ucircumflex" unicode="&#xfb;" horiz-adv-x="628" 
d="M201 616c-17 -11 -22 -3 -32 10l-13 17c-11 15 -7 27 7 37c38 29 96 66 136 100c8 7 13 7 16 7c7 0 12 -3 17 -7l136 -100c14 -10 18 -22 7 -37l-13 -17c-10 -13 -13 -21 -32 -10l-115 70c-33 -21 -97 -59 -114 -70zM73 210c0 81 6 167 6 296c0 28 -6 54 47 54
c56 0 64 -25 64 -52c0 -94 -6 -193 -6 -299c0 -73 30 -132 99 -132c89 0 137 88 154 129c1 72 2 155 2 210c0 33 0 58 -1 67c-3 39 -2 67 33 67h41c37 0 37 -34 36 -60c-1 -19 -2 -49 -2 -85c-2 -126 -2 -326 -2 -361c0 -26 15 -54 -46 -54c-56 0 -64 38 -64 70
c0 5 1 15 1 36h-7c-7 -22 -51 -106 -166 -106c-141 0 -189 99 -189 220z" />
    <glyph glyph-name="udieresis" unicode="&#xfc;" horiz-adv-x="628" 
d="M448 619c-36 0 -62 6 -63 60c-2 55 25 61 59 61s61 -6 63 -61c1 -54 -26 -60 -59 -60zM184 619c-36 0 -62 6 -63 60c-2 55 25 61 59 61s61 -6 63 -61c1 -54 -26 -60 -59 -60zM73 210c0 81 6 167 6 296c0 28 -6 54 47 54c56 0 64 -25 64 -52c0 -94 -6 -193 -6 -299
c0 -73 30 -132 99 -132c89 0 137 88 154 129c1 72 2 155 2 210c0 33 0 58 -1 67c-3 39 -2 67 33 67h41c37 0 37 -34 36 -60c-1 -19 -2 -49 -2 -85c-2 -126 -2 -326 -2 -361c0 -26 15 -54 -46 -54c-56 0 -64 38 -64 70c0 5 1 15 1 36h-7c-7 -22 -51 -106 -166 -106
c-141 0 -189 99 -189 220z" />
    <glyph glyph-name="ugrave" unicode="&#xf9;" horiz-adv-x="628" 
d="M197 691c-16 7 -16 17 -9 34l16 37c7 16 13 19 32 8c42 -23 158 -81 196 -100c15 -8 16 -20 7 -37l-9 -17c-8 -15 -12 -20 -32 -10zM73 210c0 81 6 167 6 296c0 28 -6 54 47 54c56 0 64 -25 64 -52c0 -94 -6 -193 -6 -299c0 -73 30 -132 99 -132c89 0 137 88 154 129
c1 72 2 155 2 210c0 33 0 58 -1 67c-3 39 -2 67 33 67h41c37 0 37 -34 36 -60c-1 -19 -2 -49 -2 -85c-2 -126 -2 -326 -2 -361c0 -26 15 -54 -46 -54c-56 0 -64 38 -64 70c0 5 1 15 1 36h-7c-7 -22 -51 -106 -166 -106c-141 0 -189 99 -189 220z" />
    <glyph glyph-name="yacute" unicode="&#xfd;" horiz-adv-x="552" 
d="M189 606c-20 -10 -24 -5 -32 10l-9 17c-9 17 -8 29 7 37c38 19 154 77 196 100c19 11 25 8 32 -8l16 -37c7 -17 7 -27 -9 -34zM59 -70c4 16 16 19 32 12c24 -11 48 -16 78 -16c53 0 78 35 103 123h-29c-29 0 -39 8 -48 33c-22 59 -151 376 -167 417c-9 23 -15 51 22 51
h32c38 0 42 -15 51 -38c14 -38 122 -320 151 -406h6l116 405c6 23 12 39 48 39h43c30 0 29 -22 22 -49c-17 -63 -110 -351 -143 -460c-36 -119 -87 -201 -199 -201c-44 0 -87 8 -109 19c-19 9 -22 16 -17 37z" />
    <glyph glyph-name="ydieresis" unicode="&#xff;" horiz-adv-x="552" 
d="M403 619c-36 0 -62 6 -63 60c-2 55 25 61 59 61s61 -6 63 -61c1 -54 -26 -60 -59 -60zM139 619c-36 0 -62 6 -63 60c-2 55 25 61 59 61s61 -6 63 -61c1 -54 -26 -60 -59 -60zM59 -70c4 16 16 19 32 12c24 -11 48 -16 78 -16c53 0 78 35 103 123h-29c-29 0 -39 8 -48 33
c-22 59 -151 376 -167 417c-9 23 -15 51 22 51h32c38 0 42 -15 51 -38c14 -38 122 -320 151 -406h6l116 405c6 23 12 39 48 39h43c30 0 29 -22 22 -49c-17 -63 -110 -351 -143 -460c-36 -119 -87 -201 -199 -201c-44 0 -87 8 -109 19c-19 9 -22 16 -17 37z" />
    <glyph glyph-name="zcaron" unicode="&#x17e;" horiz-adv-x="492" 
d="M242 605c-7 0 -12 3 -17 7l-136 100c-14 10 -18 22 -7 37l13 17c10 13 13 21 32 10l115 -70c33 21 97 59 114 70s22 3 32 -10l13 -17c11 -15 7 -27 -7 -37c-38 -29 -96 -66 -136 -100c-8 -7 -13 -7 -16 -7zM42 37v40c17 23 253 347 274 383c-16 2 -229 -2 -242 -2
c-14 0 -25 4 -25 29v38c0 17 13 25 27 25h327c29 0 37 -13 38 -40v-31c-17 -21 -241 -330 -277 -385c41 0 230 2 236 3c13 2 32 -1 32 -36v-25c0 -39 -19 -36 -37 -36h-323c-18 0 -30 10 -30 37z" />
    <glyph glyph-name="uni2070" unicode="&#x2070;" horiz-adv-x="332" 
d="M163 439c-98 0 -132 65 -132 150s42 151 138 151c98 0 131 -66 132 -151c0 -84 -40 -150 -138 -150zM164 498c45 0 60 46 60 91c0 48 -13 92 -56 92c-46 0 -59 -44 -59 -91c0 -45 9 -92 55 -92z" />
    <glyph glyph-name="uni2074" unicode="&#x2074;" horiz-adv-x="336" 
d="M187 449c-8 7 -8 20 -8 31v50c-22 0 -80 -2 -112 -2c-19 0 -29 14 -29 37c0 18 9 131 9 143c0 18 2 27 24 27h26c20 0 26 -10 25 -22c-1 -18 -10 -107 -10 -129c23 0 46 1 69 1c2 26 -2 53 3 79c2 9 7 16 24 16h25c21 0 28 -11 27 -27c-1 -7 -3 -53 -3 -66h34
c10 0 19 -4 19 -16v-24c0 -13 -5 -16 -18 -15h-36v-50c1 -18 9 -39 -26 -39h-25c-9 0 -14 2 -18 6z" />
    <glyph glyph-name="uni2075" unicode="&#x2075;" horiz-adv-x="316" 
d="M153 439c-96 0 -135 22 -115 62c4 8 12 14 14 15c0 0 55 -19 101 -19c35 0 54 18 54 41s-22 34 -84 34c-9 0 -18 -1 -49 -1c-13 0 -20 5 -18 22c1 10 1 69 2 91c0 32 -3 51 40 51h137c20 0 22 -8 22 -22v-25c0 -18 -15 -18 -42 -18h-85c0 -11 -1 -21 -1 -43
c92 3 154 -15 154 -89c0 -57 -47 -99 -130 -99z" />
    <glyph glyph-name="uni2076" unicode="&#x2076;" horiz-adv-x="321" 
d="M162 439c-79 0 -131 48 -131 128c0 86 45 173 158 173c45 0 71 -11 80 -17c17 -10 6 -29 2 -38c-6 -12 -15 -19 -15 -19s-28 15 -74 15c-68 0 -83 -62 -83 -71l5 -2s30 19 75 19c59 0 109 -34 109 -87c0 -55 -50 -101 -126 -101zM162 497c36 0 51 18 51 43
c0 26 -23 43 -55 44c-43 1 -51 -26 -51 -42c0 -33 25 -45 55 -45z" />
    <glyph glyph-name="uni2077" unicode="&#x2077;" horiz-adv-x="287" 
d="M58 443c-19 0 -25 3 -25 19c0 58 103 161 141 207v2c-13 -1 -56 -1 -117 -1c-18 0 -21 7 -21 21c0 9 1 19 1 28c0 13 5 16 25 16h177c14 0 22 -9 22 -21s-1 -23 -1 -35c-51 -62 -110 -128 -142 -210c-6 -16 -11 -26 -29 -26h-31z" />
    <glyph glyph-name="uni2078" unicode="&#x2078;" horiz-adv-x="326" 
d="M165 439c-82 0 -134 35 -134 85c1 60 63 73 63 73v2s-45 13 -45 61c0 45 36 80 116 80c78 0 116 -31 116 -80c0 -45 -47 -61 -47 -61v-2s61 -13 61 -73c0 -50 -53 -85 -130 -85zM165 619c26 0 39 16 39 33c0 14 -11 29 -39 29c-27 0 -39 -15 -39 -29c0 -17 12 -33 39 -33
zM165 497c36 0 54 17 54 40c0 18 -16 38 -54 38c-42 0 -56 -22 -56 -40c0 -23 18 -38 56 -38z" />
    <glyph glyph-name="uni2079" unicode="&#x2079;" horiz-adv-x="319" 
d="M59 457c-11 10 -9 26 -5 37c6 17 14 23 14 23s24 -18 76 -18c59 0 75 62 75 73h-4s-25 -22 -69 -22c-73 0 -113 32 -113 91c0 56 41 99 124 99c79 0 133 -56 133 -152c0 -69 -49 -149 -149 -149c-53 0 -76 13 -82 18zM156 596c30 0 53 16 52 43c-1 23 -17 42 -52 42
c-31 0 -48 -18 -48 -43c0 -27 20 -42 48 -42z" />
    <glyph glyph-name="uni2080" unicode="&#x2080;" horiz-adv-x="332" 
d="M31 89c0 85 42 151 138 151c98 0 131 -66 132 -151c0 -84 -40 -150 -138 -150s-132 65 -132 150zM109 90c0 -45 9 -92 55 -92c45 0 60 46 60 91c0 48 -13 92 -56 92c-46 0 -59 -44 -59 -91z" />
    <glyph glyph-name="uni2081" unicode="&#x2081;" horiz-adv-x="241" 
d="M113 -20c5 57 5 114 6 178l-61 -19c-15 -6 -19 6 -21 8l-9 16c-6 11 -9 21 4 27l109 45h29c26 0 26 -23 25 -39c-5 -76 0 -152 0 -230c0 -12 -4 -23 -27 -23h-30c-9 0 -14 2 -18 6c-8 7 -8 20 -7 31z" />
    <glyph glyph-name="uni2082" unicode="&#x2082;" horiz-adv-x="294" 
d="M32 1c12 10 28 21 44 32c48 34 103 74 103 121c0 15 -11 25 -34 25c-48 0 -90 -21 -90 -21s-5 5 -10 15c-18 38 3 46 14 52c23 13 56 15 86 15c63 0 111 -28 112 -83c2 -50 -46 -84 -90 -122l-29 -25v-4c31 0 62 1 94 3c17 2 25 -7 24 -21v-28c0 -14 -4 -17 -26 -17h-170
c-18 0 -27 6 -27 21c0 12 -1 25 -1 37z" />
    <glyph glyph-name="uni2083" unicode="&#x2083;" horiz-adv-x="311" 
d="M37 -4c5 14 13 25 13 25s46 -24 101 -24c36 0 53 15 53 36c0 27 -35 30 -58 31h-38c-10 0 -11 6 -11 13v31c0 6 2 11 9 11h37c31 0 48 14 48 33c0 17 -9 29 -43 29c-52 0 -90 -21 -90 -21s-6 6 -11 15c-15 29 0 41 9 46c7 4 44 19 94 19c85 0 116 -32 116 -84
c0 -46 -46 -61 -46 -61v-3s59 -2 59 -65c0 -50 -52 -88 -128 -88c-45 0 -85 11 -93 14c-22 7 -29 19 -21 43z" />
    <glyph glyph-name="uni2084" unicode="&#x2084;" horiz-adv-x="336" 
d="M67 28c-19 0 -29 14 -29 37c0 18 9 131 9 143c0 18 2 27 24 27h26c20 0 26 -10 25 -22c-1 -18 -10 -107 -10 -129c23 0 46 1 69 1c2 26 -2 53 3 79c2 9 7 16 24 16h25c21 0 28 -11 27 -27c-1 -7 -3 -53 -3 -66h34c10 0 19 -4 19 -16v-24c0 -13 -5 -16 -18 -15h-36v-50
c1 -18 9 -39 -26 -39h-25c-9 0 -14 2 -18 6c-8 7 -8 20 -8 31v50c-22 0 -80 -2 -112 -2z" />
    <glyph glyph-name="uni2085" unicode="&#x2085;" horiz-adv-x="316" 
d="M38 1c4 8 12 14 14 15c0 0 55 -19 101 -19c35 0 54 18 54 41s-22 34 -84 34c-9 0 -18 -1 -49 -1c-13 0 -20 5 -18 22c1 10 1 69 2 91c0 32 -3 51 40 51h137c20 0 22 -8 22 -22v-25c0 -18 -15 -18 -42 -18h-85c0 -11 -1 -21 -1 -43c92 3 154 -15 154 -89
c0 -57 -47 -99 -130 -99c-96 0 -135 22 -115 62z" />
    <glyph glyph-name="uni2086" unicode="&#x2086;" horiz-adv-x="321" 
d="M31 67c0 86 45 173 158 173c45 0 71 -11 80 -17c17 -10 6 -29 2 -38c-6 -12 -15 -19 -15 -19s-28 15 -74 15c-68 0 -83 -62 -83 -71l5 -2s30 19 75 19c59 0 109 -34 109 -87c0 -55 -50 -101 -126 -101c-79 0 -131 48 -131 128zM107 42c0 -33 25 -45 55 -45
c36 0 51 18 51 43c0 26 -23 43 -55 44c-43 1 -51 -26 -51 -42z" />
    <glyph glyph-name="uni2087" unicode="&#x2087;" horiz-adv-x="287" 
d="M33 -38c0 58 103 161 141 207v2c-13 -1 -56 -1 -117 -1c-18 0 -21 7 -21 21c0 9 1 19 1 28c0 13 5 16 25 16h177c14 0 22 -9 22 -21s-1 -23 -1 -35c-51 -62 -110 -128 -142 -210c-6 -16 -11 -26 -29 -26h-31c-19 0 -25 3 -25 19z" />
    <glyph glyph-name="uni2088" unicode="&#x2088;" horiz-adv-x="326" 
d="M31 24c1 60 63 73 63 73v2s-45 13 -45 61c0 45 36 80 116 80c78 0 116 -31 116 -80c0 -45 -47 -61 -47 -61v-2s61 -13 61 -73c0 -50 -53 -85 -130 -85c-82 0 -134 35 -134 85zM126 152c0 -17 12 -33 39 -33c26 0 39 16 39 33c0 14 -11 29 -39 29c-27 0 -39 -15 -39 -29z
M109 35c0 -23 18 -38 56 -38c36 0 54 17 54 40c0 18 -16 38 -54 38c-42 0 -56 -22 -56 -40z" />
    <glyph glyph-name="uni2089" unicode="&#x2089;" horiz-adv-x="319" 
d="M54 -6c6 17 14 23 14 23s24 -18 76 -18c59 0 75 62 75 73h-4s-25 -22 -69 -22c-73 0 -113 32 -113 91c0 56 41 99 124 99c79 0 133 -56 133 -152c0 -69 -49 -149 -149 -149c-53 0 -76 13 -82 18c-11 10 -9 26 -5 37zM108 138c0 -27 20 -42 48 -42c30 0 53 16 52 43
c-1 23 -17 42 -52 42c-31 0 -48 -18 -48 -43z" />
    <glyph glyph-name="ycircumflex" unicode="&#x177;" horiz-adv-x="552" 
d="M161 616c-17 -11 -22 -3 -32 10l-13 17c-11 15 -7 27 7 37c38 29 96 66 136 100c8 7 13 7 16 7c7 0 12 -3 17 -7l136 -100c14 -10 18 -22 7 -37l-13 -17c-10 -13 -13 -21 -32 -10l-115 70c-33 -21 -97 -59 -114 -70zM59 -70c4 16 16 19 32 12c24 -11 48 -16 78 -16
c53 0 78 35 103 123h-29c-29 0 -39 8 -48 33c-22 59 -151 376 -167 417c-9 23 -15 51 22 51h32c38 0 42 -15 51 -38c14 -38 122 -320 151 -406h6l116 405c6 23 12 39 48 39h43c30 0 29 -22 22 -49c-17 -63 -110 -351 -143 -460c-36 -119 -87 -201 -199 -201
c-44 0 -87 8 -109 19c-19 9 -22 16 -17 37z" />
    <glyph glyph-name="wdieresis" unicode="&#x1e85;" horiz-adv-x="912" 
d="M586 619c-36 0 -62 6 -63 60c-2 55 25 61 59 61s61 -6 63 -61c1 -54 -26 -60 -59 -60zM322 619c-36 0 -62 6 -63 60c-2 55 25 61 59 61s61 -6 63 -61c1 -54 -26 -60 -59 -60zM163 49l-135 449c-7 24 -14 52 21 52h35c35 0 44 -27 48 -39c15 -48 106 -384 119 -435h5
c15 53 102 394 113 434c7 24 15 40 48 40h73c31 0 42 -28 46 -40l111 -433h5c16 53 100 361 120 433c6 23 12 40 45 40h45c26 0 24 -30 17 -50c-24 -71 -120 -384 -139 -444c-7 -23 -19 -56 -62 -56h-57c-23 0 -47 9 -54 36c-11 46 -95 349 -113 436h-6
c-18 -88 -100 -390 -114 -437c-7 -27 -29 -35 -52 -35h-59c-39 0 -55 30 -60 49z" />
    <glyph glyph-name="wgrave" unicode="&#x1e81;" horiz-adv-x="912" 
d="M334 691c-16 7 -16 17 -9 34l16 37c7 16 13 19 32 8c42 -23 158 -81 196 -100c15 -8 16 -20 7 -37l-9 -17c-8 -15 -12 -20 -32 -10zM163 49l-135 449c-7 24 -14 52 21 52h35c35 0 44 -27 48 -39c15 -48 106 -384 119 -435h5c15 53 102 394 113 434c7 24 15 40 48 40h73
c31 0 42 -28 46 -40l111 -433h5c16 53 100 361 120 433c6 23 12 40 45 40h45c26 0 24 -30 17 -50c-24 -71 -120 -384 -139 -444c-7 -23 -19 -56 -62 -56h-57c-23 0 -47 9 -54 36c-11 46 -95 349 -113 436h-6c-18 -88 -100 -390 -114 -437c-7 -27 -29 -35 -52 -35h-59
c-39 0 -55 30 -60 49z" />
    <glyph glyph-name="wcircumflex" unicode="&#x175;" horiz-adv-x="912" 
d="M305 626l-13 17c-11 15 -7 27 7 37c38 29 96 66 136 100c8 7 13 7 16 7c7 0 12 -3 17 -7l136 -100c14 -10 18 -22 7 -37l-13 -17c-10 -13 -13 -21 -32 -10l-115 70c-33 -21 -97 -59 -114 -70s-22 -3 -32 10zM163 49l-135 449c-7 24 -14 52 21 52h35c35 0 44 -27 48 -39
c15 -48 106 -384 119 -435h5c15 53 102 394 113 434c7 24 15 40 48 40h73c31 0 42 -28 46 -40l111 -433h5c16 53 100 361 120 433c6 23 12 40 45 40h45c26 0 24 -30 17 -50c-24 -71 -120 -384 -139 -444c-7 -23 -19 -56 -62 -56h-57c-23 0 -47 9 -54 36
c-11 46 -95 349 -113 436h-6c-18 -88 -100 -390 -114 -437c-7 -27 -29 -35 -52 -35h-59c-39 0 -55 30 -60 49z" />
    <glyph glyph-name="wacute" unicode="&#x1e83;" horiz-adv-x="912" 
d="M336 616l-9 17c-9 17 -8 29 7 37c38 19 154 77 196 100c19 11 25 8 32 -8l16 -37c7 -17 7 -27 -9 -34l-201 -85c-20 -10 -24 -5 -32 10zM163 49l-135 449c-7 24 -14 52 21 52h35c35 0 44 -27 48 -39c15 -48 106 -384 119 -435h5c15 53 102 394 113 434c7 24 15 40 48 40
h73c31 0 42 -28 46 -40l111 -433h5c16 53 100 361 120 433c6 23 12 40 45 40h45c26 0 24 -30 17 -50c-24 -71 -120 -384 -139 -444c-7 -23 -19 -56 -62 -56h-57c-23 0 -47 9 -54 36c-11 46 -95 349 -113 436h-6c-18 -88 -100 -390 -114 -437c-7 -27 -29 -35 -52 -35h-59
c-39 0 -55 30 -60 49z" />
    <glyph glyph-name="uogonek" unicode="&#x173;" horiz-adv-x="627" 
d="M73 210c0 81 6 167 6 296c0 28 -6 54 47 54c56 0 64 -25 64 -52c0 -94 -6 -193 -6 -299c0 -73 30 -132 99 -132c89 0 137 88 154 129c1 72 2 155 2 210c0 33 0 58 -1 67c-3 39 -2 67 33 67h41c37 0 37 -34 36 -60c-1 -19 -2 -49 -2 -85c-2 -126 -2 -326 -2 -361
c0 -26 15 -54 -46 -54c-11 0 -19 1 -26 4c-17 -9 -23 -24 -23 -42c0 -29 23 -45 57 -45c35 0 60 12 60 12s16 -12 16 -37c0 -26 -35 -42 -91 -42c-78 0 -121 32 -121 92c0 42 26 71 72 85c-7 13 -8 28 -8 43c0 5 1 15 1 36h-7c-7 -22 -51 -106 -166 -106
c-141 0 -189 99 -189 220z" />
    <glyph glyph-name="ubreve" unicode="&#x16d;" horiz-adv-x="628" 
d="M318 624c-104 0 -148 60 -148 129c0 12 8 27 26 27h36c15 0 24 -10 24 -24c0 -26 14 -54 62 -54c45 0 61 28 61 54c0 13 9 23 27 23h29c16 0 30 -6 30 -26c0 -69 -54 -129 -147 -129zM73 210c0 81 6 167 6 296c0 28 -6 54 47 54c56 0 64 -25 64 -52
c0 -94 -6 -193 -6 -299c0 -73 30 -132 99 -132c89 0 137 88 154 129c1 72 2 155 2 210c0 33 0 58 -1 67c-3 39 -2 67 33 67h41c37 0 37 -34 36 -60c-1 -19 -2 -49 -2 -85c-2 -126 -2 -326 -2 -361c0 -26 15 -54 -46 -54c-56 0 -64 38 -64 70c0 5 1 15 1 36h-7
c-7 -22 -51 -106 -166 -106c-141 0 -189 99 -189 220z" />
    <glyph glyph-name="utilde" unicode="&#x169;" horiz-adv-x="628" 
d="M178 631l-15 13c-12 11 -16 18 -8 35c16 33 51 79 97 79c61 0 91 -64 120 -64c24 0 32 14 39 25c8 11 22 13 33 1l19 -20c12 -13 12 -18 2 -37c-12 -22 -43 -57 -93 -57c-58 0 -87 62 -120 62c-20 0 -34 -23 -42 -39s-19 -9 -32 2zM73 210c0 81 6 167 6 296
c0 28 -6 54 47 54c56 0 64 -25 64 -52c0 -94 -6 -193 -6 -299c0 -73 30 -132 99 -132c89 0 137 88 154 129c1 72 2 155 2 210c0 33 0 58 -1 67c-3 39 -2 67 33 67h41c37 0 37 -34 36 -60c-1 -19 -2 -49 -2 -85c-2 -126 -2 -326 -2 -361c0 -26 15 -54 -46 -54
c-56 0 -64 38 -64 70c0 5 1 15 1 36h-7c-7 -22 -51 -106 -166 -106c-141 0 -189 99 -189 220z" />
    <glyph glyph-name="uhungarumlaut" unicode="&#x171;" horiz-adv-x="628" 
d="M403 611l-14 12c-15 13 -19 25 -7 38l118 131c15 16 21 16 33 3l28 -29c13 -14 16 -23 3 -35l-128 -119c-15 -16 -20 -12 -33 -1zM198 611l-14 12c-15 13 -19 25 -7 38l118 131c15 16 21 16 33 3l28 -29c13 -14 16 -23 3 -35l-128 -119c-15 -16 -20 -12 -33 -1zM73 210
c0 81 6 167 6 296c0 28 -6 54 47 54c56 0 64 -25 64 -52c0 -94 -6 -193 -6 -299c0 -73 30 -132 99 -132c89 0 137 88 154 129c1 72 2 155 2 210c0 33 0 58 -1 67c-3 39 -2 67 33 67h41c37 0 37 -34 36 -60c-1 -19 -2 -49 -2 -85c-2 -126 -2 -326 -2 -361
c0 -26 15 -54 -46 -54c-56 0 -64 38 -64 70c0 5 1 15 1 36h-7c-7 -22 -51 -106 -166 -106c-141 0 -189 99 -189 220z" />
    <glyph glyph-name="uring" unicode="&#x16f;" horiz-adv-x="628" 
d="M324 622c-104 0 -148 52 -148 121c0 68 50 122 148 122s147 -53 147 -122s-54 -121 -147 -121zM324 684c55 0 68 31 68 60c0 28 -13 58 -68 58c-59 0 -69 -30 -69 -58c0 -29 10 -60 69 -60zM73 210c0 81 6 167 6 296c0 28 -6 54 47 54c56 0 64 -25 64 -52
c0 -94 -6 -193 -6 -299c0 -73 30 -132 99 -132c89 0 137 88 154 129c1 72 2 155 2 210c0 33 0 58 -1 67c-3 39 -2 67 33 67h41c37 0 37 -34 36 -60c-1 -19 -2 -49 -2 -85c-2 -126 -2 -326 -2 -361c0 -26 15 -54 -46 -54c-56 0 -64 38 -64 70c0 5 1 15 1 36h-7
c-7 -22 -51 -106 -166 -106c-141 0 -189 99 -189 220z" />
    <glyph glyph-name="umacron" unicode="&#x16b;" horiz-adv-x="628" 
d="M183 641c-20 0 -27 7 -27 27v26c0 22 9 24 33 24c31 0 209 -5 272 0c24 2 27 -4 27 -28v-24c0 -19 -6 -24 -31 -24c-43 0 -274 -1 -274 -1zM73 210c0 81 6 167 6 296c0 28 -6 54 47 54c56 0 64 -25 64 -52c0 -94 -6 -193 -6 -299c0 -73 30 -132 99 -132
c89 0 137 88 154 129c1 72 2 155 2 210c0 33 0 58 -1 67c-3 39 -2 67 33 67h41c37 0 37 -34 36 -60c-1 -19 -2 -49 -2 -85c-2 -126 -2 -326 -2 -361c0 -26 15 -54 -46 -54c-56 0 -64 38 -64 70c0 5 1 15 1 36h-7c-7 -22 -51 -106 -166 -106c-141 0 -189 99 -189 220z" />
    <glyph glyph-name="tbar" unicode="&#x167;" horiz-adv-x="448" 
d="M115 146c0 23 1 67 2 115h-31c-20 0 -27 7 -27 26v25c0 22 9 24 32 24h27c1 60 2 113 2 125h-59c-19 0 -24 4 -24 20c0 10 -1 23 -1 36c0 7 4 19 20 19c84 0 99 63 101 97c1 15 5 25 26 25s52 4 50 -28c-1 -25 -2 -57 -2 -80c20 -2 103 -2 147 0c18 1 24 -8 24 -19v-49
c0 -10 -3 -19 -21 -19c-46 2 -153 0 -153 0c-2 -35 -3 -80 -4 -127h132c23 0 26 -4 26 -27v-24c0 -18 -6 -23 -30 -23l-128 -1v-108c0 -59 15 -72 56 -72c28 0 53 10 71 16c21 8 31 -2 33 -13l6 -34c3 -17 1 -27 -15 -35c-29 -15 -78 -25 -118 -25c-101 0 -144 46 -142 156z
" />
    <glyph glyph-name="tcommaaccent" unicode="&#x163;" horiz-adv-x="448" 
d="M115 146c1 65 5 290 5 315h-59c-19 0 -24 4 -24 20c0 10 -1 23 -1 36c0 7 4 19 20 19c84 0 99 63 101 97c1 15 5 25 26 25s52 4 50 -28c-1 -25 -2 -57 -2 -80c20 -2 103 -2 147 0c18 1 24 -8 24 -19v-49c0 -10 -3 -19 -21 -19c-46 2 -153 0 -153 0
c-4 -81 -4 -216 -4 -310c0 -59 15 -72 56 -72c28 0 53 10 71 16c21 8 31 -2 33 -13l6 -34c3 -17 1 -27 -15 -35c-29 -15 -78 -25 -118 -25c-101 0 -144 46 -142 156zM153 -136c0 48 25 72 77 72c50 0 88 -24 88 -92c0 -88 -60 -141 -110 -141c-61 0 -47 53 -47 53
s65 3 79 52c-56 -9 -87 23 -87 56z" />
    <glyph glyph-name="tcaron" unicode="&#x165;" horiz-adv-x="613" 
d="M496 457c-61 0 -47 53 -47 53s65 3 79 52c-56 -9 -87 23 -87 56c0 48 25 72 77 72c50 0 88 -24 88 -92c0 -88 -60 -141 -110 -141zM115 146c1 65 5 290 5 315h-59c-19 0 -24 4 -24 20c0 10 -1 23 -1 36c0 7 4 19 20 19c84 0 99 63 101 97c1 15 5 25 26 25s52 4 50 -28
c-1 -25 -2 -57 -2 -80c20 -2 103 -2 147 0c18 1 24 -8 24 -19v-49c0 -10 -3 -19 -21 -19c-46 2 -153 0 -153 0c-4 -81 -4 -216 -4 -310c0 -59 15 -72 56 -72c28 0 53 10 71 16c21 8 31 -2 33 -13l6 -34c3 -17 1 -27 -15 -35c-29 -15 -78 -25 -118 -25
c-101 0 -144 46 -142 156z" />
    <glyph glyph-name="scommaaccent" unicode="&#x219;" horiz-adv-x="532" 
d="M67 63c-2 30 15 57 22 61c0 0 61 -48 153 -48c60 0 123 18 123 75c0 39 -39 59 -89 75l-83 27c-94 31 -133 70 -133 150c0 94 76 157 208 157c136 0 171 -41 175 -61c6 -26 -12 -57 -25 -69c0 0 -58 43 -149 43c-37 0 -104 -8 -104 -69c0 -32 22 -50 67 -64l84 -26
c101 -32 152 -69 152 -154c0 -99 -76 -170 -226 -170c-130 0 -173 40 -175 73zM186 -136c0 48 25 72 77 72c50 0 88 -24 88 -92c0 -88 -60 -141 -110 -141c-61 0 -47 53 -47 53s65 3 79 52c-56 -9 -87 23 -87 56z" />
    <glyph glyph-name="scedilla" unicode="&#x15f;" horiz-adv-x="532" 
d="M67 63c-2 30 15 57 22 61c0 0 61 -48 153 -48c60 0 123 18 123 75c0 39 -39 59 -89 75l-83 27c-94 31 -133 70 -133 150c0 94 76 157 208 157c136 0 171 -41 175 -61c6 -26 -12 -57 -25 -69c0 0 -58 43 -149 43c-37 0 -104 -8 -104 -69c0 -32 22 -50 67 -64l84 -26
c101 -32 152 -69 152 -154c0 -92 -65 -159 -193 -169c-4 -11 -9 -25 -7 -25c41 -3 70 -17 70 -58c0 -34 -41 -68 -104 -68c-37 0 -55 13 -55 35c0 20 13 31 13 31s17 -9 39 -9c26 0 44 7 44 23c0 17 -31 24 -51 24c-9 0 -9 7 -7 14s8 21 12 32c-120 3 -160 41 -162 73z" />
    <glyph glyph-name="scircumflex" unicode="&#x15d;" horiz-adv-x="532" 
d="M148 616c-17 -11 -22 -3 -32 10l-13 17c-11 15 -7 27 7 37c38 29 96 66 136 100c8 7 13 7 16 7c7 0 12 -3 17 -7l136 -100c14 -10 18 -22 7 -37l-13 -17c-10 -13 -13 -21 -32 -10l-115 70c-33 -21 -97 -59 -114 -70zM67 63c-2 30 15 57 22 61c0 0 61 -48 153 -48
c60 0 123 18 123 75c0 39 -39 59 -89 75l-83 27c-94 31 -133 70 -133 150c0 94 76 157 208 157c136 0 171 -41 175 -61c6 -26 -12 -57 -25 -69c0 0 -58 43 -149 43c-37 0 -104 -8 -104 -69c0 -32 22 -50 67 -64l84 -26c101 -32 152 -69 152 -154c0 -99 -76 -170 -226 -170
c-130 0 -173 40 -175 73z" />
    <glyph glyph-name="sacute" unicode="&#x15b;" horiz-adv-x="532" 
d="M178 606c-20 -10 -24 -5 -32 10l-9 17c-9 17 -8 29 7 37c38 19 154 77 196 100c19 11 25 8 32 -8l16 -37c7 -17 7 -27 -9 -34zM67 63c-2 30 15 57 22 61c0 0 61 -48 153 -48c60 0 123 18 123 75c0 39 -39 59 -89 75l-83 27c-94 31 -133 70 -133 150c0 94 76 157 208 157
c136 0 171 -41 175 -61c6 -26 -12 -57 -25 -69c0 0 -58 43 -149 43c-37 0 -104 -8 -104 -69c0 -32 22 -50 67 -64l84 -26c101 -32 152 -69 152 -154c0 -99 -76 -170 -226 -170c-130 0 -173 40 -175 73z" />
    <glyph glyph-name="rcommaaccent" unicode="&#x157;" horiz-adv-x="476" 
d="M79 60c0 13 1 38 1 69c0 93 1 245 1 321v46c0 33 -8 64 45 64c51 0 59 -27 59 -106h7c23 74 85 106 140 106c90 0 114 -60 114 -126c0 -54 -17 -70 -68 -70c-42 0 -34 12 -34 49c0 29 -8 60 -47 60c-61 0 -103 -102 -109 -159c-3 -81 -3 -161 0 -247
c1 -28 14 -67 -34 -67h-38c-37 0 -37 34 -37 60zM130 -64c50 0 88 -24 88 -92c0 -88 -60 -141 -110 -141c-61 0 -47 53 -47 53s65 3 79 52c-56 -9 -87 23 -87 56c0 48 25 72 77 72z" />
    <glyph glyph-name="rcaron" unicode="&#x159;" horiz-adv-x="476" 
d="M240 605c-7 0 -12 3 -17 7l-136 100c-14 10 -18 22 -7 37l13 17c10 13 13 21 32 10l115 -70c33 21 97 59 114 70s22 3 32 -10l13 -17c11 -15 7 -27 -7 -37c-38 -29 -96 -66 -136 -100c-8 -7 -13 -7 -16 -7zM79 60c0 13 1 38 1 69c0 93 1 245 1 321v46c0 33 -8 64 45 64
c51 0 59 -27 59 -106h7c23 74 85 106 140 106c90 0 114 -60 114 -126c0 -54 -17 -70 -68 -70c-42 0 -34 12 -34 49c0 29 -8 60 -47 60c-61 0 -103 -102 -109 -159c-3 -81 -3 -161 0 -247c1 -28 14 -67 -34 -67h-38c-37 0 -37 34 -37 60z" />
    <glyph glyph-name="racute" unicode="&#x155;" horiz-adv-x="476" 
d="M165 606c-20 -10 -24 -5 -32 10l-9 17c-9 17 -8 29 7 37c38 19 154 77 196 100c19 11 25 8 32 -8l16 -37c7 -17 7 -27 -9 -34zM79 60c0 13 1 38 1 69c0 93 1 245 1 321v46c0 33 -8 64 45 64c51 0 59 -27 59 -106h7c23 74 85 106 140 106c90 0 114 -60 114 -126
c0 -54 -17 -70 -68 -70c-42 0 -34 12 -34 49c0 29 -8 60 -47 60c-61 0 -103 -102 -109 -159c-3 -81 -3 -161 0 -247c1 -28 14 -67 -34 -67h-38c-37 0 -37 34 -37 60z" />
    <glyph glyph-name="oslashacute" unicode="&#x1ff;" horiz-adv-x="601" 
d="M192 616l-9 17c-9 17 -8 29 7 37c38 19 154 77 196 100c19 11 25 8 32 -8l16 -37c7 -17 7 -27 -9 -34l-201 -85c-20 -10 -24 -5 -32 10zM85 32l27 40c-42 51 -62 124 -61 206c2 157 83 282 248 282c38 0 72 -7 101 -19c9 15 18 26 22 33c10 17 20 26 41 15l19 -10
c18 -9 25 -18 10 -40l-27 -38c57 -51 86 -131 85 -223c-2 -164 -85 -289 -250 -289c-51 0 -94 11 -130 32l-14 -25c-16 -29 -26 -26 -39 -18l-22 12c-20 11 -27 17 -10 42zM299 76c115 0 143 96 143 202c0 105 -35 195 -142 195c-115 0 -141 -91 -141 -195
c0 -106 26 -202 140 -202z" />
    <glyph glyph-name="obreve" unicode="&#x14f;" horiz-adv-x="601" 
d="M299 624c-104 0 -148 60 -148 129c0 12 8 27 26 27h36c15 0 24 -10 24 -24c0 -26 14 -54 62 -54c45 0 61 28 61 54c0 13 9 23 27 23h29c16 0 30 -6 30 -26c0 -69 -54 -129 -147 -129zM51 278c2 157 83 282 248 282c166 0 253 -124 251 -282c-2 -164 -85 -289 -250 -289
c-166 0 -251 124 -249 289zM299 76c115 0 143 96 143 202c0 105 -35 195 -142 195c-115 0 -141 -91 -141 -195c0 -106 26 -202 140 -202z" />
    <glyph glyph-name="ohungarumlaut" unicode="&#x151;" horiz-adv-x="601" 
d="M379 611l-14 12c-15 13 -19 25 -7 38l118 131c15 16 21 16 33 3l28 -29c13 -14 16 -23 3 -35l-128 -119c-15 -16 -20 -12 -33 -1zM174 611l-14 12c-15 13 -19 25 -7 38l118 131c15 16 21 16 33 3l28 -29c13 -14 16 -23 3 -35l-128 -119c-15 -16 -20 -12 -33 -1zM51 278
c2 157 83 282 248 282c166 0 253 -124 251 -282c-2 -164 -85 -289 -250 -289c-166 0 -251 124 -249 289zM299 76c115 0 143 96 143 202c0 105 -35 195 -142 195c-115 0 -141 -91 -141 -195c0 -106 26 -202 140 -202z" />
    <glyph glyph-name="omacron" unicode="&#x14d;" horiz-adv-x="601" 
d="M159 641c-20 0 -27 7 -27 27v26c0 22 9 24 33 24c31 0 209 -5 272 0c24 2 27 -4 27 -28v-24c0 -19 -6 -24 -31 -24c-43 0 -274 -1 -274 -1zM51 278c2 157 83 282 248 282c166 0 253 -124 251 -282c-2 -164 -85 -289 -250 -289c-166 0 -251 124 -249 289zM299 76
c115 0 143 96 143 202c0 105 -35 195 -142 195c-115 0 -141 -91 -141 -195c0 -106 26 -202 140 -202z" />
    <glyph glyph-name="eng" unicode="&#x14b;" horiz-adv-x="639" 
d="M82 70c0 132 2 265 2 436c0 26 -15 54 46 54c56 0 64 -38 64 -70c0 -5 -1 -16 -1 -36h7c19 46 69 106 171 106c131 0 196 -112 194 -220v-351c0 -73 -27 -149 -143 -149c-45 0 -67 6 -82 10c0 0 -12 79 40 79c17 0 23 -3 41 -3c23 0 33 14 34 63c0 116 -1 219 -1 352
c0 72 -35 132 -104 132c-91 0 -142 -92 -159 -132c-2 -82 -6 -194 -1 -274c2 -50 11 -67 -36 -67h-45c-40 0 -27 51 -27 70z" />
    <glyph glyph-name="napostrophe" unicode="&#x149;" horiz-adv-x="809" 
d="M81 371c-64 0 -50 52 -50 52s83 26 83 108c-49 -4 -91 15 -91 78c0 56 36 81 81 81c52 0 92 -36 92 -110c0 -150 -63 -209 -115 -209zM251 60c1 19 2 49 2 85c2 126 2 326 2 361c0 26 -15 54 46 54c56 0 64 -38 64 -70c0 -5 -1 -16 -1 -36h7c8 21 52 106 171 106
c141 0 194 -99 194 -220c0 -81 -6 -167 -6 -296c0 -28 6 -54 -47 -54c-56 0 -64 25 -64 52c0 94 6 193 6 299c0 73 -35 132 -104 132c-91 0 -142 -92 -159 -132c-1 -71 -2 -153 -2 -207c0 -33 0 -58 1 -67c3 -39 2 -67 -33 -67h-41c-37 0 -37 34 -36 60z" />
    <glyph glyph-name="ncommaaccent" unicode="&#x146;" horiz-adv-x="638" 
d="M80 60c1 19 2 49 2 85c2 126 2 326 2 361c0 26 -15 54 46 54c56 0 64 -38 64 -70c0 -5 -1 -16 -1 -36h7c8 21 52 106 171 106c141 0 194 -99 194 -220c0 -81 -6 -167 -6 -296c0 -28 6 -54 -47 -54c-56 0 -64 25 -64 52c0 94 6 193 6 299c0 73 -35 132 -104 132
c-91 0 -142 -92 -159 -132c-1 -71 -2 -153 -2 -207c0 -33 0 -58 1 -67c3 -39 2 -67 -33 -67h-41c-37 0 -37 34 -36 60zM247 -136c0 48 25 72 77 72c50 0 88 -24 88 -92c0 -88 -60 -141 -110 -141c-61 0 -47 53 -47 53s65 3 79 52c-56 -9 -87 23 -87 56z" />
    <glyph glyph-name="ncaron" unicode="&#x148;" horiz-adv-x="638" 
d="M290 612l-136 100c-14 10 -18 22 -7 37l13 17c10 13 13 21 32 10l115 -70c33 21 97 59 114 70s22 3 32 -10l13 -17c11 -15 7 -27 -7 -37c-38 -29 -96 -66 -136 -100c-8 -7 -13 -7 -16 -7c-7 0 -12 3 -17 7zM80 60c1 19 2 49 2 85c2 126 2 326 2 361c0 26 -15 54 46 54
c56 0 64 -38 64 -70c0 -5 -1 -16 -1 -36h7c8 21 52 106 171 106c141 0 194 -99 194 -220c0 -81 -6 -167 -6 -296c0 -28 6 -54 -47 -54c-56 0 -64 25 -64 52c0 94 6 193 6 299c0 73 -35 132 -104 132c-91 0 -142 -92 -159 -132c-1 -71 -2 -153 -2 -207c0 -33 0 -58 1 -67
c3 -39 2 -67 -33 -67h-41c-37 0 -37 34 -36 60z" />
    <glyph glyph-name="nacute" unicode="&#x144;" horiz-adv-x="638" 
d="M208 616l-9 17c-9 17 -8 29 7 37c38 19 154 77 196 100c19 11 25 8 32 -8l16 -37c7 -17 7 -27 -9 -34l-201 -85c-20 -10 -24 -5 -32 10zM80 60c1 19 2 49 2 85c2 126 2 326 2 361c0 26 -15 54 46 54c56 0 64 -38 64 -70c0 -5 -1 -16 -1 -36h7c8 21 52 106 171 106
c141 0 194 -99 194 -220c0 -81 -6 -167 -6 -296c0 -28 6 -54 -47 -54c-56 0 -64 25 -64 52c0 94 6 193 6 299c0 73 -35 132 -104 132c-91 0 -142 -92 -159 -132c-1 -71 -2 -153 -2 -207c0 -33 0 -58 1 -67c3 -39 2 -67 -33 -67h-41c-37 0 -37 34 -36 60z" />
    <glyph glyph-name="ldot" unicode="&#x140;" horiz-adv-x="449" 
d="M84 104c0 69 8 510 5 552c-3 40 1 54 47 54c58 0 64 -27 62 -59c-3 -59 -14 -410 -11 -538c1 -39 14 -36 52 -34c14 1 22 -5 23 -16l2 -31c1 -15 -2 -22 -16 -28c-19 -8 -54 -14 -77 -14c-60 0 -87 40 -87 114zM299 377c-2 55 25 61 59 61s61 -6 63 -61
c1 -54 -26 -60 -59 -60c-36 0 -61 6 -63 60z" />
    <glyph glyph-name="notequal" unicode="&#x2260;" 
d="M184 85l33 106h-58c-26 -1 -27 2 -28 25l-1 33c-1 24 9 23 33 22c13 -1 44 -1 78 -1l42 142c-55 -1 -108 -1 -125 -1c-26 -1 -29 2 -29 25v33c0 24 9 23 33 22c20 -1 83 -1 144 -1c17 56 30 100 35 114c6 20 5 28 33 28h15c19 0 26 -10 20 -28l-35 -114c37 0 68 1 74 1
c26 1 31 -2 32 -25l1 -33c0 -21 -10 -23 -33 -22c-10 1 -52 1 -98 1l-43 -142c67 0 133 1 142 1c26 1 32 -2 32 -25v-33c0 -21 -9 -23 -32 -22c-15 1 -93 1 -166 1l-34 -111c-9 -30 -17 -26 -34 -26h-19c-10 0 -21 6 -12 30z" />
    <glyph glyph-name="approxequal" unicode="&#x2248;" 
d="M139 427l-10 21c-8 17 -6 20 6 33c20 21 63 41 92 41c79 0 103 -60 150 -61c18 0 45 13 56 22c17 14 21 7 35 -16l9 -15c12 -20 9 -24 -9 -38c-21 -17 -59 -33 -91 -33c-71 0 -93 62 -150 62c-22 0 -43 -10 -58 -24c-13 -12 -22 -9 -30 8zM139 199l-10 21
c-8 17 -6 20 6 33c20 21 63 41 92 41c79 0 103 -60 150 -61c18 0 45 13 56 22c17 14 21 7 35 -16l9 -15c12 -20 9 -24 -9 -38c-22 -17 -60 -33 -91 -33c-71 0 -93 62 -150 62c-22 0 -43 -10 -58 -24c-13 -12 -22 -9 -30 8z" />
    <glyph glyph-name="lessequal" unicode="&#x2264;" 
d="M132 381c-24 13 -20 15 -20 39v28c0 24 -4 26 20 39c45 25 284 152 301 163c25 16 37 20 46 -2l12 -30c8 -20 3 -25 -21 -38l-264 -143v-7c68 -36 244 -130 264 -140c24 -13 29 -18 21 -38l-12 -30c-9 -22 -21 -18 -46 -2c-17 11 -256 136 -301 161zM107 83v25
c0 29 11 28 39 26c52 -3 299 0 319 1c31 1 38 -2 38 -31v-25c0 -25 -11 -27 -39 -26c-30 2 -275 0 -323 0c-31 0 -34 2 -34 30z" />
    <glyph glyph-name="greaterequal" unicode="&#x2265;" 
d="M131 222l-12 30c-8 20 -3 25 21 38c20 10 196 104 264 140v7l-264 143c-24 13 -29 18 -21 38l12 30c9 22 21 18 46 2c17 -11 256 -138 301 -163c24 -13 20 -15 20 -39v-28c0 -24 4 -26 -20 -39c-45 -25 -284 -150 -301 -161c-25 -16 -37 -20 -46 2zM107 79v25
c0 29 7 32 38 31c20 -1 267 -4 319 -1c28 2 39 3 39 -26v-25c0 -28 -3 -30 -34 -30c-48 0 -293 2 -323 0c-28 -1 -39 1 -39 26z" />
    <glyph glyph-name="afii61289" unicode="&#x2113;" horiz-adv-x="401" 
d="M66 112c-31 0 -29 36 -27 41c25 0 49 9 73 25c2 135 5 391 7 432c3 74 44 100 100 100c69 0 105 -40 105 -156c0 -127 -49 -268 -118 -356c0 -31 0 -63 1 -85c0 -39 14 -36 51 -34c14 1 29 -5 31 -29c3 -29 -5 -44 -5 -44c-19 -1 -59 -16 -92 -16c-56 0 -81 40 -80 114
v17c-15 -6 -31 -9 -46 -9zM207 287c43 76 72 173 72 266c0 75 -12 94 -34 94c-17 0 -30 -11 -30 -38c-2 -33 -6 -186 -8 -322z" />
    <glyph glyph-name="partialdiff" unicode="&#x2202;" horiz-adv-x="608" 
d="M54 220c0 136 107 207 221 207c113 0 168 -70 168 -70h8c0 82 -56 242 -204 242c-87 0 -141 -36 -141 -36s-14 10 -23 30c-9 19 -18 48 10 65c21 13 72 32 147 32c212 0 309 -193 309 -389c0 -198 -98 -311 -256 -311c-137 0 -239 102 -239 230zM161 220
c0 -76 43 -139 132 -139c76 0 143 45 143 139c0 58 -33 134 -135 133c-75 -1 -140 -46 -140 -133z" />
    <glyph glyph-name="integral" unicode="&#x222b;" horiz-adv-x="418" 
d="M63 -70c17 0 33 -3 51 -3c23 0 43 12 43 61c0 20 1 388 1 572c0 97 32 150 145 150c45 0 71 -7 89 -11c0 0 15 -79 -37 -79c-17 0 -33 3 -51 3c-23 0 -44 -14 -44 -63l5 -571c1 -80 -30 -149 -151 -149c-26 0 -66 5 -88 11c0 0 -15 79 37 79z" />
    <glyph glyph-name="arrowright" unicode="&#x2192;" horiz-adv-x="751" 
d="M57 273c-20 0 -27 7 -27 31v30c0 22 9 24 33 24c0 0 369 -3 516 0l-204 141c-27 19 -38 29 -24 55l14 25c16 28 25 27 54 3c19 -16 224 -172 277 -208c27 -19 24 -22 24 -45v-26c0 -24 3 -27 -24 -46c-53 -36 -259 -192 -278 -208c-29 -24 -38 -25 -54 3l-14 25
c-14 25 -3 36 24 55l208 142c-113 0 -525 -1 -525 -1z" />
    <glyph glyph-name="arrowup" unicode="&#x2191;" horiz-adv-x="753" 
d="M333 33c0 0 2 369 0 516l-141 -204c-19 -27 -29 -38 -55 -24l-25 14c-28 16 -27 25 -3 54c16 19 172 224 208 277c19 27 22 24 45 24h26c24 0 27 3 46 -24c36 -53 192 -259 208 -278c24 -29 25 -38 -3 -54l-25 -14c-25 -14 -36 -3 -55 24l-142 208c0 -113 1 -525 1 -525
c0 -20 -7 -27 -31 -27h-30c-22 0 -24 9 -24 33z" />
    <glyph glyph-name="arrowdown" unicode="&#x2193;" horiz-adv-x="753" 
d="M317 24c-36 53 -192 258 -208 277c-24 29 -25 38 3 54l25 14c26 14 36 3 55 -24l141 -204c2 146 0 516 0 516c0 24 2 33 24 33h30c24 0 31 -7 31 -27c0 0 -1 -412 -1 -525c56 79 130 189 142 208c19 27 30 38 55 24l25 -14c28 -16 27 -25 3 -54
c-16 -19 -172 -225 -208 -278c-19 -27 -22 -24 -46 -24h-26c-23 0 -26 -3 -45 24z" />
    <glyph glyph-name="ygrave" unicode="&#x1ef3;" horiz-adv-x="552" 
d="M356 606l-201 85c-16 7 -16 17 -9 34l16 37c7 16 13 19 32 8c42 -23 158 -81 196 -100c15 -8 16 -20 7 -37l-9 -17c-8 -15 -12 -20 -32 -10zM59 -70c4 16 16 19 32 12c24 -11 48 -16 78 -16c53 0 78 35 103 123h-29c-29 0 -39 8 -48 33c-22 59 -151 376 -167 417
c-9 23 -15 51 22 51h32c38 0 42 -15 51 -38c14 -38 122 -320 151 -406h6l116 405c6 23 12 39 48 39h43c30 0 29 -22 22 -49c-17 -63 -110 -351 -143 -460c-36 -119 -87 -201 -199 -201c-44 0 -87 8 -109 19c-19 9 -22 16 -17 37z" />
    <glyph glyph-name="zacute" unicode="&#x17a;" horiz-adv-x="492" 
d="M157 606c-20 -10 -24 -5 -32 10l-9 17c-9 17 -8 29 7 37c38 19 154 77 196 100c19 11 25 8 32 -8l16 -37c7 -17 7 -27 -9 -34zM42 37v40c17 23 253 347 274 383c-16 2 -229 -2 -242 -2c-14 0 -25 4 -25 29v38c0 17 13 25 27 25h327c29 0 37 -13 38 -40v-31
c-17 -21 -241 -330 -277 -385c41 0 230 2 236 3c13 2 32 -1 32 -36v-25c0 -39 -19 -36 -37 -36h-323c-18 0 -30 10 -30 37z" />
    <glyph glyph-name="aringacute" unicode="&#x1fb;" horiz-adv-x="609" 
d="M235 722c-21 -6 -25 0 -29 16l-5 18c-5 18 -3 30 13 35c41 12 124 34 170 49c20 7 35 6 39 -11l9 -39c5 -18 2 -28 -15 -32c0 0 -157 -30 -182 -36zM58 44c20 66 148 438 158 463l6 17c-40 17 -60 44 -60 80c0 55 50 99 148 99s147 -43 147 -99c0 -35 -21 -66 -60 -83
l4 -13c6 -24 134 -419 146 -462c7 -28 0 -46 -27 -46h-32c-37 0 -39 27 -44 41l-31 89h-221c-5 -11 -23 -74 -31 -95c-12 -32 -26 -35 -37 -35h-42c-21 0 -32 19 -24 44zM310 565c55 0 68 20 68 40c0 18 -13 38 -68 38c-59 0 -69 -20 -69 -38c0 -20 10 -40 69 -40zM217 208
h175c-35 112 -76 242 -85 279h-5c-9 -40 -50 -169 -85 -279z" />
    <glyph glyph-name="amacron" unicode="&#x101;" horiz-adv-x="624" 
d="M175 651c-20 0 -27 7 -27 27v26c0 22 9 24 33 24c31 0 209 -5 272 0c24 2 27 -4 27 -28v-24c0 -19 -6 -24 -31 -24c-43 0 -274 -1 -274 -1zM57 35c22 73 159 455 169 485c8 26 24 44 56 44h67c32 0 52 -18 59 -46s141 -432 154 -478c8 -30 -4 -40 -27 -40h-31
c-36 0 -38 25 -43 39l-33 92h-232c-19 -55 -29 -80 -32 -89c-8 -27 -15 -42 -42 -42h-39c-19 0 -33 12 -26 35zM219 208h186c-37 112 -81 243 -90 280h-5c-10 -40 -54 -170 -91 -280z" />
    <glyph glyph-name="abreve" unicode="&#x103;" horiz-adv-x="624" 
d="M314 624c-104 0 -148 60 -148 129c0 12 8 27 26 27h36c15 0 24 -10 24 -24c0 -26 14 -54 62 -54c45 0 61 28 61 54c0 13 9 23 27 23h29c16 0 30 -6 30 -26c0 -69 -54 -129 -147 -129zM57 35c22 73 159 455 169 485c8 26 24 44 56 44h67c32 0 52 -18 59 -46
s141 -432 154 -478c8 -30 -4 -40 -27 -40h-31c-36 0 -38 25 -43 39l-33 92h-232c-19 -55 -29 -80 -32 -89c-8 -27 -15 -42 -42 -42h-39c-19 0 -33 12 -26 35zM219 208h186c-37 112 -81 243 -90 280h-5c-10 -40 -54 -170 -91 -280z" />
    <glyph glyph-name="aogonek" unicode="&#x105;" horiz-adv-x="645" 
d="M57 35c22 73 159 455 169 485c8 26 24 44 56 44h67c32 0 52 -18 59 -46s141 -432 154 -478c8 -30 -4 -40 -27 -40h-24h-2h-5h-1c-37 -2 -50 -22 -50 -48c0 -29 23 -45 57 -45c35 0 60 12 60 12s16 -12 16 -37c0 -26 -35 -42 -91 -42c-78 0 -121 32 -121 92
c0 48 34 79 92 89c-2 6 -3 13 -5 18l-33 92h-232c-19 -55 -29 -80 -32 -89c-8 -27 -15 -42 -42 -42h-39c-19 0 -33 12 -26 35zM219 208h186c-37 112 -81 243 -90 280h-5c-10 -40 -54 -170 -91 -280z" />
    <glyph glyph-name="aeacute" unicode="&#x1fd;" horiz-adv-x="837" 
d="M427 626l-9 17c-9 17 -8 29 7 37c38 19 154 77 196 100c19 11 25 8 32 -8l16 -37c7 -17 7 -27 -9 -34l-201 -85c-20 -10 -24 -5 -32 10zM62 0c-26 0 -19 37 -8 61c31 66 206 384 246 455c13 27 29 48 73 48l353 -1c27 0 34 -15 34 -35v-31c0 -22 -13 -31 -35 -30
c-14 0 -197 1 -239 1l-2 -145h208c13 1 26 -8 26 -27v-31c1 -20 -6 -27 -24 -26c-12 1 -175 1 -213 1c0 -21 1 -128 1 -148l246 1c22 1 33 -10 33 -32v-26c0 -26 -3 -35 -33 -35h-313c-37 0 -37 25 -37 49v82h-176s-29 -54 -42 -86c-10 -26 -11 -45 -44 -45h-54zM241 208
h139c3 86 9 251 9 284h-5c-24 -42 -110 -207 -143 -284z" />
    <glyph glyph-name="cacute" unicode="&#x107;" horiz-adv-x="585" 
d="M200 626l-9 17c-9 17 -8 29 7 37c38 19 154 77 196 100c19 11 25 8 32 -8l16 -37c7 -17 7 -27 -9 -34l-201 -85c-20 -10 -24 -5 -32 10zM66 282c1 167 90 291 271 291c96 0 139 -26 154 -36c14 -8 34 -34 5 -72c-14 -18 -24 -22 -24 -22s-42 40 -131 40
c-117 0 -165 -93 -165 -200c0 -110 57 -202 162 -202c57 0 89 18 110 32c10 8 22 14 34 -5l21 -36c8 -13 13 -23 -1 -34c-23 -18 -76 -46 -164 -46c-182 0 -272 124 -272 290z" />
    <glyph glyph-name="ccaron" unicode="&#x10d;" horiz-adv-x="585" 
d="M310 622l-136 100c-14 10 -18 22 -7 37l13 17c10 13 13 21 32 10l115 -70c33 21 97 59 114 70s22 3 32 -10l13 -17c11 -15 7 -27 -7 -37c-38 -29 -96 -66 -136 -100c-8 -7 -13 -7 -16 -7c-7 0 -12 3 -17 7zM66 282c1 167 90 291 271 291c96 0 139 -26 154 -36
c14 -8 34 -34 5 -72c-14 -18 -24 -22 -24 -22s-42 40 -131 40c-117 0 -165 -93 -165 -200c0 -110 57 -202 162 -202c57 0 89 18 110 32c10 8 22 14 34 -5l21 -36c8 -13 13 -23 -1 -34c-23 -18 -76 -46 -164 -46c-182 0 -272 124 -272 290z" />
    <glyph glyph-name="ccircumflex" unicode="&#x109;" horiz-adv-x="585" 
d="M206 626c-17 -11 -22 -3 -32 10l-13 17c-11 15 -7 27 7 37c38 29 96 66 136 100c8 7 13 7 16 7c7 0 12 -3 17 -7l136 -100c14 -10 18 -22 7 -37l-13 -17c-10 -13 -13 -21 -32 -10l-115 70c-33 -21 -97 -59 -114 -70zM66 282c1 167 90 291 271 291c96 0 139 -26 154 -36
c14 -8 34 -34 5 -72c-14 -18 -24 -22 -24 -22s-42 40 -131 40c-117 0 -165 -93 -165 -200c0 -110 57 -202 162 -202c57 0 89 18 110 32c10 8 22 14 34 -5l21 -36c8 -13 13 -23 -1 -34c-23 -18 -76 -46 -164 -46c-182 0 -272 124 -272 290z" />
    <glyph glyph-name="cdotaccent" unicode="&#x10b;" horiz-adv-x="585" 
d="M339 629c-36 0 -61 6 -63 60c-2 55 25 61 59 61s61 -6 63 -61c1 -54 -26 -60 -59 -60zM66 282c1 167 90 291 271 291c96 0 139 -26 154 -36c14 -8 34 -34 5 -72c-14 -18 -24 -22 -24 -22s-42 40 -131 40c-117 0 -165 -93 -165 -200c0 -110 57 -202 162 -202
c57 0 89 18 110 32c10 8 22 14 34 -5l21 -36c8 -13 13 -23 -1 -34c-23 -18 -76 -46 -164 -46c-182 0 -272 124 -272 290z" />
    <glyph glyph-name="zdotaccent" unicode="&#x17c;" horiz-adv-x="492" 
d="M238 629c-36 0 -61 6 -63 60c-2 55 25 61 59 61s61 -6 63 -61c1 -54 -26 -60 -59 -60zM42 37v40c17 23 253 347 274 383c-16 2 -229 -2 -242 -2c-14 0 -25 4 -25 29v38c0 17 13 25 27 25h327c29 0 37 -13 38 -40v-31c-17 -21 -241 -330 -277 -385c41 0 230 2 236 3
c13 2 32 -1 32 -36v-25c0 -39 -19 -36 -37 -36h-323c-18 0 -30 10 -30 37z" />
    <glyph glyph-name="dcaron" unicode="&#x10f;" horiz-adv-x="637" 
d="M274 622l-136 100c-14 10 -18 22 -7 37l13 17c10 13 13 21 32 10l115 -70c33 21 97 59 114 70s22 3 32 -10l13 -17c11 -15 7 -27 -7 -37c-38 -29 -96 -66 -136 -100c-8 -7 -13 -7 -16 -7c-7 0 -12 3 -17 7zM92 58c3 63 -1 440 -1 442c0 22 -18 64 31 64h148
c220 0 303 -117 299 -285c-5 -160 -75 -279 -297 -279h-146c-36 0 -34 35 -34 58zM199 78h71c177 0 190 110 189 204c-1 106 -26 205 -189 205h-70c-6 -89 -6 -300 -1 -409z" />
    <glyph glyph-name="dcroat" unicode="&#x111;" horiz-adv-x="636" 
d="M91 58c1 24 1 101 1 180h-39c-20 0 -26 6 -26 27v23c0 22 8 24 31 24c3 0 21 -1 33 -1c0 98 -1 188 -1 189c0 22 -18 64 31 64h148c220 0 303 -117 299 -285c-5 -160 -75 -279 -297 -279h-146c-36 0 -34 35 -34 58zM198 78h71c177 0 190 110 189 204
c-1 106 -26 205 -189 205h-70c-3 -41 -4 -108 -5 -178c39 0 86 1 110 3c22 2 25 -2 25 -27v-23c0 -18 -6 -23 -29 -23h-106c1 -61 2 -119 4 -161z" />
    <glyph glyph-name="ecaron" unicode="&#x11b;" horiz-adv-x="547" 
d="M261 622l-136 100c-14 10 -18 22 -7 37l13 17c10 13 13 21 32 10l115 -70c33 21 97 59 114 70s22 3 32 -10l13 -17c11 -15 7 -27 -7 -37c-38 -29 -96 -66 -136 -100c-8 -7 -13 -7 -16 -7c-7 0 -12 3 -17 7zM97 58c2 63 -5 423 -5 442c0 27 -15 64 33 64h314
c28 0 32 -13 32 -35v-30c0 -22 -12 -31 -34 -31h-238v-144c65 0 185 0 205 1c14 1 27 -7 27 -26v-36c0 -21 -7 -24 -25 -24h-206l3 -143c66 0 213 2 235 4c23 2 33 -10 33 -32v-42c0 -21 -5 -26 -33 -26h-305c-37 0 -37 33 -36 58z" />
    <glyph glyph-name="emacron" unicode="&#x113;" horiz-adv-x="547" 
d="M141 651c-20 0 -27 7 -27 27v26c0 22 9 24 33 24c31 0 209 -5 272 0c24 2 27 -4 27 -28v-24c0 -19 -6 -24 -31 -24c-43 0 -274 -1 -274 -1zM97 58c2 63 -5 423 -5 442c0 27 -15 64 33 64h314c28 0 32 -13 32 -35v-30c0 -22 -12 -31 -34 -31h-238v-144c65 0 185 0 205 1
c14 1 27 -7 27 -26v-36c0 -21 -7 -24 -25 -24h-206l3 -143c66 0 213 2 235 4c23 2 33 -10 33 -32v-42c0 -21 -5 -26 -33 -26h-305c-37 0 -37 33 -36 58z" />
    <glyph glyph-name="edotaccent" unicode="&#x117;" horiz-adv-x="547" 
d="M284 629c-36 0 -61 6 -63 60c-2 55 25 61 59 61s61 -6 63 -61c1 -54 -26 -60 -59 -60zM97 58c2 63 -5 423 -5 442c0 27 -15 64 33 64h314c28 0 32 -13 32 -35v-30c0 -22 -12 -31 -34 -31h-238v-144c65 0 185 0 205 1c14 1 27 -7 27 -26v-36c0 -21 -7 -24 -25 -24h-206
l3 -143c66 0 213 2 235 4c23 2 33 -10 33 -32v-42c0 -21 -5 -26 -33 -26h-305c-37 0 -37 33 -36 58z" />
    <glyph glyph-name="ebreve" unicode="&#x115;" horiz-adv-x="547" 
d="M282 624c-104 0 -148 60 -148 129c0 12 8 27 26 27h36c15 0 24 -10 24 -24c0 -26 14 -54 62 -54c45 0 61 28 61 54c0 13 9 23 27 23h29c16 0 30 -6 30 -26c0 -69 -54 -129 -147 -129zM97 58c2 63 -5 423 -5 442c0 27 -15 64 33 64h314c28 0 32 -13 32 -35v-30
c0 -22 -12 -31 -34 -31h-238v-144c65 0 185 0 205 1c14 1 27 -7 27 -26v-36c0 -21 -7 -24 -25 -24h-206l3 -143c66 0 213 2 235 4c23 2 33 -10 33 -32v-42c0 -21 -5 -26 -33 -26h-305c-37 0 -37 33 -36 58z" />
    <glyph glyph-name="eogonek" unicode="&#x119;" horiz-adv-x="546" 
d="M97 58c2 63 -5 423 -5 442c0 27 -15 64 33 64h314c28 0 32 -13 32 -35v-30c0 -22 -12 -31 -34 -31h-238v-144c65 0 185 0 205 1c14 1 27 -7 27 -26v-36c0 -21 -7 -24 -25 -24h-206l3 -143c66 0 213 2 235 4c23 2 33 -10 33 -32v-42c0 -21 -5 -26 -31 -26h-2h-4
c-37 -2 -50 -22 -50 -48c0 -29 23 -45 57 -45c35 0 60 12 60 12s16 -12 16 -37c0 -26 -35 -42 -91 -42c-78 0 -121 32 -121 92c0 29 13 52 36 68h-208c-37 0 -37 33 -36 58z" />
    <glyph glyph-name="gbreve" unicode="&#x11f;" horiz-adv-x="642" 
d="M336 624c-104 0 -148 60 -148 129c0 12 8 27 26 27h36c15 0 24 -10 24 -24c0 -26 14 -54 62 -54c45 0 61 28 61 54c0 13 9 23 27 23h29c16 0 30 -6 30 -26c0 -69 -54 -129 -147 -129zM66 282c1 166 99 291 276 291c106 0 159 -29 176 -41c14 -10 33 -33 4 -71
c-11 -15 -24 -22 -24 -22s-46 44 -154 44c-93 0 -168 -75 -168 -196c0 -137 73 -206 149 -206c151 0 140 156 140 156h-117c-10 0 -14 9 -14 19l-1 51c0 8 8 15 19 15h183c28 0 34 -7 32 -32c0 -28 -5 -208 -2 -249c2 -27 -5 -41 -26 -41h-39c-19 0 -28 10 -28 33
c0 7 2 41 2 52h-8s-26 -93 -156 -93c-148 0 -244 126 -244 290z" />
    <glyph glyph-name="gcommaaccent" unicode="&#x123;" horiz-adv-x="642" 
d="M66 282c1 166 99 291 276 291c106 0 159 -29 176 -41c14 -10 33 -33 4 -71c-11 -15 -24 -22 -24 -22s-46 44 -154 44c-93 0 -168 -75 -168 -196c0 -137 73 -206 149 -206c151 0 140 156 140 156h-117c-10 0 -14 9 -14 19l-1 51c0 8 8 15 19 15h183c28 0 34 -7 32 -32
c0 -28 -5 -208 -2 -249c2 -27 -5 -41 -26 -41h-39c-19 0 -28 10 -28 33c0 7 2 41 2 52h-8s-26 -93 -156 -93c-148 0 -244 126 -244 290zM260 -136c0 48 25 72 77 72c50 0 88 -24 88 -92c0 -88 -60 -141 -110 -141c-61 0 -47 53 -47 53s65 3 79 52c-56 -9 -87 23 -87 56z" />
    <glyph glyph-name="gcircumflex" unicode="&#x11d;" horiz-adv-x="642" 
d="M195 636l-13 17c-11 15 -7 27 7 37c38 29 96 66 136 100c8 7 13 7 16 7c7 0 12 -3 17 -7l136 -100c14 -10 18 -22 7 -37l-13 -17c-10 -13 -13 -21 -32 -10l-115 70c-33 -21 -97 -59 -114 -70s-22 -3 -32 10zM66 282c1 166 99 291 276 291c106 0 159 -29 176 -41
c14 -10 33 -33 4 -71c-11 -15 -24 -22 -24 -22s-46 44 -154 44c-93 0 -168 -75 -168 -196c0 -137 73 -206 149 -206c151 0 140 156 140 156h-117c-10 0 -14 9 -14 19l-1 51c0 8 8 15 19 15h183c28 0 34 -7 32 -32c0 -28 -5 -208 -2 -249c2 -27 -5 -41 -26 -41h-39
c-19 0 -28 10 -28 33c0 7 2 41 2 52h-8s-26 -93 -156 -93c-148 0 -244 126 -244 290z" />
    <glyph glyph-name="gdotaccent" unicode="&#x121;" horiz-adv-x="642" 
d="M338 629c-36 0 -61 6 -63 60c-2 55 25 61 59 61s61 -6 63 -61c1 -54 -26 -60 -59 -60zM66 282c1 166 99 291 276 291c106 0 159 -29 176 -41c14 -10 33 -33 4 -71c-11 -15 -24 -22 -24 -22s-46 44 -154 44c-93 0 -168 -75 -168 -196c0 -137 73 -206 149 -206
c151 0 140 156 140 156h-117c-10 0 -14 9 -14 19l-1 51c0 8 8 15 19 15h183c28 0 34 -7 32 -32c0 -28 -5 -208 -2 -249c2 -27 -5 -41 -26 -41h-39c-19 0 -28 10 -28 33c0 7 2 41 2 52h-8s-26 -93 -156 -93c-148 0 -244 126 -244 290z" />
    <glyph glyph-name="hcircumflex" unicode="&#x125;" horiz-adv-x="684" 
d="M198 636l-13 17c-11 15 -7 27 7 37c38 29 96 66 136 100c8 7 13 7 16 7c7 0 12 -3 17 -7l136 -100c14 -10 18 -22 7 -37l-13 -17c-10 -13 -13 -21 -32 -10l-115 70c-33 -21 -97 -59 -114 -70s-22 -3 -32 10zM90 58c2 63 2 423 1 442c0 27 -13 64 35 64h42
c35 0 36 -32 35 -57c0 -12 -2 -95 -2 -186h280v179c0 27 -14 64 35 64h41c36 0 37 -32 36 -57c-1 -27 -5 -402 -2 -442c1 -27 14 -65 -34 -65h-41c-37 0 -38 33 -37 58c1 24 1 99 1 178h-280c0 -83 1 -156 2 -171c2 -27 14 -65 -35 -65h-40c-37 0 -38 33 -37 58z" />
    <glyph glyph-name="hbar" unicode="&#x127;" horiz-adv-x="687" 
d="M89 58c1 46 2 229 1 343h-26c-18 0 -25 5 -25 25v28c0 21 9 22 32 22h19v24c0 27 -13 64 35 64h42c35 0 36 -32 35 -57c0 -4 0 -16 -1 -32l279 -1v26c0 27 -14 64 35 64h41c36 0 37 -32 36 -57c0 -4 -1 -18 -1 -33h29c22 0 25 -2 25 -26v-26c0 -18 -6 -22 -28 -22h-27
c-1 -122 -2 -308 0 -335c1 -27 14 -65 -34 -65h-41c-37 0 -38 33 -37 58c1 24 1 99 1 178h-280c0 -83 1 -156 2 -171c2 -27 14 -65 -35 -65h-40c-37 0 -38 33 -37 58zM200 321h280v79l-280 1v-80z" />
    <glyph glyph-name="imacron" unicode="&#x12b;" horiz-adv-x="323" 
d="M23 651c-20 0 -27 7 -27 27v26c0 22 9 24 33 24c31 0 209 -5 272 0c24 2 27 -4 27 -28v-24c0 -19 -6 -24 -31 -24c-43 0 -274 -1 -274 -1zM108 58c2 63 -5 366 -5 442c-1 27 -14 64 34 64h41c37 0 38 -32 37 -57c-4 -80 2 -447 4 -442c3 -27 15 -65 -34 -65h-40
c-37 0 -38 33 -37 58z" />
    <glyph glyph-name="ibreve" unicode="&#x12d;" horiz-adv-x="323" 
d="M162 624c-104 0 -148 60 -148 129c0 12 8 27 26 27h36c15 0 24 -10 24 -24c0 -26 14 -54 62 -54c45 0 61 28 61 54c0 13 9 23 27 23h29c16 0 30 -6 30 -26c0 -69 -54 -129 -147 -129zM108 58c2 63 -5 366 -5 442c-1 27 -14 64 34 64h41c37 0 38 -32 37 -57
c-4 -80 2 -447 4 -442c3 -27 15 -65 -34 -65h-40c-37 0 -38 33 -37 58z" />
    <glyph glyph-name="itilde" unicode="&#x129;" horiz-adv-x="323" 
d="M28 641l-15 13c-12 11 -16 18 -8 35c16 33 51 79 97 79c61 0 91 -64 120 -64c24 0 32 14 39 25c8 11 22 13 33 1l19 -20c12 -13 12 -18 2 -37c-12 -22 -43 -57 -93 -57c-58 0 -87 62 -120 62c-20 0 -34 -23 -42 -39s-19 -9 -32 2zM108 58c2 63 -5 366 -5 442
c-1 27 -14 64 34 64h41c37 0 38 -32 37 -57c-4 -80 2 -447 4 -442c3 -27 15 -65 -34 -65h-40c-37 0 -38 33 -37 58z" />
    <glyph glyph-name="iogonek" unicode="&#x12f;" horiz-adv-x="324" 
d="M44 -68c0 41 25 69 68 83c-7 12 -7 29 -6 43c2 63 -5 366 -5 442c-1 27 -14 64 34 64h41c37 0 38 -32 37 -57c-4 -80 2 -447 4 -442c3 -27 15 -65 -34 -65h-4c-41 0 -56 -21 -56 -48c0 -29 23 -45 57 -45c35 0 60 12 60 12s16 -12 16 -37c0 -26 -35 -42 -91 -42
c-78 0 -121 32 -121 92z" />
    <glyph glyph-name="ij" unicode="&#x133;" horiz-adv-x="779" 
d="M355 55c-12 17 -16 24 -4 36l31 32c14 15 24 12 32 3c11 -12 42 -45 90 -45c54 0 81 36 84 99c8 273 1 323 1 341c-1 28 -3 43 33 43h41c37 0 37 -32 37 -57c0 -27 -2 -246 -3 -326c-2 -123 -76 -189 -193 -189c-82 0 -137 49 -149 63zM107 58c2 63 -5 366 -5 442
c-1 27 -14 64 34 64h41c37 0 38 -32 37 -57c-4 -80 2 -447 4 -442c3 -27 15 -65 -34 -65h-40c-37 0 -38 33 -37 58z" />
    <glyph glyph-name="jcircumflex" unicode="&#x135;" horiz-adv-x="468" 
d="M186 636l-13 17c-11 15 -7 27 7 37c38 29 96 66 136 100c8 7 13 7 16 7c7 0 12 -3 17 -7l136 -100c14 -10 18 -22 7 -37l-13 -17c-10 -13 -13 -21 -32 -10l-115 70c-33 -21 -97 -59 -114 -70s-22 -3 -32 10zM45 55c-12 17 -16 24 -4 36l31 32c14 15 24 12 32 3
c11 -12 42 -45 90 -45c54 0 81 36 84 99c8 273 1 323 1 341c-1 28 -3 43 33 43h41c37 0 37 -32 37 -57c0 -27 -2 -246 -3 -326c-2 -123 -76 -189 -193 -189c-82 0 -137 49 -149 63z" />
    <glyph glyph-name="kcommaaccent" unicode="&#x137;" horiz-adv-x="627" 
d="M90 59c2 64 2 420 2 439c0 27 -15 66 35 66h36c37 0 38 -34 38 -58c-1 -15 -2 -95 -3 -182h94c29 37 123 180 146 214c11 13 20 26 40 26h62c20 0 31 -18 21 -37c-25 -35 -135 -174 -181 -246c36 -57 123 -160 137 -180c15 -19 27 -20 53 -20c14 -72 -13 -89 -62 -89
c-40 0 -60 15 -83 50c-34 46 -115 165 -140 201h-88c0 -86 0 -160 1 -177c2 -27 5 -66 -34 -66h-37c-37 0 -37 35 -37 59zM230 -136c0 48 25 72 77 72c50 0 88 -24 88 -92c0 -88 -60 -141 -110 -141c-61 0 -47 53 -47 53s65 3 79 52c-56 -9 -87 23 -87 56z" />
    <glyph glyph-name="lacute" unicode="&#x13a;" horiz-adv-x="513" 
d="M60 616c-20 -10 -24 -5 -32 10l-9 17c-9 17 -8 29 7 37c38 19 154 77 196 100c19 11 25 8 32 -8l16 -37c7 -17 7 -27 -9 -34zM92 58c0 12 1 27 1 56c0 98 -1 270 -2 344c0 31 -2 56 -3 76c0 23 11 30 34 30h40c34 0 36 -27 36 -49c0 0 -1 -23 -1 -45
c-2 -87 -2 -295 0 -374c66 0 203 0 226 3c22 4 32 -12 32 -34v-35c0 -21 -4 -30 -31 -30h-298c-36 0 -34 35 -34 58z" />
    <glyph glyph-name="lcaron" unicode="&#x13e;" horiz-adv-x="513" 
d="M420 345c-61 0 -47 53 -47 53s65 3 79 52c-56 -9 -87 23 -87 56c0 48 25 72 77 72c50 0 88 -24 88 -92c0 -88 -60 -141 -110 -141zM93 58c0 12 1 27 1 56c0 98 -1 270 -2 344c0 31 -2 56 -3 76c0 23 11 30 34 30h40c34 0 36 -27 36 -49c0 0 -1 -23 -1 -45
c-2 -87 -2 -295 0 -374c66 0 203 0 226 3c22 4 32 -12 32 -34v-35c0 -21 -4 -30 -31 -30h-298c-36 0 -34 35 -34 58z" />
    <glyph glyph-name="lcommaaccent" unicode="&#x13c;" horiz-adv-x="514" 
d="M93 58c0 12 1 27 1 56c0 98 -1 270 -2 344c0 31 -2 56 -3 76c0 23 11 30 34 30h40c34 0 36 -27 36 -49c0 0 -1 -23 -1 -45c-2 -87 -2 -295 0 -374c66 0 203 0 226 3c22 4 32 -12 32 -34v-35c0 -21 -4 -30 -31 -30h-298c-36 0 -34 35 -34 58zM190 -136c0 48 25 72 77 72
c50 0 88 -24 88 -92c0 -88 -60 -141 -110 -141c-61 0 -47 53 -47 53s65 3 79 52c-56 -9 -87 23 -87 56z" />
    <glyph glyph-name="kgreenlandic" unicode="&#x138;" horiz-adv-x="634" 
d="M83 47c2 53 3 423 2 439c0 23 -14 64 35 64h40c37 0 38 -37 38 -58c0 -10 -2 -80 -3 -175h96c28 37 125 176 146 207c9 13 20 26 40 26h66c20 0 32 -19 21 -35l-184 -242c39 -56 116 -152 137 -173c17 -17 28 -19 57 -19c14 -57 -14 -91 -63 -91c-41 0 -62 14 -87 45
c-36 46 -114 162 -140 199h-90c0 -91 0 -157 1 -171c2 -23 5 -63 -34 -63h-41c-37 0 -37 26 -37 47z" />
    <glyph glyph-name="Abreve" unicode="&#x102;" horiz-adv-x="672" 
d="M348 735c-104 0 -148 60 -148 129c0 12 8 27 26 27h36c15 0 24 -10 24 -24c0 -26 14 -54 62 -54c45 0 61 28 61 54c0 13 9 23 27 23h29c16 0 30 -6 30 -26c0 -69 -54 -129 -147 -129zM43 38c21 68 198 561 209 597c8 27 24 45 58 45h61c35 0 52 -19 62 -49
c8 -32 183 -547 196 -591c7 -28 -4 -40 -29 -40h-29c-38 0 -39 25 -45 39c-7 17 -21 67 -45 125h-287c-22 -61 -40 -108 -44 -122c-8 -29 -18 -42 -43 -42h-40c-19 0 -32 13 -24 38zM217 244h240c-48 141 -104 309 -116 355h-6c-13 -47 -69 -215 -118 -355z" />
    <glyph glyph-name="Aogonek" unicode="&#x104;" horiz-adv-x="672" 
d="M43 38c21 68 198 561 209 597c8 27 24 45 58 45h61c35 0 52 -19 62 -49c8 -32 183 -547 196 -591c7 -28 -4 -40 -29 -40h-4h-2c-41 0 -56 -21 -56 -48c0 -29 23 -45 57 -45c35 0 60 12 60 12s16 -12 16 -37c0 -26 -35 -42 -91 -42c-78 0 -121 32 -121 92
c0 43 27 73 75 86c-4 7 -6 15 -8 21c-7 17 -21 67 -45 125h-287c-22 -61 -40 -108 -44 -122c-8 -29 -18 -42 -43 -42h-40c-19 0 -32 13 -24 38zM217 244h240c-48 141 -104 309 -116 355h-6c-13 -47 -69 -215 -118 -355z" />
    <glyph glyph-name="AEacute" unicode="&#x1fc;" horiz-adv-x="891" 
d="M465 746l-9 17c-9 17 -8 29 7 37c38 19 154 77 196 100c19 11 25 8 32 -8l16 -37c7 -17 7 -27 -9 -34l-201 -85c-20 -10 -24 -5 -32 10zM49 0c-26 0 -20 35 -9 60c32 69 233 474 281 570c13 28 30 50 76 50l389 -1c27 0 34 -16 34 -37v-28c0 -23 -13 -33 -35 -32
c-14 0 -232 1 -278 1l-3 -202c40 0 231 1 241 1c14 1 28 -9 28 -29v-30c1 -21 -8 -29 -26 -28c-12 1 -204 1 -245 1c0 -25 1 -175 1 -200l284 1c23 1 33 -10 33 -33v-28c0 -26 -2 -36 -33 -36h-351c-37 0 -37 25 -37 51v113h-200s-34 -72 -52 -117c-10 -27 -11 -47 -44 -47
h-54zM238 244h163c3 104 9 316 9 356h-7c-27 -50 -128 -264 -165 -356z" />
    <glyph glyph-name="Cacute" unicode="&#x106;" horiz-adv-x="642" 
d="M261 743l-9 17c-9 17 -8 29 7 37c38 19 154 77 196 100c19 11 25 8 32 -8l16 -37c7 -17 7 -27 -9 -34l-201 -85c-20 -10 -24 -5 -32 10zM61 340c0 199 104 350 318 350c106 0 160 -31 180 -44c16 -11 36 -37 6 -76c-13 -17 -24 -22 -24 -22s-53 51 -160 51
c-145 0 -210 -116 -210 -258c0 -145 76 -260 209 -260c65 0 105 21 129 38c12 8 25 15 37 -6l21 -35c8 -13 13 -24 -2 -36c-23 -18 -84 -52 -185 -52c-215 0 -319 149 -319 350z" />
    <glyph glyph-name="Ccaron" unicode="&#x10c;" horiz-adv-x="642" 
d="M351 749l-136 100c-14 10 -18 22 -7 37l13 17c10 13 13 21 32 10l115 -70c33 21 97 59 114 70s22 3 32 -10l13 -17c11 -15 7 -27 -7 -37c-38 -29 -96 -66 -136 -100c-8 -7 -13 -7 -16 -7c-7 0 -12 3 -17 7zM61 340c0 199 104 350 318 350c106 0 160 -31 180 -44
c16 -11 36 -37 6 -76c-13 -17 -24 -22 -24 -22s-53 51 -160 51c-145 0 -210 -116 -210 -258c0 -145 76 -260 209 -260c65 0 105 21 129 38c12 8 25 15 37 -6l21 -35c8 -13 13 -24 -2 -36c-23 -18 -84 -52 -185 -52c-215 0 -319 149 -319 350z" />
    <glyph glyph-name="Ccircumflex" unicode="&#x108;" horiz-adv-x="642" 
d="M228 763l-13 17c-11 15 -7 27 7 37c38 29 96 66 136 100c8 7 13 7 16 7c7 0 12 -3 17 -7l136 -100c14 -10 18 -22 7 -37l-13 -17c-10 -13 -13 -21 -32 -10l-115 70c-33 -21 -97 -59 -114 -70s-22 -3 -32 10zM61 340c0 199 104 350 318 350c106 0 160 -31 180 -44
c16 -11 36 -37 6 -76c-13 -17 -24 -22 -24 -22s-53 51 -160 51c-145 0 -210 -116 -210 -258c0 -145 76 -260 209 -260c65 0 105 21 129 38c12 8 25 15 37 -6l21 -35c8 -13 13 -24 -2 -36c-23 -18 -84 -52 -185 -52c-215 0 -319 149 -319 350z" />
    <glyph glyph-name="Cdotaccent" unicode="&#x10a;" horiz-adv-x="642" 
d="M391 734c-36 0 -61 6 -63 60c-2 55 25 61 59 61s61 -6 63 -61c1 -54 -26 -60 -59 -60zM61 340c0 199 104 350 318 350c106 0 160 -31 180 -44c16 -11 36 -37 6 -76c-13 -17 -24 -22 -24 -22s-53 51 -160 51c-145 0 -210 -116 -210 -258c0 -145 76 -260 209 -260
c65 0 105 21 129 38c12 8 25 15 37 -6l21 -35c8 -13 13 -24 -2 -36c-23 -18 -84 -52 -185 -52c-215 0 -319 149 -319 350z" />
    <glyph glyph-name="Dcaron" unicode="&#x10e;" horiz-adv-x="674" 
d="M308 749l-136 100c-14 10 -18 22 -7 37l13 17c10 13 13 21 32 10l115 -70c33 21 97 59 114 70s22 3 32 -10l13 -17c11 -15 7 -27 -7 -37c-38 -29 -96 -66 -136 -100c-8 -7 -13 -7 -16 -7c-7 0 -12 3 -17 7zM95 60c3 66 -1 533 -1 553c0 28 -12 67 37 67h161
c261 0 357 -142 353 -340c-3 -197 -89 -340 -353 -340h-159c-37 0 -38 34 -38 60zM202 81h90c214 0 244 130 243 262c-1 134 -40 256 -243 256h-89c-3 -113 -2 -376 -1 -518z" />
    <glyph glyph-name="Dcroat" unicode="&#x110;" horiz-adv-x="706" 
d="M94 60c1 27 1 128 1 234h-49c-20 0 -27 7 -27 27v26c0 22 9 24 33 24c6 0 28 -1 42 -1c0 121 -1 233 -1 243c0 28 -12 67 37 67h161c261 0 357 -142 353 -340c-3 -197 -89 -340 -353 -340h-159c-37 0 -38 34 -38 60zM201 81h90c214 0 244 130 243 262
c-1 134 -40 256 -243 256h-89c-2 -53 -2 -140 -2 -230c48 -1 92 0 124 2c24 2 27 -4 27 -28v-24c0 -19 -6 -24 -31 -24h-120c0 -80 0 -157 1 -214z" />
    <glyph glyph-name="Ecaron" unicode="&#x11a;" horiz-adv-x="603" 
d="M312 742c-7 0 -12 3 -17 7l-136 100c-14 10 -18 22 -7 37l13 17c10 13 13 21 32 10l115 -70c33 21 97 59 114 70s22 3 32 -10l13 -17c11 -15 7 -27 -7 -37c-38 -29 -96 -66 -136 -100c-8 -7 -13 -7 -16 -7zM99 60c2 66 -5 533 -5 553c0 28 -13 67 36 67h370
c28 0 32 -14 32 -36v-29c0 -23 -10 -32 -34 -32h-293l-2 -201c81 0 231 0 256 1c14 1 27 -7 27 -27v-36c0 -21 -7 -25 -25 -25c-29 0 -173 1 -257 0l3 -198c80 0 262 1 292 3c23 2 33 -10 33 -33v-40c0 -22 -5 -27 -33 -27h-363c-37 0 -38 34 -37 60z" />
    <glyph glyph-name="Emacron" unicode="&#x112;" horiz-adv-x="603" 
d="M177 754c-20 0 -27 7 -27 27v26c0 22 9 24 33 24c31 0 209 -5 272 0c24 2 27 -4 27 -28v-24c0 -19 -6 -24 -31 -24c-43 0 -274 -1 -274 -1zM99 60c2 66 -5 533 -5 553c0 28 -13 67 36 67h370c28 0 32 -14 32 -36v-29c0 -23 -10 -32 -34 -32h-293l-2 -201
c81 0 231 0 256 1c14 1 27 -7 27 -27v-36c0 -21 -7 -25 -25 -25c-29 0 -173 1 -257 0l3 -198c80 0 262 1 292 3c23 2 33 -10 33 -33v-40c0 -22 -5 -27 -33 -27h-363c-37 0 -38 34 -37 60z" />
    <glyph glyph-name="Edotaccent" unicode="&#x116;" horiz-adv-x="603" 
d="M320 734c-36 0 -61 6 -63 60c-2 55 25 61 59 61s61 -6 63 -61c1 -54 -26 -60 -59 -60zM99 60c2 66 -5 533 -5 553c0 28 -13 67 36 67h370c28 0 32 -14 32 -36v-29c0 -23 -10 -32 -34 -32h-293l-2 -201c81 0 231 0 256 1c14 1 27 -7 27 -27v-36c0 -21 -7 -25 -25 -25
c-29 0 -173 1 -257 0l3 -198c80 0 262 1 292 3c23 2 33 -10 33 -33v-40c0 -22 -5 -27 -33 -27h-363c-37 0 -38 34 -37 60z" />
    <glyph glyph-name="Ebreve" unicode="&#x114;" horiz-adv-x="603" 
d="M312 735c-104 0 -148 60 -148 129c0 12 8 27 26 27h36c15 0 24 -10 24 -24c0 -26 14 -54 62 -54c45 0 61 28 61 54c0 13 9 23 27 23h29c16 0 30 -6 30 -26c0 -69 -54 -129 -147 -129zM99 60c2 66 -5 533 -5 553c0 28 -13 67 36 67h370c28 0 32 -14 32 -36v-29
c0 -23 -10 -32 -34 -32h-293l-2 -201c81 0 231 0 256 1c14 1 27 -7 27 -27v-36c0 -21 -7 -25 -25 -25c-29 0 -173 1 -257 0l3 -198c80 0 262 1 292 3c23 2 33 -10 33 -33v-40c0 -22 -5 -27 -33 -27h-363c-37 0 -38 34 -37 60z" />
    <glyph glyph-name="Eogonek" unicode="&#x118;" horiz-adv-x="602" 
d="M99 60c2 66 -5 533 -5 553c0 28 -13 67 36 67h370c28 0 32 -14 32 -36v-29c0 -23 -10 -32 -34 -32h-293l-2 -201c81 0 231 0 256 1c14 1 27 -7 27 -27v-36c0 -21 -7 -25 -25 -25c-29 0 -173 1 -257 0l3 -198c80 0 262 1 292 3c23 2 33 -10 33 -33v-40
c0 -19 -4 -26 -24 -27h-2c-41 0 -56 -21 -56 -48c0 -29 23 -45 57 -45c35 0 60 12 60 12s16 -12 16 -37c0 -26 -35 -42 -91 -42c-78 0 -121 32 -121 92c0 29 13 52 36 68h-271c-37 0 -38 34 -37 60z" />
    <glyph glyph-name="Gbreve" unicode="&#x11e;" horiz-adv-x="714" 
d="M379 735c-104 0 -148 60 -148 129c0 12 8 27 26 27h36c15 0 24 -10 24 -24c0 -26 14 -54 62 -54c45 0 61 28 61 54c0 13 9 23 27 23h29c16 0 30 -6 30 -26c0 -69 -54 -129 -147 -129zM61 340c0 200 115 350 320 350c121 0 183 -34 204 -48c18 -11 39 -36 8 -76
c-11 -15 -25 -22 -25 -22s-60 55 -185 55c-120 0 -212 -95 -212 -254c0 -179 91 -264 193 -264c186 0 175 211 175 211h-147c-12 0 -16 9 -16 20l-1 50c0 10 8 17 21 17h215c28 0 34 -7 33 -33c-1 -29 -8 -261 -5 -303c2 -29 -5 -43 -26 -43h-41c-20 0 -29 11 -29 34
c0 8 4 58 3 71h-9s-37 -115 -189 -115c-183 0 -287 152 -287 350z" />
    <glyph glyph-name="Gcircumflex" unicode="&#x11c;" horiz-adv-x="714" 
d="M248 763l-13 17c-11 15 -7 27 7 37c38 29 96 66 136 100c8 7 13 7 16 7c7 0 12 -3 17 -7l136 -100c14 -10 18 -22 7 -37l-13 -17c-10 -13 -13 -21 -32 -10l-115 70c-33 -21 -97 -59 -114 -70s-22 -3 -32 10zM61 340c0 200 115 350 320 350c121 0 183 -34 204 -48
c18 -11 39 -36 8 -76c-11 -15 -25 -22 -25 -22s-60 55 -185 55c-120 0 -212 -95 -212 -254c0 -179 91 -264 193 -264c186 0 175 211 175 211h-147c-12 0 -16 9 -16 20l-1 50c0 10 8 17 21 17h215c28 0 34 -7 33 -33c-1 -29 -8 -261 -5 -303c2 -29 -5 -43 -26 -43h-41
c-20 0 -29 11 -29 34c0 8 4 58 3 71h-9s-37 -115 -189 -115c-183 0 -287 152 -287 350z" />
    <glyph glyph-name="Gdotaccent" unicode="&#x120;" horiz-adv-x="714" 
d="M381 734c-36 0 -61 6 -63 60c-2 55 25 61 59 61s61 -6 63 -61c1 -54 -26 -60 -59 -60zM61 340c0 200 115 350 320 350c121 0 183 -34 204 -48c18 -11 39 -36 8 -76c-11 -15 -25 -22 -25 -22s-60 55 -185 55c-120 0 -212 -95 -212 -254c0 -179 91 -264 193 -264
c186 0 175 211 175 211h-147c-12 0 -16 9 -16 20l-1 50c0 10 8 17 21 17h215c28 0 34 -7 33 -33c-1 -29 -8 -261 -5 -303c2 -29 -5 -43 -26 -43h-41c-20 0 -29 11 -29 34c0 8 4 58 3 71h-9s-37 -115 -189 -115c-183 0 -287 152 -287 350z" />
    <glyph glyph-name="Gcommaaccent" unicode="&#x122;" horiz-adv-x="714" 
d="M61 340c0 200 115 350 320 350c121 0 183 -34 204 -48c18 -11 39 -36 8 -76c-11 -15 -25 -22 -25 -22s-60 55 -185 55c-120 0 -212 -95 -212 -254c0 -179 91 -264 193 -264c186 0 175 211 175 211h-147c-12 0 -16 9 -16 20l-1 50c0 10 8 17 21 17h215c28 0 34 -7 33 -33
c-1 -29 -8 -261 -5 -303c2 -29 -5 -43 -26 -43h-41c-20 0 -29 11 -29 34c0 8 4 58 3 71h-9s-37 -115 -189 -115c-183 0 -287 152 -287 350zM291 -136c0 48 25 72 77 72c50 0 88 -24 88 -92c0 -88 -60 -141 -110 -141c-61 0 -47 53 -47 53s65 3 79 52c-56 -9 -87 23 -87 56z
" />
    <glyph glyph-name="Hcircumflex" unicode="&#x124;" horiz-adv-x="765" 
d="M237 763l-13 17c-11 15 -7 27 7 37c38 29 96 66 136 100c8 7 13 7 16 7c7 0 12 -3 17 -7l136 -100c14 -10 18 -22 7 -37l-13 -17c-10 -13 -13 -21 -32 -10l-115 70c-33 -21 -97 -59 -114 -70s-22 -3 -32 10zM93 60c2 66 1 533 1 553c0 28 -14 67 35 67h40
c37 0 38 -33 37 -59c-2 -14 -2 -124 -2 -242h355v234c0 28 -14 67 35 67h41c36 0 37 -33 36 -59c-1 -29 -4 -512 -1 -554c1 -28 14 -67 -35 -67h-40c-37 0 -38 34 -37 60c1 27 1 128 1 232h-356c0 -109 1 -207 2 -225c2 -28 14 -67 -35 -67h-40c-37 0 -38 34 -37 60z" />
    <glyph glyph-name="Hbar" unicode="&#x126;" horiz-adv-x="763" 
d="M92 60c1 50 1 292 1 432h-18c-20 0 -27 7 -27 27v26c0 22 9 24 33 24h12v44c0 28 -14 67 35 67h40c37 0 38 -33 37 -59c-1 -5 -1 -26 -2 -53l355 -1v46c0 28 -14 67 35 67h41c36 0 37 -33 36 -59c0 -5 -1 -26 -1 -54h29c24 0 27 -4 27 -28v-24c0 -19 -6 -24 -31 -24h-26
c-1 -155 -1 -395 1 -424c1 -28 14 -67 -35 -67h-40c-37 0 -38 34 -37 60c1 27 1 128 1 232h-356c0 -109 1 -207 2 -225c2 -28 14 -67 -35 -67h-40c-37 0 -38 34 -37 60zM203 379h355v112l-355 1v-113z" />
    <glyph glyph-name="Imacron" unicode="&#x12a;" horiz-adv-x="325" 
d="M24 754c-20 0 -27 7 -27 27v26c0 22 9 24 33 24c31 0 209 -5 272 0c24 2 27 -4 27 -28v-24c0 -19 -6 -24 -31 -24c-43 0 -274 -1 -274 -1zM109 60c2 66 -5 452 -5 553c0 28 -14 67 35 67h40c37 0 38 -33 37 -59c-4 -105 2 -512 3 -554c2 -28 15 -67 -34 -67h-39
c-37 0 -38 34 -37 60z" />
    <glyph glyph-name="Ibreve" unicode="&#x12c;" horiz-adv-x="325" 
d="M163 735c-104 0 -148 60 -148 129c0 12 8 27 26 27h36c15 0 24 -10 24 -24c0 -26 14 -54 62 -54c45 0 61 28 61 54c0 13 9 23 27 23h29c16 0 30 -6 30 -26c0 -69 -54 -129 -147 -129zM109 60c2 66 -5 452 -5 553c0 28 -14 67 35 67h40c37 0 38 -33 37 -59
c-4 -105 2 -512 3 -554c2 -28 15 -67 -34 -67h-39c-37 0 -38 34 -37 60z" />
    <glyph glyph-name="Idotaccent" unicode="&#x130;" horiz-adv-x="328" 
d="M164 734c-36 0 -61 6 -63 60c-2 55 25 61 59 61s61 -6 63 -61c1 -54 -26 -60 -59 -60zM110 60c2 66 -5 452 -5 553c0 28 -14 67 35 67h40c37 0 38 -33 37 -59c-4 -105 2 -512 3 -554c2 -28 15 -67 -34 -67h-39c-37 0 -38 34 -37 60z" />
    <glyph glyph-name="Itilde" unicode="&#x128;" horiz-adv-x="325" 
d="M61 762c-8 -16 -19 -9 -32 2l-15 13c-12 11 -16 18 -8 35c16 33 51 79 97 79c61 0 91 -64 120 -64c24 0 32 14 39 25c8 11 22 13 33 1l19 -20c12 -13 12 -18 2 -37c-12 -22 -43 -57 -93 -57c-58 0 -87 62 -120 62c-20 0 -34 -23 -42 -39zM109 60c2 66 -5 452 -5 553
c0 28 -14 67 35 67h40c37 0 38 -33 37 -59c-4 -105 2 -512 3 -554c2 -28 15 -67 -34 -67h-39c-37 0 -38 34 -37 60z" />
    <glyph glyph-name="Iogonek" unicode="&#x12e;" horiz-adv-x="326" 
d="M46 -68c0 41 25 70 69 84c-7 12 -7 29 -6 44c2 66 -5 452 -5 553c0 28 -14 67 35 67h40c37 0 38 -33 37 -59c-4 -105 2 -512 3 -554c2 -28 15 -67 -34 -67h-2h-2h-6c-37 -2 -50 -22 -50 -48c0 -29 23 -45 57 -45c35 0 60 12 60 12s16 -12 16 -37c0 -26 -35 -42 -91 -42
c-78 0 -121 32 -121 92z" />
    <glyph glyph-name="IJ" unicode="&#x132;" horiz-adv-x="839" 
d="M360 69c-13 18 -18 27 -4 40l31 31c16 15 27 10 35 0c14 -16 51 -59 114 -59c70 0 107 45 110 133c8 261 1 402 1 421c-1 29 -3 45 34 45h40c37 0 37 -33 37 -59c0 -29 -2 -307 -3 -406c-1 -148 -86 -225 -219 -225c-100 0 -161 60 -176 79zM111 60c2 66 -5 452 -5 553
c0 28 -14 67 35 67h40c37 0 38 -33 37 -59c-4 -105 2 -512 3 -554c2 -28 15 -67 -34 -67h-39c-37 0 -38 34 -37 60z" />
    <glyph glyph-name="Jcircumflex" unicode="&#x134;" horiz-adv-x="511" 
d="M227 763l-13 17c-11 15 -7 27 7 37c38 29 96 66 136 100c8 7 13 7 16 7c7 0 12 -3 17 -7l136 -100c14 -10 18 -22 7 -37l-13 -17c-10 -13 -13 -21 -32 -10l-115 70c-33 -21 -97 -59 -114 -70s-22 -3 -32 10zM33 69c-13 18 -18 27 -4 40l31 31c16 15 27 10 35 0
c14 -16 51 -59 114 -59c70 0 107 45 110 133c8 261 1 402 1 421c-1 29 -3 45 34 45h40c37 0 37 -33 37 -59c0 -29 -2 -307 -3 -406c-1 -148 -86 -225 -219 -225c-100 0 -161 60 -176 79z" />
    <glyph glyph-name="Aringacute" unicode="&#x1fa;" horiz-adv-x="624" 
d="M245 837c-21 -6 -25 0 -29 16l-5 18c-5 18 -3 30 13 35c41 12 133 36 179 51c20 7 26 4 30 -13l9 -39c5 -18 2 -28 -15 -32c0 0 -157 -30 -182 -36zM43 38l186 593l2 7c-39 17 -56 47 -56 83c0 55 50 99 148 99s147 -43 147 -99c0 -36 -23 -67 -63 -84l3 -10
c8 -32 159 -543 172 -587c6 -22 -1 -40 -28 -40h-30c-24 0 -36 2 -45 30c-4 14 -13 55 -37 134h-255c-27 -89 -34 -112 -42 -136c-7 -21 -16 -28 -38 -28h-39c-21 0 -32 17 -25 38zM323 682c55 0 68 20 68 40c0 18 -13 38 -68 38c-59 0 -69 -20 -69 -38c0 -20 10 -40 69 -40
zM210 244h208c-41 141 -90 309 -100 355h-6c-11 -47 -60 -215 -102 -355z" />
    <glyph glyph-name="Kcommaaccent" unicode="&#x136;" horiz-adv-x="684" 
d="M92 60c2 66 2 533 2 553c0 28 -14 67 35 67h40c37 0 36 -33 36 -59c-1 -13 -2 -121 -3 -238h119c35 46 164 232 191 270c11 15 21 27 41 27h61c20 0 32 -18 21 -37c-32 -44 -170 -220 -225 -304c44 -69 154 -210 172 -234c17 -23 31 -24 63 -24c14 -70 -14 -91 -64 -91
c-43 0 -64 17 -92 56l-175 254h-113c0 -112 0 -215 1 -233c2 -28 7 -67 -32 -67h-41c-37 0 -37 34 -37 60zM269 -136c0 48 25 72 77 72c50 0 88 -24 88 -92c0 -88 -60 -141 -110 -141c-61 0 -47 53 -47 53s65 3 79 52c-56 -9 -87 23 -87 56z" />
    <glyph glyph-name="Lacute" unicode="&#x139;" horiz-adv-x="565" 
d="M69 733c-20 -10 -24 -5 -32 10l-9 17c-9 17 -8 29 7 37c38 19 154 77 196 100c19 11 25 8 32 -8l16 -37c7 -17 7 -27 -9 -34zM94 60c0 13 1 43 1 81c0 115 -1 314 -2 413c0 32 -1 60 -2 93c0 20 3 33 27 33h46c37 0 36 -33 36 -59c0 -5 -1 -25 -1 -54
c-1 -115 -1 -379 1 -470c80 0 253 0 281 3c23 3 33 -12 33 -35v-33c0 -22 -4 -32 -32 -32h-350c-37 0 -38 34 -38 60z" />
    <glyph glyph-name="Lcaron" unicode="&#x13d;" horiz-adv-x="565" 
d="M427 457c-61 0 -47 53 -47 53s65 3 79 52c-56 -9 -87 23 -87 56c0 48 25 72 77 72c50 0 88 -24 88 -92c0 -88 -60 -141 -110 -141zM95 60c0 13 1 43 1 81c0 115 -1 314 -2 413c0 32 -1 60 -2 93c0 20 3 33 27 33h46c37 0 36 -33 36 -59c0 -5 -1 -25 -1 -54
c-1 -115 -1 -379 1 -470c80 0 253 0 281 3c23 3 33 -12 33 -35v-33c0 -22 -4 -32 -32 -32h-350c-37 0 -38 34 -38 60z" />
    <glyph glyph-name="Lcommaaccent" unicode="&#x13b;" horiz-adv-x="566" 
d="M95 60c0 13 1 43 1 81c0 115 -1 314 -2 413c0 32 -1 60 -2 93c0 20 3 33 27 33h46c37 0 36 -33 36 -59c0 -5 -1 -25 -1 -54c-1 -115 -1 -379 1 -470c80 0 253 0 281 3c23 3 33 -12 33 -35v-33c0 -22 -4 -32 -32 -32h-350c-37 0 -38 34 -38 60zM225 -136c0 48 25 72 77 72
c50 0 88 -24 88 -92c0 -88 -60 -141 -110 -141c-61 0 -47 53 -47 53s65 3 79 52c-56 -9 -87 23 -87 56z" />
    <glyph glyph-name="Ldot" unicode="&#x13f;" horiz-adv-x="566" 
d="M95 60c0 13 1 43 1 81c0 115 -1 314 -2 413c0 32 -1 60 -2 93c0 20 3 33 27 33h46c37 0 36 -33 36 -59c0 -5 -1 -25 -1 -54c-1 -115 -1 -379 1 -470c80 0 253 0 281 3c23 3 33 -12 33 -35v-33c0 -22 -4 -32 -32 -32h-350c-37 0 -38 34 -38 60zM369 377c-2 55 25 61 59 61
s61 -6 63 -61c1 -54 -26 -60 -59 -60c-36 0 -61 6 -63 60z" />
    <glyph glyph-name="Nacute" unicode="&#x143;" horiz-adv-x="745" 
d="M266 743l-9 17c-9 17 -8 29 7 37c38 19 154 77 196 100c19 11 25 8 32 -8l16 -37c7 -17 7 -27 -9 -34l-201 -85c-20 -10 -24 -5 -32 10zM93 60c2 66 0 553 0 573c0 28 1 47 41 47h52l350 -452h7c-2 45 -4 414 -4 423c-1 14 2 29 37 29h39c36 0 36 -33 36 -59
c0 -29 -4 -512 -1 -554c1 -28 14 -67 -35 -67h-38c-33 0 -37 33 -38 55c-1 32 -281 367 -334 445h-9c0 -67 8 -417 9 -433c1 -28 14 -67 -35 -67h-40c-37 0 -38 34 -37 60z" />
    <glyph glyph-name="Ncaron" unicode="&#x147;" horiz-adv-x="745" 
d="M358 749l-136 100c-14 10 -18 22 -7 37l13 17c10 13 13 21 32 10l115 -70c33 21 97 59 114 70s22 3 32 -10l13 -17c11 -15 7 -27 -7 -37c-38 -29 -96 -66 -136 -100c-8 -7 -13 -7 -16 -7c-7 0 -12 3 -17 7zM93 60c2 66 0 553 0 573c0 28 1 47 41 47h52l350 -452h7
c-2 45 -4 414 -4 423c-1 14 2 29 37 29h39c36 0 36 -33 36 -59c0 -29 -4 -512 -1 -554c1 -28 14 -67 -35 -67h-38c-33 0 -37 33 -38 55c-1 32 -281 367 -334 445h-9c0 -67 8 -417 9 -433c1 -28 14 -67 -35 -67h-40c-37 0 -38 34 -37 60z" />
    <glyph glyph-name="Ncommaaccent" unicode="&#x145;" horiz-adv-x="745" 
d="M93 60c2 66 0 553 0 573c0 28 1 47 41 47h52l350 -452h7c-2 45 -4 414 -4 423c-1 14 2 29 37 29h39c36 0 36 -33 36 -59c0 -29 -4 -512 -1 -554c1 -28 14 -67 -35 -67h-38c-33 0 -37 33 -38 55c-1 32 -281 367 -334 445h-9c0 -67 8 -417 9 -433c1 -28 14 -67 -35 -67h-40
c-37 0 -38 34 -37 60zM299 -136c0 48 25 72 77 72c50 0 88 -24 88 -92c0 -88 -60 -141 -110 -141c-61 0 -47 53 -47 53s65 3 79 52c-56 -9 -87 23 -87 56z" />
    <glyph glyph-name="Eng" unicode="&#x14a;" horiz-adv-x="715" 
d="M93 69c0 121 -1 410 -1 512v52c0 28 0 47 40 47h53l323 -452h7c-1 45 -3 414 -3 423c-1 14 0 29 35 29h40c36 0 36 -33 36 -59c0 -137 -2 -274 -2 -632c0 -73 -18 -150 -130 -150c-44 0 -65 7 -80 11c0 0 -11 79 40 79c17 0 22 -3 39 -3c25 0 33 19 30 89l-1 37
c-66 101 -283 384 -316 448h-8c0 -144 9 -288 9 -433c1 -38 17 -67 -44 -67h-25c-45 0 -42 23 -42 69z" />
    <glyph glyph-name="Omacron" unicode="&#x14c;" horiz-adv-x="726" 
d="M222 754c-20 0 -27 7 -27 27v26c0 22 9 24 33 24c31 0 209 -5 272 0c24 2 27 -4 27 -28v-24c0 -19 -6 -24 -31 -24c-43 0 -274 -1 -274 -1zM61 340c0 197 97 350 304 350c193 0 299 -152 300 -350c0 -199 -107 -350 -301 -350c-207 0 -303 150 -303 350zM364 81
c139 0 190 126 190 260c0 138 -50 258 -190 258c-143 0 -193 -120 -193 -258c0 -136 49 -260 193 -260z" />
    <glyph glyph-name="Ohungarumlaut" unicode="&#x150;" horiz-adv-x="726" 
d="M464 731l-14 12c-15 13 -19 25 -7 38l118 131c15 16 21 16 33 3l28 -29c13 -14 16 -23 3 -35l-128 -119c-15 -16 -20 -12 -33 -1zM259 731l-14 12c-15 13 -19 25 -7 38l118 131c15 16 21 16 33 3l28 -29c13 -14 16 -23 3 -35l-128 -119c-15 -16 -20 -12 -33 -1zM61 340
c0 197 97 350 304 350c193 0 299 -152 300 -350c0 -199 -107 -350 -301 -350c-207 0 -303 150 -303 350zM364 81c139 0 190 126 190 260c0 138 -50 258 -190 258c-143 0 -193 -120 -193 -258c0 -136 49 -260 193 -260z" />
    <glyph glyph-name="Amacron" unicode="&#x100;" horiz-adv-x="672" 
d="M206 754c-20 0 -27 7 -27 27v26c0 22 9 24 33 24c31 0 209 -5 272 0c24 2 27 -4 27 -28v-24c0 -19 -6 -24 -31 -24c-43 0 -274 -1 -274 -1zM43 38c21 68 198 561 209 597c8 27 24 45 58 45h61c35 0 52 -19 62 -49c8 -32 183 -547 196 -591c7 -28 -4 -40 -29 -40h-29
c-38 0 -39 25 -45 39c-7 17 -21 67 -45 125h-287c-22 -61 -40 -108 -44 -122c-8 -29 -18 -42 -43 -42h-40c-19 0 -32 13 -24 38zM217 244h240c-48 141 -104 309 -116 355h-6c-13 -47 -69 -215 -118 -355z" />
    <glyph glyph-name="Obreve" unicode="&#x14e;" horiz-adv-x="726" 
d="M361 735c-104 0 -148 60 -148 129c0 12 8 27 26 27h36c15 0 24 -10 24 -24c0 -26 14 -54 62 -54c45 0 61 28 61 54c0 13 9 23 27 23h29c16 0 30 -6 30 -26c0 -69 -54 -129 -147 -129zM61 340c0 197 97 350 304 350c193 0 299 -152 300 -350c0 -199 -107 -350 -301 -350
c-207 0 -303 150 -303 350zM364 81c139 0 190 126 190 260c0 138 -50 258 -190 258c-143 0 -193 -120 -193 -258c0 -136 49 -260 193 -260z" />
    <glyph glyph-name="Oslashacute" unicode="&#x1fe;" horiz-adv-x="726" 
d="M246 743l-9 17c-9 17 -8 29 7 37c38 19 154 77 196 100c19 11 25 8 32 -8l16 -37c7 -17 7 -27 -9 -34l-201 -85c-20 -10 -24 -5 -32 10zM100 32l38 54c-52 63 -77 151 -77 254c0 197 97 350 304 350c61 0 114 -15 157 -43l28 43c10 17 21 25 42 14l19 -10
c18 -9 22 -18 8 -40c-6 -10 -22 -31 -39 -57c55 -63 84 -154 85 -257c0 -199 -107 -350 -301 -350c-68 0 -124 16 -168 45c-2 -3 -3 -2 -3 -1c-9 -15 -18 -30 -22 -38c-15 -29 -26 -26 -39 -18l-22 12c-20 11 -27 17 -10 42zM364 81c139 0 190 126 190 260
c0 138 -50 258 -190 258c-143 0 -193 -120 -193 -258c0 -136 49 -260 193 -260z" />
    <glyph glyph-name="Racute" unicode="&#x154;" horiz-adv-x="677" 
d="M242 733c-20 -10 -24 -5 -32 10l-9 17c-9 17 -8 29 7 37c38 19 154 77 196 100c19 11 25 8 32 -8l16 -37c7 -17 7 -27 -9 -34zM94 60c2 66 1 534 1 554c0 28 -3 66 45 66h206c167 0 254 -92 254 -226c0 -106 -68 -176 -152 -206l112 -144c16 -23 34 -23 59 -23
c15 -67 -14 -91 -60 -91c-51 0 -69 25 -91 56l-128 185h-137c0 -26 -2 -160 0 -184c3 -35 -6 -47 -33 -47h-39c-37 0 -37 34 -37 60zM201 311h146c81 0 142 51 142 143c0 70 -42 145 -143 145h-145c-2 -60 0 -250 0 -288z" />
    <glyph glyph-name="Rcaron" unicode="&#x158;" horiz-adv-x="677" 
d="M300 749l-136 100c-14 10 -18 22 -7 37l13 17c10 13 13 21 32 10l115 -70c33 21 97 59 114 70s22 3 32 -10l13 -17c11 -15 7 -27 -7 -37c-38 -29 -96 -66 -136 -100c-8 -7 -13 -7 -16 -7c-7 0 -12 3 -17 7zM94 60c2 66 1 534 1 554c0 28 -3 66 45 66h206
c167 0 254 -92 254 -226c0 -106 -68 -176 -152 -206l112 -144c16 -23 34 -23 59 -23c15 -67 -14 -91 -60 -91c-51 0 -69 25 -91 56l-128 185h-137c0 -26 -2 -160 0 -184c3 -35 -6 -47 -33 -47h-39c-37 0 -37 34 -37 60zM201 311h146c81 0 142 51 142 143
c0 70 -42 145 -143 145h-145c-2 -60 0 -250 0 -288z" />
    <glyph glyph-name="Rcommaaccent" unicode="&#x156;" horiz-adv-x="677" 
d="M94 60c2 66 1 534 1 554c0 28 -3 66 45 66h206c167 0 254 -92 254 -226c0 -106 -68 -176 -152 -206l112 -144c16 -23 34 -23 59 -23c15 -67 -14 -91 -60 -91c-51 0 -69 25 -91 56l-128 185h-137c0 -26 -2 -160 0 -184c3 -35 -6 -47 -33 -47h-39c-37 0 -37 34 -37 60z
M201 311h146c81 0 142 51 142 143c0 70 -42 145 -143 145h-145c-2 -60 0 -250 0 -288zM269 -136c0 48 25 72 77 72c50 0 88 -24 88 -92c0 -88 -60 -141 -110 -141c-61 0 -47 53 -47 53s65 3 79 52c-56 -9 -87 23 -87 56z" />
    <glyph glyph-name="Sacute" unicode="&#x15a;" horiz-adv-x="587" 
d="M204 733c-20 -10 -24 -5 -32 10l-9 17c-9 17 -8 29 7 37c38 19 154 77 196 100c19 11 25 8 32 -8l16 -37c7 -17 7 -27 -9 -34zM100 28c-32 20 -42 45 -30 76c9 26 31 38 31 38s62 -61 179 -61c90 0 145 44 145 111c0 45 -42 79 -114 97l-96 25c-88 23 -164 71 -164 176
c0 112 90 200 240 200c95 0 156 -26 181 -41c27 -17 41 -40 22 -74c-11 -20 -26 -30 -26 -30s-75 54 -177 54c-88 0 -129 -45 -129 -108c0 -51 56 -73 109 -88l93 -25c126 -36 172 -98 172 -186c0 -125 -107 -202 -256 -202c-92 0 -158 25 -180 38z" />
    <glyph glyph-name="Scircumflex" unicode="&#x15c;" horiz-adv-x="587" 
d="M177 753c-17 -11 -22 -3 -32 10l-13 17c-11 15 -7 27 7 37c38 29 96 66 136 100c8 7 13 7 16 7c7 0 12 -3 17 -7l136 -100c14 -10 18 -22 7 -37l-13 -17c-10 -13 -13 -21 -32 -10l-115 70c-33 -21 -97 -59 -114 -70zM100 28c-32 20 -42 45 -30 76c9 26 31 38 31 38
s62 -61 179 -61c90 0 145 44 145 111c0 45 -42 79 -114 97l-96 25c-88 23 -164 71 -164 176c0 112 90 200 240 200c95 0 156 -26 181 -41c27 -17 41 -40 22 -74c-11 -20 -26 -30 -26 -30s-75 54 -177 54c-88 0 -129 -45 -129 -108c0 -51 56 -73 109 -88l93 -25
c126 -36 172 -98 172 -186c0 -125 -107 -202 -256 -202c-92 0 -158 25 -180 38z" />
    <glyph glyph-name="Scedilla" unicode="&#x15e;" horiz-adv-x="587" 
d="M100 28c-32 20 -42 45 -30 76c9 26 31 38 31 38s62 -61 179 -61c90 0 145 44 145 111c0 45 -42 79 -114 97l-96 25c-88 23 -164 71 -164 176c0 112 90 200 240 200c95 0 156 -26 181 -41c27 -17 41 -40 22 -74c-11 -20 -26 -30 -26 -30s-75 54 -177 54
c-88 0 -129 -45 -129 -108c0 -51 56 -73 109 -88l93 -25c126 -36 172 -98 172 -186c0 -114 -88 -188 -216 -200c-4 -12 -9 -26 -7 -26c41 -3 70 -17 70 -58c0 -34 -41 -68 -104 -68c-37 0 -55 13 -55 35c0 20 13 31 13 31s17 -9 39 -9c26 0 44 7 44 23c0 17 -31 24 -51 24
c-9 0 -9 7 -7 14s8 21 12 32c-89 1 -153 25 -174 38z" />
    <glyph glyph-name="Scommaaccent" unicode="&#x218;" horiz-adv-x="587" 
d="M100 28c-32 20 -42 45 -30 76c9 26 31 38 31 38s62 -61 179 -61c90 0 145 44 145 111c0 45 -42 79 -114 97l-96 25c-88 23 -164 71 -164 176c0 112 90 200 240 200c95 0 156 -26 181 -41c27 -17 41 -40 22 -74c-11 -20 -26 -30 -26 -30s-75 54 -177 54
c-88 0 -129 -45 -129 -108c0 -51 56 -73 109 -88l93 -25c126 -36 172 -98 172 -186c0 -125 -107 -202 -256 -202c-92 0 -158 25 -180 38zM217 -136c0 48 25 72 77 72c50 0 88 -24 88 -92c0 -88 -60 -141 -110 -141c-61 0 -47 53 -47 53s65 3 79 52c-56 -9 -87 23 -87 56z
" />
    <glyph glyph-name="Tcaron" unicode="&#x164;" horiz-adv-x="586" 
d="M292 742c-7 0 -12 3 -17 7l-136 100c-14 10 -18 22 -7 37l13 17c10 13 13 21 32 10l115 -70c33 21 97 59 114 70s22 3 32 -10l13 -17c11 -15 7 -27 -7 -37c-38 -29 -96 -66 -136 -100c-8 -7 -13 -7 -16 -7zM232 59c1 25 4 409 3 523c-30 0 -166 1 -177 0
c-23 -2 -30 10 -30 33v38c0 22 4 27 32 27c0 0 424 -4 469 0c23 2 30 -13 29 -36l-1 -35c-1 -22 -4 -27 -32 -27l-181 -1c-5 -138 0 -497 0 -514c0 -28 14 -67 -35 -67h-40c-37 0 -38 33 -37 59z" />
    <glyph glyph-name="Tcommaaccent" unicode="&#x162;" horiz-adv-x="586" 
d="M232 59c1 25 4 409 3 523c-30 0 -166 1 -177 0c-23 -2 -30 10 -30 33v38c0 22 4 27 32 27c0 0 424 -4 469 0c23 2 30 -13 29 -36l-1 -35c-1 -22 -4 -27 -32 -27l-181 -1c-5 -138 0 -497 0 -514c0 -28 14 -67 -35 -67h-40c-37 0 -38 33 -37 59zM208 -136c0 48 25 72 77 72
c50 0 88 -24 88 -92c0 -88 -60 -141 -110 -141c-61 0 -47 53 -47 53s65 3 79 52c-56 -9 -87 23 -87 56z" />
    <glyph glyph-name="Tbar" unicode="&#x166;" horiz-adv-x="586" 
d="M232 59c0 13 1 119 2 235h-73c-30 0 -33 7 -33 27v26c0 22 9 24 33 24h74v211c-30 0 -166 1 -177 0c-23 -2 -30 10 -30 33v38c0 22 4 27 32 27c0 0 424 -4 469 0c23 2 30 -13 29 -36l-1 -35c-1 -22 -4 -27 -32 -27l-181 -1c-2 -50 -2 -130 -2 -210h91c24 0 27 -4 27 -28
v-24c0 -19 -6 -24 -31 -24h-87c0 -116 2 -219 2 -228c0 -28 14 -67 -35 -67h-40c-37 0 -38 33 -37 59z" />
    <glyph glyph-name="Umacron" unicode="&#x16a;" horiz-adv-x="715" 
d="M225 754c-20 0 -27 7 -27 27v26c0 22 9 24 33 24c31 0 209 -5 272 0c24 2 27 -4 27 -28v-24c0 -19 -6 -24 -31 -24c-43 0 -274 -1 -274 -1zM83 315c-3 133 1 291 0 311c0 28 -5 54 34 54h41c37 0 38 -20 37 -46c-1 -29 -2 -175 -2 -319s41 -234 166 -234
c121 0 160 86 160 236c0 142 2 289 2 309c0 28 -6 54 33 54h41c37 0 39 -20 38 -46c-1 -29 -3 -271 -5 -318c-8 -196 -58 -326 -269 -326c-223 0 -272 127 -276 325z" />
    <glyph glyph-name="Uring" unicode="&#x16e;" horiz-adv-x="715" 
d="M362 710c-104 0 -148 52 -148 121c0 68 50 122 148 122s147 -53 147 -122s-54 -121 -147 -121zM362 772c55 0 68 31 68 60c0 28 -13 58 -68 58c-59 0 -69 -30 -69 -58c0 -29 10 -60 69 -60zM83 315c-3 133 1 291 0 311c0 28 -5 54 34 54h41c37 0 38 -20 37 -46
c-1 -29 -2 -175 -2 -319s41 -234 166 -234c121 0 160 86 160 236c0 142 2 289 2 309c0 28 -6 54 33 54h41c37 0 39 -20 38 -46c-1 -29 -3 -271 -5 -318c-8 -196 -58 -326 -269 -326c-223 0 -272 127 -276 325z" />
    <glyph glyph-name="Uhungarumlaut" unicode="&#x170;" horiz-adv-x="715" 
d="M446 731l-14 12c-15 13 -19 25 -7 38l118 131c15 16 21 16 33 3l28 -29c13 -14 16 -23 3 -35l-128 -119c-15 -16 -20 -12 -33 -1zM241 731l-14 12c-15 13 -19 25 -7 38l118 131c15 16 21 16 33 3l28 -29c13 -14 16 -23 3 -35l-128 -119c-15 -16 -20 -12 -33 -1zM83 315
c-3 133 1 291 0 311c0 28 -5 54 34 54h41c37 0 38 -20 37 -46c-1 -29 -2 -175 -2 -319s41 -234 166 -234c121 0 160 86 160 236c0 142 2 289 2 309c0 28 -6 54 33 54h41c37 0 39 -20 38 -46c-1 -29 -3 -271 -5 -318c-8 -196 -58 -326 -269 -326c-223 0 -272 127 -276 325z
" />
    <glyph glyph-name="Utilde" unicode="&#x168;" horiz-adv-x="715" 
d="M231 764l-15 13c-12 11 -16 18 -8 35c16 33 51 79 97 79c61 0 91 -64 120 -64c24 0 32 14 39 25c8 11 22 13 33 1l19 -20c12 -13 12 -18 2 -37c-12 -22 -43 -57 -93 -57c-58 0 -87 62 -120 62c-20 0 -34 -23 -42 -39s-19 -9 -32 2zM83 315c-3 133 1 291 0 311
c0 28 -5 54 34 54h41c37 0 38 -20 37 -46c-1 -29 -2 -175 -2 -319s41 -234 166 -234c121 0 160 86 160 236c0 142 2 289 2 309c0 28 -6 54 33 54h41c37 0 39 -20 38 -46c-1 -29 -3 -271 -5 -318c-8 -196 -58 -326 -269 -326c-223 0 -272 127 -276 325z" />
    <glyph glyph-name="Ubreve" unicode="&#x16c;" horiz-adv-x="715" 
d="M364 735c-104 0 -148 60 -148 129c0 12 8 27 26 27h36c15 0 24 -10 24 -24c0 -26 14 -54 62 -54c45 0 61 28 61 54c0 13 9 23 27 23h29c16 0 30 -6 30 -26c0 -69 -54 -129 -147 -129zM83 315c-3 133 1 291 0 311c0 28 -5 54 34 54h41c37 0 38 -20 37 -46
c-1 -29 -2 -175 -2 -319s41 -234 166 -234c121 0 160 86 160 236c0 142 2 289 2 309c0 28 -6 54 33 54h41c37 0 39 -20 38 -46c-1 -29 -3 -271 -5 -318c-8 -196 -58 -326 -269 -326c-223 0 -272 127 -276 325z" />
    <glyph glyph-name="Uogonek" unicode="&#x172;" horiz-adv-x="715" 
d="M269 -68c0 26 10 47 28 62c-171 22 -211 143 -214 321c-3 133 1 291 0 311c0 28 -5 54 34 54h41c37 0 38 -20 37 -46c-1 -29 -2 -175 -2 -319s41 -234 166 -234c121 0 160 86 160 236c0 142 2 289 2 309c0 28 -6 54 33 54h41c37 0 39 -20 38 -46c-1 -29 -3 -271 -5 -318
c-8 -194 -57 -323 -263 -326c-12 -8 -17 -22 -17 -38c0 -29 23 -45 57 -45c35 0 60 12 60 12s16 -12 16 -37c0 -26 -35 -42 -91 -42c-78 0 -121 32 -121 92z" />
    <glyph glyph-name="Wacute" unicode="&#x1e82;" horiz-adv-x="1018" 
d="M396 743l-9 17c-9 17 -8 29 7 37c38 19 154 77 196 100c19 11 25 8 32 -8l16 -37c7 -17 7 -27 -9 -34l-201 -85c-20 -10 -24 -5 -32 10zM193 59c-11 40 -140 527 -147 570c-5 29 -5 51 32 51h29c37 0 45 -27 48 -41c11 -46 101 -430 124 -537h5c28 108 131 497 143 531
c8 27 15 47 49 47h64c34 0 45 -32 49 -47l142 -535h5c25 103 116 506 123 538c6 28 11 44 44 44h42c27 0 34 -22 28 -48c-17 -71 -137 -513 -150 -565c-6 -28 -10 -67 -55 -67h-68c-25 0 -43 12 -52 43c-12 38 -108 411 -137 525h-5c-31 -117 -128 -487 -139 -526
c-7 -33 -25 -42 -51 -42h-70c-39 0 -46 35 -53 59z" />
    <glyph glyph-name="Wcircumflex" unicode="&#x174;" horiz-adv-x="1018" 
d="M363 763l-13 17c-11 15 -7 27 7 37c38 29 96 66 136 100c8 7 13 7 16 7c7 0 12 -3 17 -7l136 -100c14 -10 18 -22 7 -37l-13 -17c-10 -13 -13 -21 -32 -10l-115 70c-33 -21 -97 -59 -114 -70s-22 -3 -32 10zM193 59c-11 40 -140 527 -147 570c-5 29 -5 51 32 51h29
c37 0 45 -27 48 -41c11 -46 101 -430 124 -537h5c28 108 131 497 143 531c8 27 15 47 49 47h64c34 0 45 -32 49 -47l142 -535h5c25 103 116 506 123 538c6 28 11 44 44 44h42c27 0 34 -22 28 -48c-17 -71 -137 -513 -150 -565c-6 -28 -10 -67 -55 -67h-68
c-25 0 -43 12 -52 43c-12 38 -108 411 -137 525h-5c-31 -117 -128 -487 -139 -526c-7 -33 -25 -42 -51 -42h-70c-39 0 -46 35 -53 59z" />
    <glyph glyph-name="Wgrave" unicode="&#x1e80;" horiz-adv-x="1018" 
d="M391 818c-16 7 -16 17 -9 34l16 37c7 16 13 19 32 8c42 -23 158 -81 196 -100c15 -8 16 -20 7 -37l-9 -17c-8 -15 -12 -20 -32 -10zM193 59c-11 40 -140 527 -147 570c-5 29 -5 51 32 51h29c37 0 45 -27 48 -41c11 -46 101 -430 124 -537h5c28 108 131 497 143 531
c8 27 15 47 49 47h64c34 0 45 -32 49 -47l142 -535h5c25 103 116 506 123 538c6 28 11 44 44 44h42c27 0 34 -22 28 -48c-17 -71 -137 -513 -150 -565c-6 -28 -10 -67 -55 -67h-68c-25 0 -43 12 -52 43c-12 38 -108 411 -137 525h-5c-31 -117 -128 -487 -139 -526
c-7 -33 -25 -42 -51 -42h-70c-39 0 -46 35 -53 59z" />
    <glyph glyph-name="Wdieresis" unicode="&#x1e84;" horiz-adv-x="1018" 
d="M644 734c-36 0 -62 6 -63 60c-2 55 25 61 59 61s61 -6 63 -61c1 -54 -26 -60 -59 -60zM380 734c-36 0 -62 6 -63 60c-2 55 25 61 59 61s61 -6 63 -61c1 -54 -26 -60 -59 -60zM193 59c-11 40 -140 527 -147 570c-5 29 -5 51 32 51h29c37 0 45 -27 48 -41
c11 -46 101 -430 124 -537h5c28 108 131 497 143 531c8 27 15 47 49 47h64c34 0 45 -32 49 -47l142 -535h5c25 103 116 506 123 538c6 28 11 44 44 44h42c27 0 34 -22 28 -48c-17 -71 -137 -513 -150 -565c-6 -28 -10 -67 -55 -67h-68c-25 0 -43 12 -52 43
c-12 38 -108 411 -137 525h-5c-31 -117 -128 -487 -139 -526c-7 -33 -25 -42 -51 -42h-70c-39 0 -46 35 -53 59z" />
    <glyph glyph-name="Ycircumflex" unicode="&#x176;" horiz-adv-x="624" 
d="M195 753c-17 -11 -22 -3 -32 10l-13 17c-11 15 -7 27 7 37c38 29 96 66 136 100c8 7 13 7 16 7c7 0 12 -3 17 -7l136 -100c14 -10 18 -22 7 -37l-13 -17c-10 -13 -13 -21 -32 -10l-115 70c-33 -21 -97 -59 -114 -70zM254 60v220c-37 66 -206 336 -221 357
c-7 11 -16 43 13 43h56c27 0 35 -20 43 -35c32 -60 128 -213 161 -269h7c37 56 152 249 165 277c8 16 16 27 51 27h45c20 0 32 -25 20 -43c-22 -29 -195 -308 -230 -359c1 -30 -1 -188 1 -211c2 -28 15 -67 -34 -67h-40c-37 0 -39 34 -37 60z" />
    <glyph glyph-name="Ygrave" unicode="&#x1ef2;" horiz-adv-x="624" 
d="M393 733l-201 85c-16 7 -16 17 -9 34l16 37c7 16 13 19 32 8c42 -23 158 -81 196 -100c15 -8 16 -20 7 -37l-9 -17c-8 -15 -12 -20 -32 -10zM254 60v220c-37 66 -206 336 -221 357c-7 11 -16 43 13 43h56c27 0 35 -20 43 -35c32 -60 128 -213 161 -269h7
c37 56 152 249 165 277c8 16 16 27 51 27h45c20 0 32 -25 20 -43c-22 -29 -195 -308 -230 -359c1 -30 -1 -188 1 -211c2 -28 15 -67 -34 -67h-40c-37 0 -39 34 -37 60z" />
    <glyph glyph-name="Zacute" unicode="&#x179;" horiz-adv-x="592" 
d="M215 733c-20 -10 -24 -5 -32 10l-9 17c-9 17 -8 29 7 37c38 19 154 77 196 100c19 11 25 8 32 -8l16 -37c7 -17 7 -27 -9 -34zM51 34v60c32 39 309 405 365 481v6h-300c-24 0 -29 12 -29 35v37c0 22 6 27 35 27h385c21 0 32 -15 34 -35v-54l-365 -486v-8
c49 0 294 1 312 3c24 2 34 -10 34 -33v-40c0 -22 -5 -27 -35 -27h-399c-25 0 -35 10 -37 34z" />
    <glyph glyph-name="Zdotaccent" unicode="&#x17b;" horiz-adv-x="592" 
d="M313 734c-36 0 -61 6 -63 60c-2 55 25 61 59 61s61 -6 63 -61c1 -54 -26 -60 -59 -60zM51 34v60c32 39 309 405 365 481v6h-300c-24 0 -29 12 -29 35v37c0 22 6 27 35 27h385c21 0 32 -15 34 -35v-54l-365 -486v-8c49 0 294 1 312 3c24 2 34 -10 34 -33v-40
c0 -22 -5 -27 -35 -27h-399c-25 0 -35 10 -37 34z" />
    <glyph glyph-name="copyright" unicode="&#xa9;" horiz-adv-x="946" 
d="M331 426h4c9 -3 13 -11 13 -25v-73c12 -61 48 -117 108 -167c49 -27 90 -40 125 -40h21c25 0 54 13 87 40h13l4 -12c-15 -49 -59 -106 -119 -143l-3 2c-168 -46 -289 169 -288 304c4 76 16 114 35 114zM831 483l-4 32h4c30 -15 52 -42 65 -81v-29c0 -43 -49 -72 -147 -85
h-56c-67 0 -149 30 -246 89l-13 21v8l13 12c75 -38 143 -57 203 -57h26c103 8 155 38 155 90zM274 470l5 -4v-4c-92 -85 -138 -162 -138 -231v-41c0 -35 20 -63 60 -85v-9l-30 -8c-71 12 -95 40 -95 86v36c0 65 52 145 155 240c18 13 32 20 43 20zM650 668l17 2
c58 -11 87 -30 87 -57c0 -50 -75 -87 -225 -110c-15 0 -23 4 -26 12c0 7 22 13 65 20c59 20 100 46 121 78v20c-11 16 -21 24 -30 24zM214 523l60 12h5l8 -8c-3 -5 -35 -17 -95 -36c-73 -41 -114 -89 -125 -143h-4c-5 0 -9 7 -13 21c0 49 55 100 164 154zM473 686l39 8
c40 -3 60 -17 60 -41c-12 -34 -35 -61 -69 -81h-17v8c26 27 39 48 39 61v8c0 19 -12 29 -35 29h-17v8zM287 605c41 -6 61 -14 61 -25v-8l-52 8h-13c-47 0 -88 -16 -125 -49h-4c35 49 80 74 133 74zM305 645l73 21c33 0 53 -18 60 -53l-8 -21h-17c0 25 -15 43 -44 53h-25
l-39 -8v8z" />
  </font>
</defs>
</svg>
